<svg xmlns="http://www.w3.org/2000/svg" data-name="Layer 1" viewBox="0 0 512 512"><path fill="#a9c4ff" d="M484.738 316.683c-10.666-7.574-15.729-19.797-13.543-32.697 1.329-7.851-.209-13.306-5.144-18.24-4.936-4.936-10.391-6.473-18.239-5.143-12.9 2.181-25.123-2.879-32.698-13.543-4.61-6.492-9.556-9.261-16.535-9.261s-11.924 2.77-16.535 9.261c-7.576 10.666-19.8 15.728-32.697 13.543-7.85-1.328-13.306.209-18.24 5.144s-6.474 10.391-5.143 18.239c2.186 12.9-2.877 25.123-13.543 32.698-6.492 4.611-9.262 9.557-9.262 16.535s2.77 11.924 9.262 16.535c10.665 7.574 15.728 19.798 13.542 32.696-1.329 7.852.209 13.308 5.144 18.24 4.936 4.937 10.392 6.476 18.24 5.144 1.979-.335 3.942-.5 5.874-.5 10.666 0 20.41 5.014 26.823 14.043 4.611 6.492 9.556 9.262 16.535 9.262s11.925-2.77 16.535-9.261c7.575-10.666 19.798-15.728 32.696-13.544 7.852 1.329 13.307-.21 18.241-5.143 4.936-4.936 6.474-10.391 5.143-18.24-2.186-12.899 2.877-25.123 13.544-32.697 6.491-4.611 9.261-9.556 9.261-16.535s-2.77-11.924-9.262-16.535zm-86.159 72.848c-31.051 0-56.312-25.262-56.312-56.312s25.262-56.312 56.312-56.312 56.312 25.262 56.312 56.312-25.262 56.312-56.312 56.312zM427.557 240.277c3.164 3.795 7.333 6.084 12 6.667V118.574c0-4.725-1.833-8.79-5.602-12.429-.029-.028-.059-.057-.087-.086l-.618-.618c-2.465-2.376-5.422-4.062-8.624-4.975 1.869 3.669 2.93 7.816 2.93 12.208v127.603zM88.993 300.267l-.78-7.129c-2.563-23.421-21.423-42.282-44.845-44.846l-7.129-.78c-3.55-.389-6.238-3.387-6.238-6.958V95.951c0-3.571 2.688-6.57 6.238-6.958l7.129-.78c23.422-2.564 42.282-21.424 44.845-44.846l.78-7.129c.389-3.55 3.387-6.238 6.958-6.238h248.931c4.392 0 8.539 1.061 12.208 2.93-.914-3.203-2.6-6.161-4.979-8.627l-.614-.614-.086-.088c-3.638-3.769-7.704-5.601-12.429-5.601H18v300.505s274.471 0 274.471 0c2.239-4.471 5.617-8.456 10.186-12H95.952c-3.571 0-6.57-2.688-6.958-6.238z" class="colora3b7ff svgShape"/><rect width="133" height="24" x="162.279" y="81.255" fill="#a9c4ff" class="colora3b7ff svgShape"/><path fill="#467ffd" d="m160.785,119.255h135.988c6.896,0,12.506-5.61,12.506-12.506v-26.988c0-6.896-5.61-12.506-12.506-12.506h-135.988c-6.896,0-12.506,5.61-12.506,12.506v26.988c0,6.896,5.61,12.506,12.506,12.506Zm1.494-38h133v24h-133v-24Zm119.5,180.995c0,3.866-3.134,7-7,7h-119.5c-3.866,0-7-3.134-7-7s3.134-7,7-7h119.5c3.866,0,7,3.134,7,7Zm-178.278-114.497c0-3.866,3.134-7,7-7h236.557c3.866,0,7,3.134,7,7s-3.134,7-7,7H110.5c-3.866,0-7-3.134-7-7Zm-34.999,38.166c0-3.866,3.134-7,7-7h306.554c3.866,0,7,3.134,7,7s-3.134,7-7,7H75.501c-3.866,0-7-3.134-7-7Zm286.054,45.166H75.501c-3.866,0-7-3.134-7-7s3.134-7,7-7h279.054c3.866,0,7,3.134,7,7s-3.134,7-7,7Zm138.29,130.083c10.197-7.243,15.154-16.386,15.154-27.949s-4.957-20.706-15.155-27.949c-6.272-4.454-9.132-11.359-7.846-18.945,2.087-12.333-.872-22.303-9.047-30.478-6.31-6.31-13.69-9.5-22.394-9.674v-127.598c0-8.461-3.4-16.225-9.831-22.456L361.439,13.831c-6.23-6.432-13.994-9.832-22.457-9.832H11c-3.866,0-7,3.134-7,7v314.505c0,1.856.737,3.637,2.05,4.949,1.313,1.313,3.093,2.051,4.95,2.051h278.179c-.004.239-.019.472-.019.713,0,11.563,4.958,20.705,15.155,27.949,6.272,4.454,9.132,11.358,7.846,18.945-2.087,12.334.873,22.304,9.047,30.477,2.591,2.591,5.364,4.655,8.334,6.204l-28.175,59.693c-1.073,2.274-.845,4.949.6,7.009,1.444,2.058,3.877,3.182,6.386,2.948l28.035-2.635,17.99,21.663c1.343,1.617,3.324,2.528,5.385,2.528.405,0,.812-.035,1.219-.107,2.476-.438,4.527-2.17,5.373-4.538l22.197-62.145c3.123.953,6.46,1.428,10.03,1.428,3.696,0,7.142-.512,10.36-1.534l22.175,62.082c.846,2.368,2.897,4.101,5.373,4.538.407.072.814.107,1.219.107,2.06,0,4.042-.911,5.385-2.528l17.99-21.663,28.035,2.635c2.498.247,4.941-.89,6.385-2.949,1.444-2.059,1.673-4.733.6-7.008l-28.175-59.69c2.853-1.53,5.524-3.537,8.025-6.038,8.178-8.178,11.137-18.147,9.046-30.478-1.285-7.586,1.575-14.49,7.848-18.944Zm-180.684-74.842c.361,2.128.383,4.199.108,6.18H102.227l-.097-.891c-3.272-29.894-27.344-53.966-57.239-57.239l-.891-.097V102.227l.891-.098c29.895-3.273,53.967-27.345,57.239-57.239l.097-.891h242.655c7.168,0,13,5.832,13,13v35.675c0,3.866,3.134,7,7,7h35.674c7.168,0,13,5.832,13,13v114.568c-4.479-2.297-9.448-3.444-14.977-3.444-11.564,0-20.706,4.957-27.948,15.154-4.455,6.272-11.355,9.135-18.946,7.847-12.334-2.088-22.303.872-30.477,9.047-8.178,8.178-11.137,18.148-9.046,30.479Zm59.721-200.65v-41.602l41.602,41.602h-41.602Zm52.745,14.792c3.202.913,6.158,2.599,8.624,4.975l.618.618c.029.029.058.058.087.086,3.769,3.639,5.601,7.705,5.601,12.429v128.37c-4.667-.583-8.836-2.872-12-6.667v-127.603c0-4.392-1.061-8.539-2.93-12.208Zm-132.156,218.039H18V18h320.982c4.725,0,8.791,1.832,12.429,5.601l.086.088.614.614c2.378,2.466,4.065,5.424,4.979,8.627-3.669-1.869-7.816-2.93-12.208-2.93H95.952c-3.571,0-6.57,2.688-6.958,6.238l-.78,7.129c-2.563,23.421-21.423,42.282-44.845,44.846l-7.129.78c-3.55.389-6.238,3.387-6.238,6.958v144.602c0,3.571,2.688,6.57,6.238,6.958l7.129.78c23.422,2.564,42.282,21.425,44.845,44.846l.78,7.129c.389,3.55,3.387,6.238,6.958,6.238h206.706c-4.568,3.544-7.947,7.529-10.186,12Zm64.829,168.575l-12.505-15.059c-1.478-1.78-3.747-2.712-6.041-2.497l-19.486,1.831,24.117-51.095c2.643.068,5.404-.134,8.3-.625,7.587-1.286,14.49,1.576,18.945,7.847,1.762,2.481,3.638,4.645,5.632,6.51l-18.962,53.088Zm120.898-15.893l-19.487-1.831c-2.304-.229-4.563.719-6.04,2.497l-12.504,15.058-18.997-53.185c1.891-1.805,3.679-3.877,5.359-6.242,4.455-6.272,11.36-9.13,18.945-7.848,3.035.514,5.926.719,8.684.619l24.041,50.933Zm6.541-121.435c-10.667,7.574-15.729,19.798-13.544,32.697,1.331,7.85-.208,13.305-5.143,18.24-4.934,4.933-10.39,6.472-18.241,5.143-12.898-2.184-25.122,2.878-32.696,13.544-4.61,6.491-9.555,9.261-16.535,9.261s-11.924-2.77-16.535-9.262c-6.413-9.029-16.157-14.043-26.823-14.043-1.932,0-3.896.165-5.874.5-7.848,1.332-13.304-.207-18.24-5.144-4.934-4.933-6.472-10.389-5.144-18.24,2.186-12.898-2.877-25.122-13.542-32.696-6.492-4.611-9.262-9.557-9.262-16.535s2.77-11.924,9.262-16.535c10.666-7.575,15.729-19.798,13.543-32.698-1.331-7.849.207-13.303,5.143-18.239s10.39-6.472,18.24-5.144c12.897,2.185,25.121-2.877,32.697-13.543,4.61-6.492,9.556-9.261,16.535-9.261s11.925,2.77,16.535,9.261c7.575,10.664,19.798,15.725,32.698,13.543,7.849-1.33,13.304.207,18.239,5.143,4.935,4.934,6.473,10.389,5.144,18.24-2.186,12.899,2.877,25.123,13.543,32.697,6.492,4.611,9.262,9.556,9.262,16.535s-2.77,11.924-9.261,16.535Zm-86.16-72.848c-31.051,0-56.312,25.262-56.312,56.312s25.262,56.312,56.312,56.312,56.312-25.262,56.312-56.312-25.262-56.312-56.312-56.312Zm0,98.625c-23.331,0-42.312-18.981-42.312-42.312s18.981-42.312,42.312-42.312,42.312,18.981,42.312,42.312-18.981,42.312-42.312,42.312Zm24.496-61.921c2.733,2.733,2.733,7.165,0,9.898l-29.32,29.319c-1.321,1.321-3.105,2.051-4.949,2.051-.304,0-.609-.02-.914-.06-2.158-.284-4.061-1.556-5.148-3.44l-9.771-16.925c-1.933-3.348-.786-7.629,2.562-9.562,3.349-1.93,7.629-.785,9.562,2.562l5.21,9.024,22.869-22.868c2.734-2.734,7.166-2.733,9.899,0Z" class="color466ffd svgShape"/></svg>