<svg xmlns="http://www.w3.org/2000/svg" viewBox="0 0 64 64"><path fill="#a9c4ff" d="M56 19H45.67a13.994 13.994 0 0 0-27.34 0H8a2 2 0 0 0-2 2v30h18.172a2 2 0 0 1 1.414.586l.828.828a2 2 0 0 0 1.414.586h8.344a2 2 0 0 0 1.414-.586l.828-.828A2 2 0 0 1 39.828 51H58V21a2 2 0 0 0-2-2Zm-24-7a10 10 0 1 1-10 10 10 10 0 0 1 10-10Zm22 34a1 1 0 0 1-1 1H11a1 1 0 0 1-1-1V24a1 1 0 0 1 1-1h7.05a13.984 13.984 0 0 0 27.9 0H53a1 1 0 0 1 1 1Z" class="colorbddbff svgShape"/><path fill="#3d71e2" d="M32 33a11 11 0 1 0-11-11 11.012 11.012 0 0 0 11 11Zm-7.025-16.611 1.661 1.66a1 1 0 1 0 1.414-1.413l-1.66-1.661A8.952 8.952 0 0 1 31 13.059V15a1 1 0 0 0 2 0v-1.941a8.952 8.952 0 0 1 4.61 1.916l-1.66 1.66a1 1 0 1 0 1.414 1.415l1.66-1.661A8.951 8.951 0 0 1 40.942 21H39a1 1 0 0 0 0 2h1.941a8.951 8.951 0 0 1-1.916 4.611l-1.661-1.66a1 1 0 1 0-1.414 1.413l1.66 1.661A8.952 8.952 0 0 1 33 30.941V29a1 1 0 0 0-2 0v1.941a8.952 8.952 0 0 1-4.61-1.916l1.66-1.66a1 1 0 1 0-1.414-1.415l-1.66 1.661A8.951 8.951 0 0 1 23.058 23H25a1 1 0 0 0 0-2h-1.941a8.951 8.951 0 0 1 1.916-4.611Zm4.604 8.318a1 1 0 0 1 0-1.414L31 21.873V18a1 1 0 0 1 2 0v4.286a1 1 0 0 1-.293.707l-1.714 1.714a1 1 0 0 1-1.414 0Zm31.18 26.476A2.967 2.967 0 0 0 59 50.072V21a3 3 0 0 0-3-3h-9.558a14.98 14.98 0 0 0-28.884 0H8a3 3 0 0 0-3 3v29.065a3.03 3.03 0 0 0-2.265 3.734l.277 1A3.009 3.009 0 0 0 5.903 57h52.194a3.009 3.009 0 0 0 2.891-2.201l.277-1a2.978 2.978 0 0 0-.505-2.616ZM32 37a15.011 15.011 0 0 0 14.85-13H53v22H11l-.001-22h6.15A15.011 15.011 0 0 0 32 37Zm0-28a13 13 0 1 1-13 13A13.015 13.015 0 0 1 32 9ZM7 21a1 1 0 0 1 1-1h9.15a14.991 14.991 0 0 0-.15 2h-6a2.002 2.002 0 0 0-2 2v22a2.002 2.002 0 0 0 2 2h42a2.002 2.002 0 0 0 2-2V24a2.002 2.002 0 0 0-2-2h-6a14.991 14.991 0 0 0-.15-2H56a1 1 0 0 1 1 1v29H39.829a2.982 2.982 0 0 0-2.122.879l-.828.828a.996.996 0 0 1-.708.293H27.83a.996.996 0 0 1-.708-.293l-.828-.828A2.982 2.982 0 0 0 24.171 50H7Zm52.337 32.266-.276 1a1.003 1.003 0 0 1-.964.734H5.903a1.003 1.003 0 0 1-.964-.734l-.276-1A1.006 1.006 0 0 1 5.627 52h18.544a.996.996 0 0 1 .708.293l.828.828A2.982 2.982 0 0 0 27.83 54h8.342a2.982 2.982 0 0 0 2.122-.879l.828-.828A.996.996 0 0 1 39.83 52h18.544a1.006 1.006 0 0 1 .964 1.266Z" class="color3d9ae2 svgShape"/></svg>