<svg xmlns="http://www.w3.org/2000/svg" viewBox="0 0 2281.86 2200"><defs><clipPath id="a"><path fill="#a9c4ff" d="M1230.53,1954.29c289.16,0,124.1-467.42,124.1-723.81S1523,589.94,1233.84,586.62c-350.93-4-557.46,78.11-684.12,203.08-54,53.24-93.46,114.28-123.43,179.75-47.15,102.93-70.74,216.83-90.24,328.59-48.31,276.84-51.39,563.15,83.22,656.21Z" class="colorbfeeef svgShape"/></clipPath></defs><path fill="#a9c4ff" d="M1230.53,1954.29c289.16,0,124.1-467.42,124.1-723.81S1523,589.94,1233.84,586.62c-350.93-4-557.46,78.11-684.12,203.08-54,53.24-93.46,114.28-123.43,179.75-47.15,102.93-70.74,216.83-90.24,328.59-48.31,276.84-51.39,563.15,83.22,656.21Z" class="colorbfeeef svgShape"/><g class="color000000 svgShape" clip-path="url(#a)" opacity=".66"><rect width="55.01" height="1299.31" x="412.57" y="690.1" fill="#8fa2cc" class="color8fcccc svgShape"/><rect width="55.01" height="1299.31" x="578.85" y="690.1" fill="#8fa2cc" class="color8fcccc svgShape"/><rect width="45.05" height="1508.53" x="750.11" y="585.49" fill="#8fa2cc" class="color8fcccc svgShape"/><rect width="45.05" height="1508.53" x="916.39" y="585.49" fill="#8fa2cc" class="color8fcccc svgShape"/><rect width="45.05" height="1508.53" x="1082.68" y="585.49" fill="#8fa2cc" class="color8fcccc svgShape"/><rect width="45.05" height="1508.53" x="1248.96" y="585.49" fill="#8fa2cc" class="color8fcccc svgShape"/></g><rect width="1585.88" height="21.51" x="400.06" y="1943.49" fill="#b35270" class="colorb36652 svgShape" rx="5.52"/><rect width="111.44" height="21.51" x="278.76" y="1943.49" fill="#b35270" class="colorb36652 svgShape" rx="5.52"/><rect width="383.53" height="204.42" x="1371.28" y="235" fill="#8aa0d1" class="color8acbd1 svgShape" rx="102.21"/><polygon fill="#8aa0d1" points="1486.86 434 1486.86 468.57 1537.23 434 1486.86 434" class="color8acbd1 svgShape"/><rect width="550.43" height="293.38" x="1406.1" y="675.9" fill="#8aa0d1" class="color8acbd1 svgShape" rx="146.69"/><polygon fill="#8aa0d1" points="1573.86 961 1573.86 1011.12 1644.26 961 1573.86 961" class="color8acbd1 svgShape"/><rect width="405.52" height="216.14" x="1597.58" y="545.35" fill="#3c61b2" class="color3ca9b2 svgShape" rx="108.07"/><polygon fill="#3c61b2" points="1720.86 756 1720.86 792.31 1773.04 756 1720.86 756" class="color3ca9b2 svgShape"/><rect width="405.53" height="216.14" x="356.21" y="373.07" fill="#f0608c" class="colorf0a860 svgShape" rx="108.07"/><polygon fill="#f0608c" points="491.59 583.7 491.59 621.13 542.9 583.7 491.59 583.7" class="colorf0a860 svgShape"/><circle cx="496.6" cy="479.56" r="17.78" fill="#f69fba" class="colorf6d89f svgShape" transform="rotate(-45 496.6 479.561)"/><circle cx="558.98" cy="479.56" r="17.78" fill="#f69fba" class="colorf6d89f svgShape" transform="rotate(-76.82 558.975 479.565)"/><circle cx="621.35" cy="480.53" r="17.78" fill="#f69fba" class="colorf6d89f svgShape" transform="rotate(-45 621.355 480.536)"/><rect width="272.35" height="145.16" x="535.43" y="612.07" fill="#f0608c" class="colorf0a860 svgShape" rx="72.58"/><polygon fill="#f0608c" points="745.29 752.83 745.29 777.94 709.37 752.83 745.29 752.83" class="colorf0a860 svgShape"/><circle cx="625.86" cy="682.76" r="14.01" fill="#f69fba" class="colorf6d89f svgShape" transform="rotate(-52.86 625.835 682.744)"/><circle cx="675.03" cy="682.76" r="14.01" fill="#f69fba" class="colorf6d89f svgShape" transform="rotate(-80.74 675.05 682.763)"/><circle cx="724.19" cy="683.52" r="14.01" fill="#f69fba" class="colorf6d89f svgShape"/><rect width="665.36" height="450.67" x="764.5" y="1193.88" fill="#3457a3" class="color34a0a3 svgShape" rx="54.16"/><path fill="#3c61b2" d="M1051.57,1288.65H608.75a35.17,35.17,0,0,1-34.52-28.43l-58.79-301A35.17,35.17,0,0,1,550,917.29H992.77a35.18,35.18,0,0,1,34.53,28.43l58.79,301A35.17,35.17,0,0,1,1051.57,1288.65Z" class="color3ca9b2 svgShape"/><path fill="#6a89ce" d="M708.4,1288.65H579.78l-65.61-335.9a29.76,29.76,0,0,1,29.21-35.46h92.49Z" class="color6accce svgShape"/><rect width="343.11" height="116.05" x="1086.75" y="1528.49" fill="#335399" class="color339799 svgShape" rx="39.17"/><path fill="#b35270" d="M594.77,1644.54l-46.32,280.65a13.15,13.15,0,0,0,13,15.29h0a13.15,13.15,0,0,0,12.55-9.21l89.95-286.73Z" class="colorb36652 svgShape"/><path fill="#b35270" d="M1067.12,1644.54l46.32,280.65a13.15,13.15,0,0,1-13,15.29h0a13.15,13.15,0,0,1-12.54-9.21l-90-286.73Z" class="colorb36652 svgShape"/><path fill="#b35270" d="M1336,1644.54l46.31,280.65a13.15,13.15,0,0,1-13,15.29h0a13.15,13.15,0,0,1-12.54-9.21l-90-286.73Z" class="colorb36652 svgShape"/><polygon fill="#b35270" points="911.75 773.32 1064.71 801.91 1071.89 747.1 1090.05 747.99 1073.52 711.35 1096.98 639.71 1082.13 563.57 907.49 596.51 911.75 773.32" class="colorb36652 svgShape"/><polygon fill="#b35270" points="1033.53 787.77 1011.61 895.22 889.38 856.22 911.05 741.72 1033.53 787.77" class="colorb36652 svgShape"/><path fill="#051c4f" d="M1097,640.52s28.22.47,36.47-29.54-5.09-45.7-19.85-52.87-18.34-11.2-21-23.73-14.88-33.44-42.31-36.64-52.7,13.65-63,25.94-15.53,20.08-37.18,17.5-58.58,3.18-64.93,33.08-6.41,36.94-22.72,43.93-27.94,20.28-14.46,54.27,57,100.86,57,100.86l17.36-63.62L942.71,665s17.59,6.55,28.84-13.29,14.9-46.79,29.77-45.72,19.32,19.59,46,18.15,29.74-8,37.46-4.85C1092.84,622.57,1097,640.52,1097,640.52Z" class="color053b4f svgShape"/><path fill="#b35270" d="M955.52,687c-4.47,15.53-7.22,31.78-20.61,28s-21.68-6.21-26.59-29.56c-3.4-16.17,12.48-44,25.86-40.23S960,671.48,955.52,687Z" class="colorb36652 svgShape"/><polygon fill="#87344d" points="1031.92 795.55 1026.91 814.65 942.2 781.89 918.01 724.7 922.43 709.7 953.08 773.32 1031.92 795.55" class="color873a34 svgShape" opacity=".28"/><path fill="#87344d" d="M1001.78,729c5.52-4.87,3.62-15.77-4.23-24.33s-18.7-11.56-24.22-6.68-3.62,15.77,4.23,24.34S996.26,733.9,1001.78,729Z" class="color873a34 svgShape" opacity=".28"/><path fill="#b35270" d="M1597.31,1133.42c-.16-.12-.5.09-.57,0-1.15-.94-3.3-4.37-8.86-8.2-6.18-4.26-20.24-8.15-41.67-10.52-23.09-2.56-125.56-11.77-125.56-11.77L1411,1180.7s62.13-5,65.13-3.66,33.65,15.64,43,18.23,32.85,2.29,37.64,4.44,13.34,8,22.53,11.85,22.42,4.07,22.42,4.07v-.07s2.31.94,3.85-2.87-.34-10.52-3.76-13.68-49.34-24.82-50.94-26.22c-.16-.16-.14-.38,0-.63.8-1.15,4.93-3.15,8.45-4.69.57-.23,1.08-.48,1.65-.71l.3-.2c2.87-1.2,5.47-2.31,5.8-2.43,4.21-1.06,11.25-4.36,19.2-5.15l0,0c14.19-2.86,31.2.68,53,18.41a96,96,0,0,0,11.08,8.17c9.25,5.31,18.45,1.9,19.66-1.36s-44.67-40-49.31-43.43c-4.35-3.17-20.8-5.45-23.29-7.33Z" class="colorb36652 svgShape"/><path fill="#87344d" d="M1538.17,1123.41c6.57-2.53,20.7-1,24.95.33,4,1.26,24.67,8.68,33.86,10.14a1.64,1.64,0,0,1-.41-.21c-1.15-.94-3.12-4.58-8.69-8.41-6.17-4.25-20.24-8.16-41.66-10.52-8.14,3.34-12.48,4.91-15.78,7.62C1525.59,1126.33,1531.61,1126,1538.17,1123.41Z" class="color873a34 svgShape" opacity=".14"/><path fill="#87344d" d="M1551.49,1172.61c-1-.88,3.26-3,7.53-4.92l1.93-.82c-6.2-.11-23.52-12-23.75-10S1541.33,1166.8,1551.49,1172.61Z" class="color873a34 svgShape" opacity=".14"/><polygon fill="#fd8bae" points="1154.24 1768.94 1235.29 1832.6 1328.61 1707.33 1239.5 1644.86 1154.24 1768.94" class="coloreb8b76 svgShape"/><path fill="#051c4f" d="M1071.68,1813.55s33.7-40.39,50.4-43.41a112.42,112.42,0,0,1,32-.83l81.13,63.75s12.44,33.37,19.26,37.17c4.71,2.62,41.87,6.7,64.45,9a19.26,19.26,0,0,1,17.33,19.19l0,30.29-147.48,5.8A45.05,45.05,0,0,1,1151.3,1917Z" class="color053b4f svgShape"/><path fill="#f0608c" d="M1338.5,1944.63l-156.74-.11a39.15,39.15,0,0,1-30.92-15.32l-87.38-114.66a9.11,9.11,0,0,1,14.49-11l87.38,114.66a20.81,20.81,0,0,0,16.44,8.15l156.75.11a9.11,9.11,0,1,1,0,18.21Z" class="colorf0a860 svgShape"/><polygon fill="#fff" points="1154.09 1769.31 1235.22 1833.06 1275.07 1778.61 1190.42 1716.15 1154.09 1769.31" class="colorffffff svgShape"/><path fill="#fff" d="M1200,1857.84a4.08,4.08,0,0,0,4.11-1.67c6-8.62,17.13-15.15,24.26-14.26,2.85.34,4.71,1.89,5.83,4.84a4.09,4.09,0,1,0,7.64-2.9c-2.19-5.76-6.6-9.34-12.46-10-11.29-1.4-25.11,7.89-32,17.69a4.08,4.08,0,0,0,1,5.69A4,4,0,0,0,1200,1857.84Z" class="colorffffff svgShape"/><path fill="#fff" d="M1217.78,1873.69a4.09,4.09,0,0,0,4.11-1.68c6-8.61,17.13-15.14,24.25-14.26,2.85.35,4.71,1.89,5.83,4.84a4.09,4.09,0,0,0,7.64-2.9c-2.19-5.75-6.61-9.34-12.46-10-11.29-1.4-25.11,7.9-32,17.69a4.09,4.09,0,0,0,1,5.69A4.22,4.22,0,0,0,1217.78,1873.69Z" class="colorffffff svgShape"/><path fill="#fff" d="M1244.35,1887a4.08,4.08,0,0,0,4.11-1.67c6-8.62,17.13-15.15,24.26-14.27,2.84.35,4.7,1.89,5.83,4.85a4.08,4.08,0,0,0,7.63-2.91c-2.19-5.75-6.61-9.32-12.46-10-11.28-1.4-25.11,7.9-32,17.7a4.09,4.09,0,0,0,1,5.69A4,4,0,0,0,1244.35,1887Z" class="colorffffff svgShape"/><polygon fill="#fd8bae" points="1502.15 1683.18 1552.63 1829.89 1656.72 1833.86 1622.51 1678.81 1502.15 1683.18" class="coloreb8b76 svgShape"/><polygon fill="#fff" points="1644.73 1776.89 1533.29 1781.27 1555.53 1843.69 1662.51 1848.22 1644.73 1776.89" class="colorffffff svgShape"/><path fill="#051c4f" d="M1812.43,1924.37s2-26.26-11.75-40-54-15.62-87.3-30.36-44.13-26.47-48.55-31.38-10.79-3.65-18.15,2.23-100-3.46-101.54-4.68c-10.41-8.43-23.57,31.63-24.57,50.27s0,53.72,0,53.72Z" class="color053b4f svgShape"/><path fill="#f0608c" d="M1508,1940.81l307.1.22a7.88,7.88,0,0,0,7.86-7.85v-3.43a7.88,7.88,0,0,0-7.84-7.86l-307.11-.21a7.87,7.87,0,0,0-7.85,7.84V1933A7.85,7.85,0,0,0,1508,1940.81Z" class="colorf0a860 svgShape"/><path fill="#fff" d="M1657.81,1860.39a3.79,3.79,0,0,0,3.47-2.24c4-8.91,13-16.8,19.71-17.22,2.66-.17,4.63.92,6.16,3.42a3.8,3.8,0,1,0,6.48-4,13.83,13.83,0,0,0-13.12-7c-10.56.67-21.59,11.55-26.15,21.68a3.8,3.8,0,0,0,1.9,5A3.89,3.89,0,0,0,1657.81,1860.39Z" class="colorffffff svgShape"/><path fill="#fff" d="M1676.8,1871.8a3.81,3.81,0,0,0,3.47-2.24c4-8.91,13-16.8,19.7-17.22,2.66-.17,4.63.92,6.16,3.42a3.8,3.8,0,0,0,6.48-4,13.82,13.82,0,0,0-13.12-7c-10.55.67-21.58,11.55-26.15,21.68a3.8,3.8,0,0,0,3.46,5.36Z" class="colorffffff svgShape"/><path fill="#fff" d="M1703.38,1879.42a3.81,3.81,0,0,0,3.47-2.24c4-8.92,13-16.8,19.71-17.22,2.65-.18,4.62.91,6.16,3.42a3.8,3.8,0,0,0,6.48-4,13.88,13.88,0,0,0-13.12-7c-10.56.67-21.59,11.55-26.15,21.69a3.78,3.78,0,0,0,1.9,5A3.87,3.87,0,0,0,1703.38,1879.42Z" class="colorffffff svgShape"/><path fill="#ef316b" d="M829.59,842.82h242.63a103.94,103.94,0,0,1,90.55,52.92l112.35,199.49h220.5v110.25L1162,1237.4,708.4,1204h0a96,96,0,0,1-21.72-91.81l59.75-206.86A86.57,86.57,0,0,1,829.59,842.82Z" class="coloref7531 svgShape"/><polygon fill="#051c4f" points="1340.4 1406 1204.87 1665.98 1325.21 1745.74 1491.01 1542.75 1474.72 1406 1340.4 1406" class="color053b4f svgShape"/><path fill="#0e2a68" d="M842,1226.76,783.62,1375l93.06,132,536.22-66.42,90.15,298.17L1645.63,1721l-2.87-321a192.46,192.46,0,0,0-68-145.12h0a192.46,192.46,0,0,0-144.45-44.58L1126,1242.17l-25.82-48.59Z" class="color0e5568 svgShape"/><polygon fill="#d33364" points="854.5 1195 861.69 1042.51 909.56 1195 854.5 1195" class="colord36833 svgShape"/><polygon fill="#d33364" points="1150.37 1192.6 1113.62 1000.94 1243.21 1229.63 1161.97 1237.4 1150.37 1192.6" class="colord36833 svgShape"/><rect width="665.36" height="450.67" x="576.88" y="1193.88" fill="#3c61b2" class="color3ca9b2 svgShape" rx="54.16"/><rect width="665.36" height="450.67" x="509.18" y="1193.88" fill="#426ac1" class="color42bec1 svgShape" rx="54.16"/><polygon fill="#fff" points="874.75 844 1033.86 844 1033.86 828.31 881.8 808.6 874.75 844" class="colorffffff svgShape"/><path fill="#b77489" d="M409.86,1610.88v-52.22s-65.62-124.76-65.62-128.38,4.54-87.77,4.54-87.77l101.31,195.84-21.23,20.31V1608Z" class="colora4b774 svgShape"/><polygon fill="#9d6b7a" points="442.72 1231.3 484.22 1388.21 479.34 1521.79 467.23 1544.09 470.28 1603.74 451.86 1601.58 451.86 1547.05 380.96 1425.2 409.78 1318.82 442.72 1231.3" class="color919d6b svgShape"/><polygon fill="#b77489" points="497.86 1601 497.86 1561.56 574.65 1476.7 568.34 1293.19 468.86 1403.44 468.86 1529.64 484.32 1560.97 484.69 1601 497.86 1601" class="colora4b774 svgShape"/><circle cx="404.4" cy="1617.7" r="13.67" fill="#b35270" class="colorb36652 svgShape"/><circle cx="511.29" cy="1608.25" r="13.67" fill="#b35270" class="colorb36652 svgShape"/><circle cx="525.71" cy="1617.7" r="13.67" fill="#b35270" class="colorb36652 svgShape"/><circle cx="507.81" cy="1620.18" r="13.67" fill="#b35270" class="colorb36652 svgShape"/><circle cx="430.26" cy="1610.74" r="20.63" fill="#b35270" class="colorb36652 svgShape" transform="rotate(-42.64 430.14 1610.577)"/><circle cx="490.41" cy="1603.78" r="20.63" fill="#b35270" class="colorb36652 svgShape" transform="rotate(-77.26 490.358 1603.743)"/><circle cx="461.78" cy="1601.58" r="27.8" fill="#b35270" class="colorb36652 svgShape"/><circle cx="404.4" cy="1631.12" r="13.67" fill="#9b4660" class="color9b5446 svgShape"/><circle cx="511.29" cy="1621.67" r="13.67" fill="#9b4660" class="color9b5446 svgShape"/><circle cx="525.71" cy="1631.12" r="13.67" fill="#9b4660" class="color9b5446 svgShape"/><circle cx="507.81" cy="1633.61" r="13.67" fill="#9b4660" class="color9b5446 svgShape"/><circle cx="430.26" cy="1624.16" r="20.63" fill="#9b4660" class="color9b5446 svgShape"/><circle cx="490.41" cy="1617.2" r="20.63" fill="#9b4660" class="color9b5446 svgShape" transform="rotate(-42.2 490.5 1617.317)"/><circle cx="461.78" cy="1615.01" r="27.8" fill="#9b4660" class="color9b5446 svgShape"/><path fill="#f0608c" d="M549.86,1738.54c0,113.76-37,206-83,206s-83-92.23-83-206V1621h166Z" class="colorf0a860 svgShape"/><circle cx="1500.44" cy="337.4" r="17.78" fill="#3c61b2" class="color3ca9b2 svgShape"/><circle cx="1562.82" cy="337.4" r="17.78" fill="#3c61b2" class="color3ca9b2 svgShape"/><circle cx="1625.2" cy="338.37" r="17.78" fill="#3c61b2" class="color3ca9b2 svgShape"/><circle cx="1744.15" cy="653.64" r="17.78" fill="#8aa0d1" class="color8acbd1 svgShape" transform="rotate(-76.72 1744.088 653.663)"/><circle cx="1806.53" cy="653.64" r="17.78" fill="#8aa0d1" class="color8acbd1 svgShape" transform="rotate(-45 1806.536 653.638)"/><circle cx="1868.91" cy="654.61" r="17.78" fill="#8aa0d1" class="color8acbd1 svgShape" transform="rotate(-76.72 1868.843 654.626)"/><circle cx="1611.33" cy="829.64" r="24.21" fill="#3c61b2" class="color3ca9b2 svgShape"/><circle cx="1696.28" cy="829.64" r="24.21" fill="#3c61b2" class="color3ca9b2 svgShape"/><circle cx="1781.24" cy="830.95" r="24.21" fill="#3c61b2" class="color3ca9b2 svgShape"/><path fill="#051c4f" d="M1688.73,1217.88l1.6.4a9.56,9.56,0,0,0,11.55-6.93l65.59-262.25a9.55,9.55,0,0,0-6.93-11.55l-1.59-.4a9.56,9.56,0,0,0-11.55,6.93l-65.6,262.25A9.56,9.56,0,0,0,1688.73,1217.88Z" class="color053b4f svgShape"/><path fill="#051c4f" d="M1701.67,1209.17v-1.64a9.54,9.54,0,0,0-9.52-9.53l-306.73-.22a9.55,9.55,0,0,0-9.53,9.52v1.64a9.57,9.57,0,0,0,9.52,9.54l306.73.21A9.55,9.55,0,0,0,1701.67,1209.17Z" class="color053b4f svgShape"/><rect width="31.36" height="7.84" x="1646.48" y="1205.01" fill="#3c61b2" class="color3ca9b2 svgShape" rx="3.61" transform="rotate(-179.96 1662.157 1208.94)"/><rect width="31.36" height="7.84" x="1609.48" y="1204.99" fill="#3c61b2" class="color3ca9b2 svgShape" rx="3.61" transform="rotate(-179.96 1625.157 1208.913)"/></svg>