<svg xmlns="http://www.w3.org/2000/svg" viewBox="0 0 512 512"><path fill="#a9c4ff" fill-rule="evenodd" d="M465.839,408.87c-7.712,23.543-8.821,46.388-.746,68.444H89.597c-18.87,0-34.222-15.352-34.222-34.222s15.352-34.222,34.222-34.222h376.243ZM422.403,364.01c18.87,0,34.222-15.352,34.222-34.222s-15.352-34.222-34.222-34.222H46.161c7.465,22.815,7.977,45.629,1.536,68.444h374.707ZM471.638,82.69c7.324-2.131,7.133-12.573-.264-14.435L248.936,12.256,26.645,63.893c-7.432,1.726-7.812,12.167-.525,14.429l222.816,69.175,222.702-64.807ZM452.366,214.763c-7.956,0-14.062-7.053-12.925-14.927l2.54-17.575h-51.782c-29.762,16.5-82.828,40.313-141.264,40.313-62.453,0-114.283-23.814-142.709-40.313h-16.63c-18.87,0-34.222,15.352-34.222,34.222s15.352,34.222,34.222,34.222h374.805c-3.812-11.373-5.324-23.381-4.833-35.943h-7.203ZM465.235,129.269c-10.067,0-18.229,8.161-18.229,18.228s8.161,18.228,18.229,18.228,18.228-8.161,18.228-18.228-8.161-18.228-18.228-18.228Z" class="colorcbf3f9 svgShape"/><path fill="#6696ff" d="M497.931,198.177l-7.47-51.174c0-.046.003-.09.003-.136,0-11.482-7.713-21.19-18.229-24.232v-33.458l1.358-.395c6.36-1.85,10.553-7.543,10.433-14.167-.121-6.623-4.519-12.16-10.942-13.777L260.846,7.406c-7.746-1.95-15.955-2.026-23.739-.218L25.062,56.446c-6.454,1.5-10.953,6.956-11.193,13.578-.241,6.622,3.849,12.39,10.177,14.354l51.616,16.025v52.619c0,.241.017.478.022.718-28.803,6.379-49.737,31.92-49.737,62.115,0,20.063,9.34,37.977,23.89,49.652h-12.812c-2.414,0-4.657,1.244-5.937,3.291s-1.413,4.608-.355,6.778c19.802,40.606,19.923,75.444.368,106.506-1.357,2.157-1.437,4.882-.204,7.113,1.231,2.231,3.579,3.617,6.128,3.617h12.812c-14.55,11.675-23.89,29.589-23.89,49.652,0,35.098,28.554,63.651,63.651,63.651h385.38c2.549,0,4.896-1.385,6.128-3.617,1.232-2.231,1.153-4.956-.204-7.113-19.555-31.061-19.435-65.899.368-106.506,1.058-2.169.924-4.731-.355-6.778s-3.522-3.291-5.937-3.291h-12.812c14.55-11.675,23.89-29.589,23.89-49.652s-9.34-37.977-23.89-49.652h12.812c2.549,0,4.896-1.385,6.128-3.617,1.232-2.231,1.154-4.956-.204-7.112-9.3-14.774-14.143-30.78-14.458-47.644h11.638c5.83,0,11.361-2.529,15.174-6.939,3.813-4.41,5.517-10.248,4.675-16.017ZM476.464,146.867c0,6.191-5.037,11.229-11.229,11.229s-11.228-5.037-11.228-11.229,5.037-11.228,11.228-11.228,11.229,5.037,11.229,11.228ZM458.236,122.635c-10.328,2.989-17.944,12.41-18.212,23.624l-.859,5.943h-16.953v-48.468l36.024-10.483v29.384ZM435.922,174.633h-22.487c2.333-2.495,4.256-5.346,5.702-8.43h18.004l-1.219,8.43ZM27.859,70.532c.014-.367.126-.393.371-.45L240.275,20.825c2.702-.627,5.475-.941,8.248-.941,2.998,0,5.997.367,8.905,1.099l212.238,53.431c.244.062.355.09.362.457.007.366-.104.398-.345.469h0l-209.771,61.044c-7.139,2.077-14.664,2.009-21.764-.194L28.196,71.008c-.24-.075-.35-.109-.337-.475ZM233.998,149.559c5.014,1.557,10.182,2.335,15.353,2.335,4.864,0,9.731-.689,14.474-2.069l144.387-42.017v44.712c0,6.314-3.325,12.282-8.678,15.572-22.921,14.087-83.478,46.854-150.597,46.854-71.556,0-129.377-32.557-150.916-46.554-5.234-3.402-8.359-9.148-8.359-15.37v-48.273l144.337,44.811ZM55.492,301.936h366.912c15.01,0,27.222,12.212,27.222,27.222s-12.212,27.222-27.222,27.222H56.91c3.957-17.158,3.483-35.34-1.418-54.444ZM455.092,469.684H89.598c-15.01,0-27.222-12.211-27.222-27.222s12.212-27.223,27.222-27.223h366.912c-4.902,19.104-5.376,37.286-1.418,54.444ZM464.116,392.81c-1.187,2.829-2.272,5.637-3.279,8.43H89.598c-22.729,0-41.222,18.493-41.222,41.223s18.492,41.222,41.222,41.222h369.788c1.098,2.841,2.325,5.651,3.682,8.43H89.598c-27.378,0-49.651-22.273-49.651-49.651s22.273-49.652,49.651-49.652h374.519ZM472.056,329.158c0,27.378-22.273,49.652-49.651,49.652H48.935c1.357-2.779,2.584-5.589,3.682-8.43h369.788c22.729,0,41.222-18.492,41.222-41.222s-18.492-41.222-41.222-41.222H51.165c-1.006-2.792-2.092-5.601-3.279-8.43h374.519c27.378,0,49.651,22.274,49.651,49.652ZM89.598,265.507c-27.378,0-49.651-22.274-49.651-49.652,0-23.652,16.459-43.645,39.063-48.516,1.374,2.778,3.137,5.358,5.266,7.649-20.223,2.62-35.899,19.942-35.899,40.867,0,22.729,18.492,41.222,41.222,41.222h369.802c1.098,2.842,2.317,5.654,3.672,8.43H89.598ZM455.1,243.076H89.598c-15.01,0-27.222-12.211-27.222-27.222s12.212-27.222,27.222-27.222h14.789c28.772,16.403,81.524,40.313,144.55,40.313,59.054,0,112.944-23.876,143.042-40.313h41.919l-1.384,9.573c-.833,5.765.876,11.597,4.688,16,3.812,4.403,9.34,6.928,15.164,6.928h.067c.119,7.472,1.011,14.794,2.666,21.942ZM482.665,205.038c-.677.783-2.172,2.096-4.583,2.096h-25.715c-2.409,0-3.903-1.311-4.58-2.093s-1.761-2.449-1.417-4.833l4.695-32.48c4.042,2.755,8.921,4.368,14.17,4.368,5.222,0,10.079-1.595,14.108-4.323l4.733,32.427c.349,2.386-.735,4.055-1.412,4.838Z" class="color66ccff svgShape"/></svg>