<svg xmlns="http://www.w3.org/2000/svg" viewBox="0 0 512 512"><path fill="#a9c4ff" d="M177.532 309.647c0 32.292 35.137 58.487 78.482 58.487 8.107 0 15.925-.92 23.282-2.606l27.683 19.543c2.592 1.829 6.057-.565 5.262-3.636l-6.818-26.347c17.747-10.73 29.073-27.098 29.073-45.441 0-32.309-35.137-58.487-78.482-58.487s-78.482 26.178-78.482 58.487z" class="color65c5ef svgShape"/><path d="M322.031 341.279c4.341-7.265 6.749-15.298 6.749-23.754 0-32.303-35.135-58.492-78.488-58.492-27.684 0-52.034 10.693-65.996 26.838 12.215-20.459 39.727-34.712 71.712-34.712 43.353 0 78.488 26.176 78.488 58.492.001 11.645-4.564 22.51-12.465 31.628z" class="color000000 svgShape" opacity=".1"/><path fill="#4f84f8" d="M343.183 187.933c-58.121 32.053-116.242 32.052-174.364 0 0-40.792 39.014-73.906 87.202-73.906 48.149-.001 87.162 33.114 87.162 73.906z" class="colorf8664f svgShape"/><path fill="#0954f9" d="M293.492 46.765c0 20.676-16.767 49.708-37.49 49.708-20.723 0-37.49-29.032-37.49-49.708 0-20.723 16.767-37.49 37.49-37.49 20.723-.001 37.49 16.766 37.49 37.49z" class="colorf9e109 svgShape"/><path fill="#eeeff0" d="M494.065 457.889c-58.121 32.053-116.242 32.052-174.364 0 0-40.792 39.014-73.906 87.202-73.906 48.149-.001 87.162 33.113 87.162 73.906z" class="coloreef0ee svgShape"/><path fill="#0954f9" d="M444.375 316.721c0 20.676-16.767 49.708-37.49 49.708-20.723 0-37.49-29.031-37.49-49.708 0-20.723 16.767-37.49 37.49-37.49 20.723-.001 37.49 16.766 37.49 37.49z" class="colorf9e109 svgShape"/><path fill="#1c56d5" d="M192.299 457.889c-58.121 32.053-116.242 32.052-174.364 0 0-40.792 39.014-73.906 87.202-73.906 48.149-.001 87.162 33.113 87.162 73.906z" class="colora1d51c svgShape"/><path fill="#0954f9" d="M142.608 316.721c0 20.676-16.767 49.708-37.49 49.708-20.723 0-37.49-29.031-37.49-49.708 0-20.723 16.767-37.49 37.49-37.49 20.723-.001 37.49 16.766 37.49 37.49z" class="colorf9e109 svgShape"/><path d="M478.838 481.479a124.456 124.456 0 0 1-8.265 4.107 3.251 3.251 0 0 0 2.669 5.929 130.325 130.325 0 0 0 8.694-4.321 3.25 3.25 0 0 0 1.308-4.407 3.247 3.247 0 0 0-4.406-1.308zm-24.407 10.407a152.171 152.171 0 0 1-47.548 7.588h-.39a3.25 3.25 0 1 0 0 6.502h.39c16.901 0 33.581-2.662 49.576-7.913a3.25 3.25 0 1 0-2.028-6.177zm-140.977-21.67c-37.145 12.853-77.964 12.829-114.875.001a3.252 3.252 0 0 0-2.134 6.142c38.208 13.279 80.531 13.363 119.134.001a3.25 3.25 0 0 0 2.009-4.135 3.25 3.25 0 0 0-4.134-2.009zM82.527 262.143a3.25 3.25 0 0 0 3.971-2.318c9.83-37.413 32.295-71.034 63.255-94.667a3.251 3.251 0 0 0-3.945-5.169c-32.106 24.509-55.403 59.377-65.6 98.183a3.254 3.254 0 0 0 2.319 3.971zm342.977-2.318a3.251 3.251 0 1 0 6.289-1.653c-10.198-38.81-33.504-73.69-65.626-98.211a3.251 3.251 0 0 0-3.945 5.169c30.977 23.647 53.451 57.277 63.282 94.695zm-87.755 49.823c0-34.042-36.665-61.739-81.734-61.739s-81.734 27.696-81.734 61.739 36.665 61.739 81.734 61.739c7.648 0 15.236-.798 22.582-2.372l26.509 18.714c5.03 3.557 11.845-1.08 10.283-7.107l-6.22-24.039c18.199-11.749 28.58-28.74 28.58-46.935zm-34.008 42.658a3.25 3.25 0 0 0-1.464 3.597l6.819 26.346-27.924-19.375a3.245 3.245 0 0 0-2.601-.513c-7.31 1.674-14.9 2.523-22.555 2.523-41.482 0-75.231-24.779-75.231-55.236 0-30.457 33.749-55.236 75.231-55.236s75.231 24.779 75.231 55.236c0 16.541-10.026 32.089-27.506 42.658z" class="color000000 svgShape"/><path d="M209.569 289.583h15.124a3.25 3.25 0 1 0 0-6.502h-15.124a3.25 3.25 0 1 0 0 6.502zm92.892-6.503H237.57a3.25 3.25 0 1 0 0 6.502h64.891a3.25 3.25 0 1 0 0-6.502zm0 23.3h-92.892a3.25 3.25 0 1 0 0 6.502h92.892a3.25 3.25 0 1 0 0-6.502zm-30.351 23.299h-62.541a3.25 3.25 0 1 0 0 6.502h62.541a3.25 3.25 0 1 0 0-6.502zm30.351 0h-12.137a3.25 3.25 0 1 0 0 6.502h12.137a3.25 3.25 0 1 0 0-6.502zM167.25 190.78c58.889 32.475 118.61 32.479 177.504 0a3.25 3.25 0 0 0 1.681-2.847c0-42.545-40.559-77.158-90.413-77.158-49.876 0-90.454 34.613-90.454 77.158a3.25 3.25 0 0 0 1.682 2.847zm88.772-73.503c45.509 0 82.672 30.664 83.88 68.743-55.677 30.079-112.121 30.079-167.801 0 1.209-38.078 38.39-68.743 83.921-68.743zm-.019-17.554c23.634 0 40.742-31.633 40.742-52.959 0-22.464-18.277-40.74-40.742-40.74s-40.742 18.277-40.742 40.74c0 21.326 17.108 52.959 40.742 52.959zm0-87.197c18.88 0 34.239 15.359 34.239 34.238 0 18.345-15.339 46.457-34.239 46.457s-34.239-28.112-34.239-46.457c-.001-18.878 15.359-34.238 34.239-34.238zm150.902 368.205c-49.876 0-90.454 34.613-90.454 77.158a3.25 3.25 0 0 0 1.681 2.847c58.887 32.473 118.609 32.48 177.502 0a3.25 3.25 0 0 0 1.681-2.847c.001-42.545-40.558-77.158-90.41-77.158zm-83.921 75.245c1.209-38.079 38.39-68.743 83.921-68.743 45.508 0 82.671 30.664 83.879 68.743-55.678 30.079-112.121 30.079-167.8 0zm43.16-139.256c0 21.326 17.107 52.959 40.74 52.959s40.742-31.633 40.742-52.959c0-22.465-18.277-40.742-40.742-40.742-22.464 0-40.74 18.277-40.74 40.742zm74.98 0c0 18.345-15.339 46.457-34.239 46.457-18.899 0-34.238-28.112-34.238-46.457 0-18.88 15.359-34.239 34.238-34.239 18.879 0 34.239 15.359 34.239 34.239zM195.55 457.889c0-42.545-40.559-77.158-90.413-77.158-49.876 0-90.454 34.613-90.454 77.158a3.25 3.25 0 0 0 1.681 2.847c29.446 16.238 59.1 24.357 88.753 24.357s59.305-8.119 88.75-24.357a3.25 3.25 0 0 0 1.683-2.847zm-174.333-1.913c1.209-38.079 38.39-68.743 83.921-68.743 45.509 0 82.672 30.664 83.88 68.743-55.678 30.079-112.122 30.079-167.801 0zm83.901-86.297c23.634 0 40.74-31.633 40.74-52.959 0-22.465-18.277-40.742-40.74-40.742-22.465 0-40.742 18.277-40.742 40.742.001 21.326 17.109 52.959 40.742 52.959zm0-87.198c18.879 0 34.238 15.359 34.238 34.239 0 18.345-15.339 46.457-34.238 46.457-18.9 0-34.239-28.112-34.239-46.457 0-18.88 15.359-34.239 34.239-34.239z" class="color000000 svgShape"/></svg>