<svg xmlns="http://www.w3.org/2000/svg" viewBox="0 0 135.467 135.467"><g class="color000000 svgShape" transform="translate(0 -161.533)"><path style="line-height:normal;font-variant-ligatures:normal;font-variant-position:normal;font-variant-caps:normal;font-variant-numeric:normal;font-variant-alternates:normal;font-variant-east-asian:normal;font-feature-settings:normal;font-variation-settings:normal;text-indent:0;text-align:start;text-decoration-line:none;text-decoration-style:solid;text-decoration-color:#000;text-transform:none;text-orientation:mixed;white-space:normal;shape-padding:0;shape-margin:0;inline-size:0;isolation:auto;mix-blend-mode:normal;solid-color:#000;solid-opacity:1" fill="#5c89ea" d="m 67.7097,166.40115 a 1.9629598,1.9629598 0 0 0 -0.9146,0.23725 c -9.2362,4.9966 -20.2979,8.96034 -33.5654,11.66539 a 1.9629598,1.9629598 0 0 0 -1.5721,1.92341 c 0,16.65988 6.4904,30.7764 14.1231,40.74102 3.8164,4.9823 7.9187,8.93526 11.7143,11.68712 3.7955,2.75185 7.1803,4.40463 10.2346,4.40463 2.763,0 5.8622,-1.51896 9.579,-4.1058 3.7168,-2.58683 7.8693,-6.35182 11.7849,-11.21261 7.8312,-9.72157 14.7081,-23.87404 14.7081,-41.51436 a 1.9629598,1.9629598 0 0 0 -1.7007,-1.94513 C 88.238,176.41455 78.6825,171.50501 68.5881,166.59857 a 1.9629598,1.9629598 0 0 0 -0.8784,-0.19742 z" class="color5c7aea svgShape" color="#000" enable-background="accumulate" font-family="sans-serif" font-weight="400" overflow="visible"/><path style="line-height:normal;font-variant-ligatures:normal;font-variant-position:normal;font-variant-caps:normal;font-variant-numeric:normal;font-variant-alternates:normal;font-variant-east-asian:normal;font-feature-settings:normal;font-variation-settings:normal;text-indent:0;text-align:start;text-decoration-line:none;text-decoration-style:solid;text-decoration-color:#000;text-transform:none;text-orientation:mixed;white-space:normal;shape-padding:0;shape-margin:0;inline-size:0;isolation:auto;mix-blend-mode:normal;solid-color:#000;solid-opacity:1" fill="#143e9b" d="m 13.4093,239.84189 c -3.1882,0 -5.8203,2.63223 -5.8203,5.82031 v 43.41993 c 0,3.18809 2.6321,5.82031 5.8203,5.82031 h 7.4082 c 3.2418,0 5.8222,-2.71035 5.8222,-5.89844 v -43.3418 c 0,-3.18808 -2.6341,-5.82031 -5.8222,-5.82031 z m 0,4.23242 h 7.4082 c 0.916,0 1.5879,0.67178 1.5879,1.58789 v 43.3418 c 0,0.91613 -0.7256,1.66602 -1.5879,1.66602 h -7.4082 c -0.9161,0 -1.586,-0.67176 -1.586,-1.58789 V 245.6622 c 0,-0.91611 0.6699,-1.58789 1.586,-1.58789 z" class="color14279b svgShape" color="#000" enable-background="accumulate" font-family="sans-serif" font-weight="400" overflow="visible"/><path style="line-height:normal;font-variant-ligatures:normal;font-variant-position:normal;font-variant-caps:normal;font-variant-numeric:normal;font-variant-alternates:normal;font-variant-east-asian:normal;font-feature-settings:normal;font-variation-settings:normal;text-indent:0;text-align:start;text-decoration-line:none;text-decoration-style:solid;text-decoration-color:#000;text-transform:none;text-orientation:mixed;white-space:normal;shape-padding:0;shape-margin:0;inline-size:0;isolation:auto;mix-blend-mode:normal;solid-color:#000;solid-opacity:1" fill="#143e9b" d="m 38.9522,241.5372 c -4.0723,0.0153 -8.7883,1.19793 -15.0937,4.09571 -1.0629,0.48828 -1.5283,1.7461 -1.0391,2.80859 0.4883,1.0618 1.7447,1.52695 2.8067,1.03906 5.9743,-2.74565 10.0798,-3.6967 13.3437,-3.70898 3.2639,-0.0123 5.8172,0.88282 8.9004,2.23828 6.1665,2.71093 14.1239,7.16016 30.6484,7.16016 3.8291,0 5.7741,0.93291 6.4707,1.67773 0.6967,0.74482 0.7504,1.45515 0.1622,2.72852 -1.1765,2.54672 -5.6986,5.7438 -8.363,5.44416 -0.057,-0.006 -28.3382,-1.12971 -28.3382,-1.12971 -1.1681,-0.0376 -2.1457,0.87874 -2.1836,2.04688 -0.038,1.16815 0.8788,2.14567 2.0469,2.18359 l 25.6738,0.83008 -0.1719,-0.0117 c 6.9995,0.79749 13.0126,-2.89686 15.1797,-7.58789 1.0835,-2.34552 1.0088,-5.34058 -0.9141,-7.39649 -1.9228,-2.0559 -5.0889,-3.01953 -9.5625,-3.01953 -15.7916,0 -22.4423,-3.94191 -28.9453,-6.80078 -3.2515,-1.42944 -6.5488,-2.61298 -10.6211,-2.59766 z" class="color14279b svgShape" color="#000" enable-background="accumulate" font-family="sans-serif" font-weight="400" overflow="visible"/><path style="line-height:normal;font-variant-ligatures:normal;font-variant-position:normal;font-variant-caps:normal;font-variant-numeric:normal;font-variant-alternates:normal;font-variant-east-asian:normal;font-feature-settings:normal;font-variation-settings:normal;text-indent:0;text-align:start;text-decoration-line:none;text-decoration-style:solid;text-decoration-color:#000;text-transform:none;text-orientation:mixed;white-space:normal;shape-padding:0;shape-margin:0;inline-size:0;isolation:auto;mix-blend-mode:normal;solid-color:#000;solid-opacity:1" fill="#143e9b" d="m 116.9425,249.01767 c -1.3911,0.0208 -2.7997,0.30559 -4.1485,0.87696 l -30.33,12.84765 c -1.0767,0.45609 -1.5796,1.69885 -1.1231,2.77539 0.4561,1.07671 1.6989,1.57958 2.7754,1.12305 l 30.3301,-12.84766 c 3.4125,-1.4456 7.144,-0.0885 8.6445,3.26758 1.5,3.35483 -0.01,7.01488 -3.3574,8.74219 -1.0395,0.53544 -1.4479,1.81227 -0.9121,2.85156 0.5354,1.03942 1.8122,1.44783 2.8515,0.91211 5.1537,-2.65559 7.7053,-8.81302 5.2813,-14.23437 -1.8175,-4.06507 -5.8385,-6.37699 -10.0117,-6.31446 z M 98.9757,277.129 c -0.3346,-0.004 -0.6652,0.0719 -0.9649,0.2207 l -20.7363,10.33594 c -6.9847,2.23631 -13.9367,1.23193 -20.3906,-0.59179 -6.4823,-1.83174 -12.2603,-4.51346 -17.0426,-5.14898 -4.7824,-0.63552 -7.738,-0.54247 -10.1664,0.22319 -2.4284,0.76567 -4.0464,2.10559 -5.9688,3.49805 -0.9462,0.68569 -1.1578,2.00848 -0.4726,2.95508 0.6857,0.94628 2.0085,1.15786 2.9551,0.47266 2.0193,-1.46272 3.1829,-2.39149 4.7597,-2.88868 1.5769,-0.49718 3.8497,-0.6612 8.1192,-0.0938 3.8371,0.51004 9.8122,3.11992 16.666,5.05664 6.8538,1.93673 14.7873,3.16809 22.9375,0.5254 0.1,-0.0325 0.1971,-0.0723 0.291,-0.11915 l 20.9375,-10.43554 c 1.0455,-0.52182 1.4703,-1.79208 0.9492,-2.83789 -0.3548,-0.71133 -1.0782,-1.16393 -1.873,-1.17188 z" class="color14279b svgShape" color="#000" enable-background="accumulate" font-family="sans-serif" font-weight="400" overflow="visible"/><path fill="#558afe" d="M114.2243 273.72137a2.0838115 2.0838115 0 01-2.7927-.94075 2.0838115 2.0838115 0 01.9407-2.79276 2.0838115 2.0838115 0 012.7928.94074 2.0838115 2.0838115 0 01-.9408 2.79277zM107.2256 277.19311a2.0838115 2.0838115 0 01-2.7927-.94075 2.0838115 2.0838115 0 01.9407-2.79276 2.0838115 2.0838115 0 012.7928.94075 2.0838115 2.0838115 0 01-.9408 2.79276z" class="colorfe5f55 svgShape"/><path style="line-height:normal;font-variant-ligatures:normal;font-variant-position:normal;font-variant-caps:normal;font-variant-numeric:normal;font-variant-alternates:normal;font-variant-east-asian:normal;font-feature-settings:normal;font-variation-settings:normal;text-indent:0;text-align:start;text-decoration-line:none;text-decoration-style:solid;text-decoration-color:#000;text-transform:none;text-orientation:mixed;white-space:normal;shape-padding:0;shape-margin:0;inline-size:0;isolation:auto;mix-blend-mode:normal;solid-color:#000;solid-opacity:1" fill="#143e9b" d="m 67.7081,163.63096 a 2.1168766,2.1168766 0 0 0 -0.9863,0.25585 c -9.9604,5.38838 -21.8895,9.66292 -36.1973,12.58008 a 2.1168766,2.1168766 0 0 0 -1.6953,2.07422 c 0,17.96619 6.9993,33.1896 15.2305,43.93555 4.1156,5.37297 8.5396,9.63588 12.6328,12.60351 4.0931,2.96763 7.7433,4.75 11.0371,4.75 2.9796,0 6.3218,-1.63806 10.3301,-4.42773 4.0082,-2.78967 8.4863,-6.84987 12.7089,-12.0918 8.4453,-10.48385 15.8614,-25.74602 15.8614,-44.76953 a 2.1168766,2.1168766 0 0 0 -1.834,-2.09765 C 89.8461,174.42951 79.5413,169.13501 68.6554,163.84385 a 2.1168766,2.1168766 0 0 0 -0.9473,-0.21289 z m 0.027,4.46874 c 10.057,4.89963 20.415,9.91963 34.5782,12.15626 -0.4355,17.1088 -7.1547,30.85766 -14.8418,40.40039 -3.9736,4.93277 -8.1919,8.73935 -11.8301,11.27148 -3.6382,2.53213 -6.8936,3.66992 -7.9121,3.66992 -1.504,0 -4.8495,-1.26041 -8.5528,-3.94531 -3.7032,-2.6849 -7.8751,-6.68369 -11.7558,-11.75 -7.5027,-9.79495 -13.8582,-23.56734 -14.2774,-39.70703 13.4053,-2.87976 24.8545,-6.95767 34.5918,-12.09571 z" class="color14279b svgShape" color="#000" enable-background="accumulate" font-family="sans-serif" font-weight="400" overflow="visible"/><path style="line-height:normal;font-variant-ligatures:normal;font-variant-position:normal;font-variant-caps:normal;font-variant-numeric:normal;font-variant-alternates:normal;font-variant-east-asian:normal;font-feature-settings:normal;font-variation-settings:normal;text-indent:0;text-align:start;text-decoration-line:none;text-decoration-style:solid;text-decoration-color:#000;text-transform:none;text-orientation:mixed;white-space:normal;shape-padding:0;shape-margin:0;inline-size:0;isolation:auto;mix-blend-mode:normal;solid-color:#000;solid-opacity:1" fill="#a9c4ff" d="m 59.4073,189.03135 c -4.3637,0 -7.9433,3.57968 -7.9433,7.94335 v 16.64454 c 0,4.36368 3.5796,7.94336 7.9433,7.94336 h 16.6445 c 4.3637,0 7.9434,-3.57968 7.9434,-7.94336 V 196.9747 c 0,-4.36367 -3.5797,-7.94335 -7.9434,-7.94335 z m 0,4.23242 h 16.6445 c 2.0917,0 3.711,1.6193 3.711,3.71093 v 16.64454 c 0,2.09164 -1.6193,3.71093 -3.711,3.71093 H 59.4073 c -2.0916,0 -3.7109,-1.61929 -3.7109,-3.71093 V 196.9747 c 0,-2.09163 1.6193,-3.71093 3.7109,-3.71093 z" class="colorffffff svgShape" color="#000" enable-background="accumulate" font-family="sans-serif" font-weight="400" overflow="visible"/><path style="line-height:normal;font-variant-ligatures:normal;font-variant-position:normal;font-variant-caps:normal;font-variant-numeric:normal;font-variant-alternates:normal;font-variant-east-asian:normal;font-feature-settings:normal;font-variation-settings:normal;text-indent:0;text-align:start;text-decoration-line:none;text-decoration-style:solid;text-decoration-color:#000;text-transform:none;text-orientation:mixed;white-space:normal;shape-padding:0;shape-margin:0;inline-size:0;isolation:auto;mix-blend-mode:normal;solid-color:#000;solid-opacity:1" fill="#a9c4ff" d="M68.3722 175.52549c-5.0512 0-9.1914 4.1403-9.1914 9.1914v6.43164a2.1166649 2.1166649 0 002.1171 2.11524 2.1166649 2.1166649 0 002.1172-2.11524v-6.43164c0-2.76323 2.1938-4.95898 4.9571-4.95898 2.7631 0 4.9589 2.19575 4.9589 4.95898v6.43164a2.1166649 2.1166649 0 002.1153 2.11524 2.1166649 2.1166649 0 002.1172-2.11524v-6.43164c0-5.0511-4.1404-9.1914-9.1914-9.1914zM67.7296 197.39267c-4.3407 0-7.9043 3.5636-7.9043 7.9043 0 4.3407 3.5636 7.9043 7.9043 7.9043 4.3407 0 7.9043-3.5636 7.9043-7.9043 0-4.3407-3.5636-7.9043-7.9043-7.9043zm0 4.23243c2.0528 0 3.6719 1.61903 3.6719 3.67187 0 2.05284-1.6191 3.67188-3.6719 3.67188-2.0529 0-3.6719-1.61904-3.6719-3.67188 0-2.05284 1.619-3.67187 3.6719-3.67187z" class="colorffffff svgShape" color="#000" enable-background="accumulate" font-family="sans-serif" font-weight="400" overflow="visible"/></g></svg>