<svg xmlns="http://www.w3.org/2000/svg" viewBox="402.93 229.69 1188.36 1301.56"><path fill="#665754" d="M1011.585 1436.892c-.372-3.551-2.202-6.754-3.804-9.944-.913-1.818-1.765-3.696-2.249-5.68-.432-1.769-.228-3.523-.898-5.196-1.782-4.446-3.538-8.849-5.747-13.109a107.746 107.746 0 0 0-4.062-7.155c-.712-1.15-1.462-2.304-2.488-3.186-1.027-.881-2.383-1.468-3.724-1.285-1.519.207-2.772 1.369-3.49 2.723-.718 1.355-.987 2.895-1.241 4.406-.809 4.808-1.569 9.656-1.476 14.531.093 4.875 1.082 9.823 3.563 14.02 1.033 1.746 2.317 3.357 3.104 5.227.787 1.871 1.657 2.576.556 4.281-.874 1.354-2.883.656-3.247 2.226-.337 1.455.554 2.884 1.403 4.114 1.916 2.774 2.797 5.512 4.712 8.285.63.912 1.297 1.858 2.277 2.376 1.216.644 2.73.501 3.986-.061 1.256-.561 8.216-4.479 10.5-6.941 3.077-3.313 2.674-6.292 2.325-9.632z" class="color545466 svgShape"/><path fill="#c5cddd" d="m1295.165 1072.016-188.86-109.754c5.353-3.091 9.754-10.649 9.737-16.801l188.86 109.754c.017 6.151-4.384 13.71-9.737 16.801zM1304.902 1055.214l-188.86-109.753-.277-97.661 188.86 109.754z" class="colorc5d4dd svgShape"/><path fill="#cfd7e8" d="M1304.625 957.554 1115.765 847.8l6.126-3.536 188.86 109.753z" class="colorcfdee8 svgShape"/><path fill="#dce3f1" d="m1178.495 1139.375-188.86-109.754 116.67-67.359 188.86 109.754z" class="colordce8f1 svgShape"/><path fill="#cfd7e8" d="m1178.515 1146.414-188.86-109.753-.02-7.04 188.86 109.754z" class="colorcfdee8 svgShape"/><path fill="#cfd7e8" d="m1310.751 954.017.277 97.661c.028 10.022-7.068 22.311-15.843 27.377l-116.67 67.359-.02-7.039 116.67-67.359c5.353-3.091 9.754-10.649 9.737-16.801l-.277-97.66 6.126-3.538z" class="colorcfdee8 svgShape"/><path fill="#dce3f1" d="m911.319 272.506 24.74-14.377-1.175 448.743-24.74 14.378z" class="colordce8f1 svgShape"/><path fill="#cfd7e8" d="m1590.167 1079.124-.081 71.812c0 4.909-1.827 8.39-4.624 10.046l-30.143 17.489c2.854-1.655 4.567-5.137 4.624-10.045l.184-71.822 30.04-17.48z" class="colorcfdee8 svgShape"/><path fill="#dce3f1" d="m910.144 721.25 24.74-14.378 631.344 364.507-24.74 14.377z" class="colordce8f1 svgShape"/><path fill="#e7ecf7" d="m1542.663 637.013 24.741-14.378-1.175 448.744-24.741 14.377z" class="colore7f1f7 svgShape"/><path fill="#e7ecf7" d="m911.319 272.506 24.74-14.378 631.345 364.507-24.741 14.378z" class="colore7f1f7 svgShape"/><path fill="#cfd7e8" d="M1591.288 626.918c0-10.001-7.021-22.111-15.797-27.201L938.201 231.84c-4.212-2.459-8.248-2.811-11.057-1.054l-30.498 17.903c2.808-1.757 7.225-1.805 11.611.646l637.117 367.876c8.776 5.091 15.795 17.2 15.795 27.21l-1.042 452.182 30.04-17.479 1.121-452.206zM1210.35 920.701c9.218 5.322 16.628 18.155 16.598 28.749-.03 10.506-7.488 14.756-16.706 9.434-9.144-5.279-16.553-18.112-16.524-28.619.031-10.594 7.489-14.843 16.632-9.564z" class="colorcfdee8 svgShape"/><path fill="none" d="m911.319 272.506-1.175 448.744 631.344 364.506 1.175-448.743zM910.144 721.25l631.344 364.506L910.144 721.25z"/><path fill="#e7ecf7" d="M1541.488 1085.756 910.144 721.25l-18.614-10.747-.191 71.858c-.028 9.913 7.008 22.1 15.636 27.081l637.171 367.871c8.741 5.046 15.824 1.012 15.852-8.902l.129-71.808-18.639-10.847z" class="colore7f1f7 svgShape"/><path fill="#c5cddd" d="M1199.855 912.47c10.459 6.039 18.9 20.659 18.866 32.653-.034 12.018-8.531 16.859-18.989 10.821-10.438-6.026-18.878-20.646-18.844-32.664.033-11.994 8.529-16.836 18.967-10.81z" class="colorc5d4dd svgShape"/><path fill="#736461" d="m1541.488 1085.756 18.638 10.847 1.261-452.265c.028-9.913-7.009-22.1-15.75-27.146L908.466 249.321c-8.628-4.982-15.71-.947-15.738 8.966l-1.198 452.215 18.614 10.747 631.344 364.507z" class="color616173 svgShape"/><path fill="#a9c4ff" d="m1542.663 637.013-1.175 413.805-631.344-364.506 1.175-413.806z" class="color85cdfd svgShape"/><path fill="#fff" d="m1464.078 648.723-.95 334.823-475.813-274.711.949-334.823z" class="colorffffff svgShape"/><path fill="#2553b8" d="M1456.439 609.581c4.267 2.464 7.726 8.454 7.712 13.357l-.073 25.785-475.814-274.711.073-25.785c.014-4.904 3.495-6.887 7.762-4.423l460.34 265.777z" class="color255bb8 svgShape"/><path fill="#fff" d="M1397.086 584.824c4.087 2.36 7.392 8.084 7.379 12.809-.013 4.697-3.34 6.592-7.427 4.233-4.113-2.375-7.418-8.099-7.404-12.796.013-4.725 3.34-6.621 7.452-4.246zm23.366 13.49c4.113 2.375 7.418 8.099 7.404 12.824-.013 4.697-3.34 6.592-7.453 4.218-4.087-2.36-7.392-8.084-7.379-12.781.014-4.725 3.341-6.621 7.428-4.261zm23.391 13.505c4.087 2.36 7.418 8.099 7.404 12.824-.013 4.697-3.366 6.577-7.453 4.218-4.087-2.36-7.392-8.084-7.379-12.781.014-4.726 3.341-6.621 7.428-4.261z" class="colorffffff svgShape"/><path fill="#ff5b39" d="M1244.871 735.677c.247.143.499.318.763.538.461.357.778.742 1.175 1.227.317.385.699.587.968 1.035.65.851 5.743 7.085 26.511 21.672 2.479 1.742 4.252 5.327 3.974 8.021-.262 2.501-2.207 3.336-4.479 2.024a7.822 7.822 0 0 1-.493-.321c-6.26-4.383-11.662-8.435-16.237-12.137 7.115 17.408 28.647 71.368 34.772 100.791.644 3.135-.763 5.176-3.165 4.539a4.693 4.693 0 0 1-1.193-.488c-1.987-1.147-3.779-3.7-4.329-6.304-5.403-25.952-24.387-74.324-32.387-94.109-.127 5.488-.591 11.99-1.712 19.922-.325 2.392-2.254 3.144-4.447 1.878a6.214 6.214 0 0 1-.651-.431c-2.463-1.843-4.156-5.455-3.798-8.065 3.477-24.794.498-35.094.466-35.186-.142-.503.034-.84-.012-1.287-.125-.84-.203-1.508-.026-2.137.113-.448.368-.629.608-.948.256-.346.289-.931.704-1.076.207-.081.477.147.716.139l.271-.172a.702.702 0 0 1 .246.094c.925.389 1.334.538 1.755.781z" class="colorffb839 svgShape"/><path fill="#564a47" d="m1320.531 723.64-.09 31.726-5.246-3.028-13.71-27.217-.055 19.27-6.31-3.644.09-31.726 5.293 3.056 13.663 27.189.054-19.269z" class="color474756 svgShape"/><path fill="#2553b8" d="M1366.308 625.81c1.228.709 2.449 1.989 3.335 3.631.285.513.507 1.024.68 1.527.884 2.541.512 4.869-1.019 5.595-15.304 7.026-35.864 31.616-44.061 41.958 4.378.149 9.837.722 16.998 2.111.474.092.955.283 1.428.556 1.671.965 3.238 2.949 4.001 5.158.095.274.174.557.252.841.771 3.153-.509 5.341-2.864 4.896-22.357-4.346-27.685-.489-27.733-.462-.255.201-.669-.038-.987.034-.526.154-.988.253-1.624.05a2.345 2.345 0 0 1-.416-.193c-.287-.166-.557-.381-.872-.587-.264-.157-.418-.22-.572-.294-.129-.059-.258-.118-.385-.192a1.911 1.911 0 0 1-.505-.414c-.254-.275-.317-.622-.539-.915l-.381-.348c-.206-.32-.189-.622-.364-.942-.491-.924-.839-1.71-1.011-2.633-.126-.585-.109-.996-.091-1.516.017-.393-.173-.886-.076-1.251.082-.831.371-7.396-6.877-34.101-.867-3.19.318-5.488 2.657-5.143.514.075 1.043.276 1.563.576 1.669.964 3.254 2.959 4.025 5.175l.189.64c2.19 8.052 3.874 14.988 5.115 20.882 7.143-9.195 29.75-37.067 47.111-45.046.866-.397 1.947-.215 3.023.407z" class="color255bb8 svgShape"/><path fill="#564a47" d="m1185.661 645.774-.016 5.899-14.513-8.379-.019 6.886 12.811 7.397-.016 5.698-12.811-7.396-.021 7.342 15.021 8.673-.017 5.899-21.363-12.334.09-31.725z" class="color474756 svgShape"/><path fill="#e24829" d="M1176.157 512.907c.148.085.295.18.439.285 1.859 1.274 3.412 3.818 3.724 6.229 3.132 24.109 17.76 70.187 23.964 89.062.603-4.921 1.606-10.726 3.362-17.744.495-1.965 2.23-2.451 4.136-1.35.14.081.28.169.421.267a4.8 4.8 0 0 1 .604.477c2.271 1.97 3.631 5.444 3.051 7.744-5.507 21.92-3.449 31.579-3.433 31.68.11.466-.114.721-.083 1.16.046.758.06 1.37-.165 1.917-.144.392-.415.528-.671.783-.287.273-.368.793-.783.884-.223.036-.477-.202-.7-.221l-.287.127c-.447-.285-.528-.349-.604-.392a7.54 7.54 0 0 1-.957-.452c-.347-.2-.687-.45-1.045-.788-.413-.403-.698-.787-1.063-1.291-.27-.375-.635-.604-.857-1.044-.571-.842-5.059-7.146-24.294-23.009-2.287-1.888-3.726-5.353-3.226-7.735.438-2.076 2.21-2.644 4.18-1.506.135.078.272.164.408.259l.461.357c5.782 4.765 10.769 9.144 14.961 13.046-5.525-16.6-22.192-68.062-25.729-95.387-.39-2.914 1.175-4.572 3.497-3.688.231.089.462.199.689.33z" class="colore22951 svgShape"/><path fill="#564a47" d="m1147.386 623.675-.073 25.735 13.829 7.984-.017 5.991-20.219-11.673.09-31.726z" class="color474756 svgShape"/><path fill="#7592d1" d="M1160.714 690.018c.164.095.332.21.509.354.429.339.714.742 1.111 1.208.428.486.921.752 1.27 1.374.174.32.142.612.284.914l.285.439c.126.329.014.539.093.84.236.887.346 1.627.248 2.339-.065.456-.209.739-.401 1.086-.144.265-.097.712-.321.894-.352.529-2.752 4.887-3.548 27.077-.101 2.575-2.013 3.542-4.33 2.204-2.359-1.456-4.102-4.438-4.254-6.977a6.15 6.15 0 0 1-.014-.539c.242-6.684.672-12.345 1.242-17.028-10.547 2.546-43.508 9.787-64.545 6.129a4.468 4.468 0 0 1-1.44-.55c-1.768-1.021-3.415-3.214-4.035-5.574a6.757 6.757 0 0 1-.235-1.416c-.121-2.21.997-3.614 2.875-3.279 18.539 3.221 48.265-2.851 60.293-5.639a156.406 156.406 0 0 1-5.843-3.216c-3.361-1.941-7.183-4.293-11.578-7.189-2.161-1.413-3.825-4.33-3.961-6.769a5.276 5.276 0 0 1 .002-.712c.174-2.466 2.068-3.339 4.285-2.059.106.061.214.128.321.199 4.287 2.822 8.006 5.109 11.219 6.964 13.58 7.84 18.109 7.949 18.161 7.949.143.001.295.078.45.167.429.261.523.306.616.338.445.124.831.235 1.241.472z" class="color75d178 svgShape"/><path fill="#ffa08d" d="M1010.671 476.843c1.334.77 2.643 2.219 3.463 3.984 11.409 24.571 39.297 66.192 50.871 83.101-1.464-5.785-2.973-12.785-4.413-21.592-.422-2.659.792-4.336 2.782-4.029.191.019.398.083.604.148.326.105.651.252.97.436 1.982 1.144 3.733 3.703 4.137 6.19 4.491 27.51 9.639 36.867 9.687 36.968.253.457.204.868.378 1.335.332.813.585 1.472.631 2.212.046.521-.082.831-.179 1.269-.097.475.045 1.105-.211 1.451-.144.173-.414.072-.574.199l-.16.31c-.175.1-.446-.092-.637-.038-.589.117-1.131.134-1.815-.133a3.581 3.581 0 0 1-.421-.208 8.7 8.7 0 0 1-.819-.562 3.278 3.278 0 0 0-.429-.229 1.979 1.979 0 0 1-.271-.126 1.236 1.236 0 0 1-.302-.241c-.207-.166-.8-.616-1.991-1.304-3.013-1.739-9.846-4.991-23.884-8.951a4.897 4.897 0 0 1-1.098-.476c-1.923-1.11-3.66-3.561-4.122-6.014-.534-2.741.682-4.528 2.75-4.23l.446.092c5.902 1.67 11.071 3.373 15.524 5.103-10.243-14.86-41.619-61.112-54.548-88.975-1.377-2.972-.907-5.756 1.053-6.216.319-.09.669-.09 1.035-.043.503.073 1.025.27 1.543.569z" class="colorff8dc4 svgShape"/><path fill="#5f8bec" d="M1396.01 763.694c1.594.92 3.137 2.791 3.951 4.982 1.106 2.98.462 5.517-1.402 5.923l-.43.063c-5.525.267-10.445.208-14.727-.106 12.444 13.405 50.759 55.393 68.639 82.914 1.902 2.928 2.147 6.344.552 7.618a1.882 1.882 0 0 1-.893.418c-.765.17-1.663-.037-2.565-.558-1.014-.585-2.032-1.567-2.871-2.855-15.773-24.272-49.943-62.167-64.038-77.476 2.641 6.172 5.613 13.742 8.945 23.422 1.011 2.925.351 5.325-1.465 5.722a8.94 8.94 0 0 1-.557.062c-.643-.007-1.324-.228-1.996-.616-1.657-.957-3.251-2.927-4.038-5.191-10.438-30.266-17.131-39.199-17.195-39.29-.333-.43-.395-.942-.649-1.418-.475-.805-.855-1.482-1.076-2.323-.157-.603-.124-1.005-.139-1.544-.03-.603-.315-1.279-.154-1.772.064-.256.335-.228.447-.437l.049-.429c.144-.173.43-.045.59-.172.463-.391.941-.591 1.609-.534.43.047.796.203 1.241.405.333.159.613.091.936.277.877.477 6.696 3.196 25.087 2.308.685-.034 1.422.188 2.149.607z" class="coloraf5fec svgShape"/><path fill="#564a47" d="m1120.969 608.423-.017 5.9-14.512-8.379-.02 6.886 12.812 7.397-.017 5.698-12.811-7.397-.021 7.343 15.021 8.672-.017 5.9-21.363-12.334.09-31.726zM1135.673 633.067l-.016 5.662-11.158-6.442.016-5.662zM1206.245 657.658l12.245 38.847-6.708-3.873-2.429-8.208-12.811-7.397-2.451 5.391-6.549-3.781 12.393-24.623 6.31 3.644zm-7.636 14.965 8.758 5.057-4.337-14.652-4.421 9.595m41.034 25.887 6.17 13.771-6.867-3.964-5.3-11.914-.318-.183-5.547-3.203-.025 8.84-6.39-3.689.09-31.726 11.937 6.892c2.448 1.413 4.576 3.118 6.37 5.087 1.793 1.987 3.173 4.1 4.153 6.404.965 2.276 1.436 4.579 1.429 6.935-.007 2.356-.505 4.118-1.495 5.247-.99 1.128-2.392 1.636-4.207 1.503zm-2.272-7.258c1.004-.39 1.517-1.466 1.522-3.22.005-1.771-.5-3.435-1.498-4.963-.983-1.519-2.444-2.838-4.367-3.949l-5.198-3.001-.031 11.05 5.198 3.001c1.922 1.112 3.386 1.481 4.374 1.082M1275.738 697.78l-.09 31.725-5.245-3.028-13.694-27.208-.055 19.27-6.31-3.643.089-31.726 5.278 3.047 13.662 27.189.055-19.27zM1288.677 705.25l-.09 31.726-6.39-3.69.09-31.725zM1340.512 734.646a28.726 28.726 0 0 1 6.577 5.206 30.614 30.614 0 0 1 4.964 6.945l-4.113 1.979c-1.964-3.53-4.345-6.094-7.127-7.7-1.764-1.019-3.323-1.498-4.693-1.447-1.37.069-2.438.642-3.205 1.735-.767 1.112-1.154 2.646-1.159 4.636-.006 1.972.371 3.946 1.13 5.921a19.005 19.005 0 0 0 3.169 5.433c1.349 1.639 2.889 2.967 4.622 3.967 1.844 1.065 3.498 1.563 4.963 1.512l.026-9.296 5.849 3.377-.037 12.876c-1.514.425-3.249.411-5.222-.033-1.973-.444-3.961-1.244-5.948-2.391-2.877-1.661-5.45-3.842-7.719-6.56a32.987 32.987 0 0 1-5.372-8.956c-1.296-3.236-1.94-6.444-1.931-9.585.009-3.123.669-5.578 1.979-7.309 1.311-1.732 3.112-2.649 5.437-2.716 2.308-.075 4.917.736 7.81 2.406z" class="color474756 svgShape"/><path fill="#c5cddd" d="m1133.619 1178.583-.047 21.038c0 1.941-1.278 3.88-3.833 5.347l-186.994 99.239c-5.158 2.982-13.486 2.982-18.69 0l-486.791-281.059c-2.602-1.515-3.927-3.501-3.927-5.441l.047-11.593c0 1.987 1.278 3.975 3.88 5.441l486.839 281.107c5.157 2.98 13.532 2.98 18.69 0l186.994-108.686c2.555-1.514 3.832-3.454 3.832-5.393z" class="colorc5d4dd svgShape"/><path fill="#dce3f1" d="M1129.729 1173.149c5.166 2.983 5.193 7.832.061 10.814l-187.015 108.681c-5.133 2.983-13.503 2.983-18.67 0l-486.832-281.073c-5.166-2.983-5.193-7.831-.061-10.814l187.015-108.681c5.132-2.982 13.503-2.983 18.669 0l486.833 281.073z" class="colordce8f1 svgShape"/><path fill="#736461" d="M511.414 1004.293c1.873 1.081 1.913 2.843.023 3.941l-22.12 12.855c-1.891 1.099-4.933 1.082-6.805 0l-19.788-11.424c-1.873-1.081-1.912-2.843-.022-3.942l22.12-12.855c1.891-1.099 4.932-1.081 6.805 0l19.787 11.425zm100.868 20.337c1.872 1.081 1.913 2.843.022 3.941l-19.659 11.424c-1.861 1.082-4.902 1.064-6.775-.017l-19.787-11.424c-1.873-1.082-1.914-2.843-.052-3.925l19.659-11.424c1.891-1.099 4.932-1.081 6.805.001l19.787 11.424zm48.229-7.1c1.873 1.082 1.883 2.861.023 3.942l-19.689 11.442c-1.861 1.082-4.902 1.064-6.776-.017l-19.787-11.424c-1.873-1.082-1.913-2.843-.052-3.925l19.689-11.442c1.86-1.081 4.932-1.081 6.805 0l19.787 11.424zm167.271-.053c1.872 1.081 1.913 2.844.022 3.942l-9.184 5.337c-1.891 1.099-4.933 1.081-6.806 0l-19.788-11.424c-1.873-1.081-1.914-2.843-.022-3.942l9.184-5.337c1.891-1.099 4.932-1.082 6.806 0l19.788 11.424zm-34.047-19.657c1.873 1.082 1.882 2.826-.008 3.925l-9.184 5.337c-1.891 1.099-4.902 1.099-6.776.018l-19.787-11.424c-1.903-1.099-1.913-2.843-.021-3.942l9.184-5.337c1.891-1.099 4.902-1.099 6.805-.001l19.787 11.424zm-78.256 86.39c1.873 1.082 1.913 2.843.023 3.942l-19.659 11.425c-1.861 1.082-4.902 1.064-6.776-.018l-19.788-11.424c-1.903-1.099-1.913-2.843-.052-3.924l19.659-11.425c1.891-1.099 4.901-1.099 6.804 0l19.789 11.424zm146.35-47.076c1.873 1.081 1.912 2.843.021 3.942l-9.184 5.337c-1.891 1.099-4.932 1.082-6.805 0l-19.788-11.424c-1.873-1.082-1.913-2.843-.022-3.942l9.184-5.337c1.891-1.099 4.933-1.082 6.806 0l19.788 11.424zm38.596 47.041c1.873 1.081 1.882 2.825.022 3.906l-19.689 11.442c-1.861 1.082-4.872 1.082-6.745 0l-19.818-11.442c-1.873-1.082-1.914-2.843-.052-3.925l19.689-11.442c1.86-1.081 4.902-1.064 6.775.018l19.818 11.443zm-50.821 6.61c1.872 1.081 1.913 2.843.021 3.942l-19.629 11.407c-1.89 1.099-4.932 1.081-6.804 0l-19.818-11.442c-1.873-1.082-1.913-2.843-.023-3.942l19.629-11.407c1.891-1.099 4.932-1.082 6.806 0l19.818 11.442zm-33.049-19.081c1.873 1.081 1.913 2.843.021 3.942l-19.629 11.407c-1.891 1.099-4.932 1.081-6.804 0l-19.788-11.424c-1.873-1.082-1.914-2.843-.023-3.942l19.629-11.407c1.891-1.099 4.932-1.082 6.806 0l19.788 11.424zm79.32-14.914c1.873 1.082 1.913 2.844.022 3.942l-9.184 5.337c-1.891 1.099-4.932 1.082-6.806 0l-19.787-11.424c-1.873-1.081-1.913-2.843-.021-3.942l9.184-5.337c1.891-1.099 4.932-1.082 6.805 0l19.787 11.424zm-28.5 8.303c1.873 1.082 1.913 2.843.053 3.924l-19.689 11.442c-1.861 1.082-4.902 1.064-6.776-.017l-19.787-11.424c-1.873-1.081-1.914-2.843-.052-3.925l19.689-11.442c1.86-1.081 4.902-1.064 6.775.018l19.787 11.424zm-33.019-19.063c1.873 1.082 1.914 2.843.053 3.924l-19.689 11.442c-1.861 1.082-4.902 1.064-6.776-.017l-19.818-11.442c-1.872-1.081-1.882-2.825-.021-3.907l19.689-11.442c1.86-1.081 4.871-1.081 6.744 0l19.818 11.442zm111.983 224.039c1.873 1.081 1.913 2.843.052 3.924l-9.484 5.512c-1.891 1.099-4.932 1.082-6.805 0l-20.362-11.756c-1.872-1.081-1.882-2.826.008-3.925l9.484-5.512c1.861-1.082 4.873-1.081 6.745 0l20.362 11.757zm-90.895-67.15c1.903 1.099 1.913 2.843.022 3.941l-22.12 12.855c-1.891 1.099-4.902 1.099-6.805 0l-20.332-11.738c-1.873-1.081-1.912-2.843-.021-3.942l22.12-12.855c1.891-1.099 4.932-1.081 6.804 0l20.332 11.739zm248.849-25.798c1.873 1.082 1.882 2.826-.008 3.925l-9.184 5.337c-1.891 1.099-4.902 1.099-6.776.018l-24.923-14.39c-1.873-1.081-1.913-2.843-.021-3.942l9.184-5.337c1.891-1.099 4.932-1.082 6.805 0l24.923 14.389zm-52.404 30.454c1.873 1.082 1.883 2.826-.008 3.925l-19.629 11.407c-1.891 1.099-4.901 1.099-6.775.017l-25.95-14.982c-1.873-1.082-1.914-2.843-.023-3.942l19.629-11.407c1.891-1.099 4.932-1.082 6.806 0l25.95 14.982zm-121.967-131.128c1.903 1.099 1.913 2.844.022 3.942l-9.184 5.337c-1.891 1.099-4.903 1.099-6.806 0l-19.788-11.424c-1.872-1.081-1.883-2.826.008-3.925l9.184-5.337c1.891-1.099 4.903-1.099 6.776-.018l19.788 11.425zm34.046 19.657c1.903 1.099 1.912 2.843.021 3.942l-9.184 5.337c-1.891 1.099-4.902 1.099-6.805 0l-19.787-11.424c-1.873-1.082-1.883-2.826.008-3.925l9.184-5.337c1.891-1.099 4.902-1.099 6.776-.018l19.787 11.425zm-30.524 7.134c1.873 1.082 1.914 2.843.053 3.924l-19.689 11.442c-1.861 1.082-4.902 1.064-6.776-.018l-19.788-11.424c-1.872-1.081-1.913-2.843-.052-3.925l19.689-11.442c1.86-1.081 4.902-1.063 6.775.018l19.788 11.425zm-50.821 6.611c1.873 1.082 1.913 2.843.022 3.942l-19.629 11.407c-1.891 1.099-4.932 1.081-6.805 0l-19.787-11.424c-1.873-1.081-1.913-2.843-.022-3.941l19.629-11.407c1.891-1.099 4.933-1.082 6.805 0l19.787 11.423zm83.84 12.453c1.904 1.099 1.914 2.843.053 3.924l-19.689 11.442c-1.861 1.082-4.872 1.082-6.776-.018l-19.788-11.424c-1.872-1.081-1.913-2.843-.051-3.924l19.689-11.442c1.86-1.081 4.902-1.064 6.774.017l19.788 11.425zm-50.791 6.628c1.873 1.082 1.883 2.826-.008 3.925l-19.629 11.407c-1.891 1.099-4.901 1.099-6.775.017l-19.817-11.441c-1.873-1.082-1.914-2.843-.023-3.942l19.629-11.407c1.891-1.099 4.932-1.082 6.806 0l19.817 11.441zm116.419 6.505c1.873 1.082 1.882 2.826-.008 3.925l-9.184 5.337c-1.891 1.099-4.902 1.099-6.775.017l-19.818-11.442c-1.873-1.081-1.882-2.825.009-3.924l9.184-5.337c1.891-1.099 4.902-1.099 6.775-.018l19.817 11.442zm-173.403-3.487c1.873 1.082 1.883 2.861.023 3.942l-19.689 11.442c-1.861 1.082-4.902 1.064-6.776-.017l-19.787-11.424c-1.873-1.081-1.913-2.843-.052-3.924l19.689-11.442c1.86-1.081 4.932-1.081 6.804 0l19.788 11.423zm140.795 9.418c1.903 1.099 1.913 2.843.052 3.924l-19.689 11.442c-1.861 1.082-4.872 1.082-6.775-.017l-19.757-11.407c-1.904-1.099-1.913-2.843-.052-3.925l19.689-11.442c1.86-1.081 4.871-1.081 6.775.018l19.757 11.407zm-50.79 6.628c1.872 1.081 1.882 2.825-.009 3.924l-19.629 11.407c-1.891 1.099-4.901 1.099-6.774.017l-19.787-11.424c-1.904-1.099-1.914-2.843-.023-3.942l19.629-11.407c1.891-1.099 4.902-1.099 6.806 0l19.787 11.425zm117.445 7.098c1.873 1.081 1.912 2.843.021 3.942l-9.184 5.337c-1.891 1.099-4.932 1.082-6.805 0l-19.818-11.442c-1.873-1.082-1.883-2.826.008-3.925l9.184-5.337c1.891-1.099 4.902-1.099 6.776-.018l19.818 11.443zm-174.401-4.063c1.873 1.082 1.883 2.861.023 3.942l-19.689 11.442c-1.861 1.082-4.902 1.064-6.776-.018l-19.817-11.441c-1.873-1.082-1.883-2.825-.022-3.907l19.689-11.442c1.86-1.081 4.901-1.099 6.775-.017l19.817 11.441zm140.221 9.086c1.873 1.082 1.914 2.843.053 3.924l-19.689 11.442c-1.861 1.082-4.902 1.064-6.776-.017l-19.787-11.424c-1.873-1.082-1.914-2.843-.052-3.925l19.689-11.442c1.86-1.081 4.902-1.064 6.775.018l19.787 11.424zm-50.246 6.943c1.903 1.099 1.914 2.843.022 3.942l-19.629 11.407c-1.891 1.099-4.902 1.098-6.805 0l-19.787-11.424c-1.903-1.099-1.914-2.843-.023-3.942l19.629-11.407c1.891-1.099 4.903-1.099 6.806 0l19.787 11.424zm-56.955 3.035c1.872 1.081 1.883 2.86.022 3.941l-19.689 11.442c-1.861 1.082-4.902 1.064-6.775-.017l-19.788-11.424c-1.873-1.082-1.913-2.843-.052-3.925l19.689-11.442c1.86-1.081 4.932-1.081 6.805 0l19.788 11.425zm-44.12 9.471c1.872 1.081 1.882 2.825-.008 3.924l-19.659 11.424c-1.861 1.082-4.872 1.082-6.745 0l-19.787-11.424c-1.873-1.082-1.914-2.843-.052-3.925l19.659-11.424c1.891-1.099 4.932-1.081 6.805 0l19.787 11.425zm134.094 6.557c1.904 1.099 1.914 2.843.022 3.942l-19.629 11.407c-1.891 1.099-4.901 1.099-6.805 0l-19.787-11.424c-1.872-1.081-1.882-2.825.008-3.924l19.629-11.407c1.891-1.099 4.902-1.099 6.775-.018l19.787 11.424zm-56.925 3.053c1.873 1.082 1.853 2.843-.007 3.924l-19.689 11.442c-1.861 1.082-4.872 1.082-6.745 0l-19.818-11.442c-1.872-1.081-1.913-2.843-.051-3.924l19.689-11.442c1.86-1.081 4.932-1.081 6.804 0l19.817 11.442zm-44.15 9.454c1.873 1.082 1.913 2.843.023 3.942l-19.659 11.425c-1.861 1.082-4.902 1.064-6.776-.018l-19.787-11.424c-1.873-1.081-1.914-2.843-.052-3.925l19.659-11.424c1.891-1.099 4.932-1.081 6.805 0l19.787 11.424zm75.772 44.755c1.873 1.082 1.853 2.843-.008 3.925l-19.658 11.424c-1.861 1.082-4.902 1.099-6.776.018l-61.357-35.424c-1.872-1.081-1.883-2.86-.021-3.942l19.658-11.424c1.861-1.082 4.932-1.082 6.805 0l61.357 35.423zM847.617 1160.5c1.873 1.082 1.883 2.826-.007 3.924l-19.659 11.424c-1.861 1.082-4.872 1.082-6.745 0l-19.817-11.441c-1.873-1.082-1.883-2.826-.022-3.907l19.659-11.424c1.89-1.099 4.901-1.099 6.775-.017l19.816 11.441zM792.619 1093.803c1.903 1.099 1.883 2.86.022 3.941l-19.689 11.442c-1.861 1.082-4.872 1.082-6.775-.017l-19.788-11.424c-1.873-1.082-1.883-2.826-.022-3.907l19.689-11.442c1.86-1.081 4.901-1.099 6.775-.017l19.788 11.424zm33.05 19.081c1.872 1.081 1.883 2.861.023 3.942l-19.689 11.442c-1.861 1.082-4.903 1.064-6.776-.017l-19.788-11.424c-1.903-1.099-1.914-2.843-.052-3.925l19.689-11.442c1.86-1.081 4.902-1.098 6.805 0l19.788 11.424zm-44.121 9.471c1.872 1.081 1.913 2.843.022 3.941l-19.659 11.425c-1.861 1.082-4.902 1.064-6.775-.017l-19.818-11.442c-1.873-1.082-1.883-2.826-.022-3.907l19.659-11.425c1.89-1.099 4.901-1.099 6.775-.017l19.818 11.442zm33.02 19.064c1.873 1.082 1.914 2.843.023 3.942l-19.659 11.424c-1.861 1.082-4.902 1.064-6.776-.017l-19.787-11.424c-1.872-1.081-1.913-2.843-.052-3.924l19.659-11.424c1.89-1.099 4.932-1.081 6.804 0l19.788 11.423zM820.944 1183c1.873 1.082 1.914 2.843.023 3.942l-22.12 12.855c-1.891 1.099-4.932 1.082-6.806 0L766 1184.762c-1.873-1.081-1.912-2.843-.021-3.942l22.12-12.855c1.891-1.099 4.932-1.081 6.804 0L820.944 1183zM735.237 988.803c1.904 1.099 1.913 2.843.053 3.924l-19.689 11.442c-1.861 1.082-4.872 1.082-6.776-.018l-19.757-11.407c-1.903-1.099-1.913-2.843-.051-3.924l19.689-11.442c1.86-1.081 4.871-1.081 6.774.017l19.757 11.408zm33.05 19.082c1.872 1.081 1.913 2.843.052 3.924l-19.689 11.442c-1.861 1.082-4.902 1.064-6.775-.017l-19.788-11.424c-1.904-1.099-1.914-2.843-.052-3.925l19.689-11.442c1.86-1.081 4.871-1.081 6.775.018l19.788 11.424zm-50.821 6.61c1.873 1.081 1.913 2.843.021 3.942l-19.629 11.407c-1.891 1.099-4.932 1.081-6.804 0l-19.788-11.424c-1.904-1.099-1.914-2.843-.023-3.942l19.629-11.407c1.891-1.099 4.902-1.099 6.806 0l19.788 11.424zm83.84 12.453c1.872 1.081 1.913 2.843.052 3.924l-19.689 11.442c-1.861 1.082-4.902 1.064-6.775-.017l-19.787-11.424c-1.873-1.082-1.883-2.826-.022-3.907l19.689-11.442c1.86-1.081 4.871-1.081 6.745 0l19.787 11.424zm-50.821 6.611c1.903 1.099 1.914 2.843.022 3.942l-19.629 11.407c-1.891 1.099-4.902 1.098-6.805 0l-19.787-11.424c-1.873-1.082-1.883-2.825.007-3.924l19.629-11.407c1.891-1.099 4.902-1.099 6.776-.018l19.787 11.424zm-56.924 3.053c1.872 1.081 1.852 2.843-.008 3.924l-19.689 11.442c-1.861 1.082-4.872 1.082-6.745 0l-19.818-11.442c-1.873-1.082-1.914-2.843-.052-3.925l19.689-11.442c1.86-1.081 4.932-1.081 6.805 0l19.818 11.443zm-48.229 7.099c1.873 1.082 1.883 2.826-.007 3.924l-19.659 11.425c-1.861 1.082-4.872 1.082-6.745 0l-19.818-11.442c-1.872-1.081-1.883-2.826-.022-3.907l19.659-11.425c1.891-1.099 4.902-1.098 6.775-.017l19.817 11.442zm138.203 8.929c1.873 1.082 1.913 2.843.022 3.942l-19.629 11.407c-1.891 1.099-4.932 1.081-6.805 0l-19.818-11.442c-1.873-1.081-1.882-2.825.008-3.924l19.629-11.407c1.891-1.099 4.902-1.099 6.775-.018l19.818 11.442zm-56.955 3.036c1.873 1.081 1.853 2.843-.007 3.924l-19.689 11.442c-1.861 1.082-4.872 1.082-6.745 0l-19.788-11.424c-1.903-1.099-1.914-2.843-.052-3.925l19.689-11.442c1.86-1.081 4.902-1.098 6.805 0l19.787 11.425zm-48.229 7.098c1.873 1.082 1.883 2.826-.007 3.924l-19.659 11.425c-1.861 1.082-4.872 1.082-6.745 0l-19.788-11.424c-1.872-1.081-1.913-2.843-.052-3.924l19.659-11.425c1.891-1.099 4.932-1.081 6.804 0l19.788 11.424zm-61.897 2.164c1.873 1.081 1.882 2.825-.008 3.924l-22.12 12.855c-1.891 1.099-4.902 1.099-6.775.018L561.51 1066.7c-1.904-1.099-1.913-2.844-.022-3.942l22.12-12.855c1.891-1.099 4.901-1.099 6.805 0l26.041 15.035zm143.145 9.801c1.904 1.099 1.883 2.861.023 3.942l-19.689 11.442c-1.861 1.082-4.872 1.082-6.776-.018l-19.788-11.424c-1.873-1.081-1.913-2.843-.052-3.924l19.689-11.442c1.86-1.081 4.932-1.081 6.804 0l19.789 11.424zm-11.1 28.535c1.873 1.081 1.913 2.843.022 3.941l-19.659 11.425c-1.861 1.082-4.902 1.064-6.775-.017l-19.788-11.424c-1.873-1.082-1.914-2.843-.052-3.925l19.659-11.425c1.891-1.099 4.932-1.081 6.805 0l19.788 11.425zm32.236 56.512c1.873 1.082 1.913 2.843.023 3.942l-22.12 12.855c-1.891 1.099-4.932 1.082-6.806 0l-150.445-86.86c-1.903-1.099-1.912-2.843-.021-3.942l22.12-12.855c1.891-1.099 4.901-1.099 6.804 0l150.445 86.86zM577.271 1042.316c1.873 1.082 1.883 2.826-.007 3.924l-22.12 12.855c-1.891 1.099-4.902 1.099-6.776.017l-19.788-11.424c-1.903-1.099-1.912-2.843-.021-3.942l22.12-12.855c1.891-1.099 4.901-1.099 6.804 0l19.788 11.425zM544.342 1023.304c1.873 1.082 1.914 2.843.023 3.942l-22.12 12.855c-1.891 1.099-4.933 1.082-6.806 0l-19.787-11.424c-1.903-1.099-1.912-2.844-.022-3.942l22.12-12.855c1.891-1.099 4.901-1.099 6.805 0l19.787 11.424zM577.335 1005.461c1.873 1.082 1.883 2.861.022 3.942l-19.658 11.424c-1.861 1.082-4.932 1.082-6.806 0l-52.897-30.54c-1.903-1.099-1.883-2.861-.022-3.942l19.658-11.424c1.861-1.082 4.903-1.099 6.806 0l52.897 30.54zM725.643 958.507c1.872 1.081 1.882 2.826-.009 3.924l-9.184 5.337c-1.891 1.099-4.902 1.099-6.775.018l-19.818-11.442c-1.873-1.082-1.883-2.826.008-3.925l9.184-5.337c1.891-1.099 4.902-1.099 6.776-.018l19.818 11.443zM691.596 938.85c1.873 1.082 1.882 2.826-.008 3.925l-9.184 5.337c-1.891 1.099-4.902 1.099-6.776.018l-19.818-11.442c-1.873-1.081-1.913-2.843-.022-3.942l9.184-5.337c1.891-1.099 4.932-1.082 6.805 0l19.819 11.441zM636.179 931.612c1.873 1.082 1.883 2.826.023 3.907l-19.689 11.442c-1.861 1.082-4.872 1.082-6.745 0l-19.818-11.442c-1.873-1.081-1.913-2.843-.052-3.924l19.689-11.442c1.86-1.081 4.901-1.064 6.774.018l19.818 11.441zm33.02 19.064c1.872 1.081 1.882 2.825.022 3.906l-19.689 11.442c-1.861 1.082-4.872 1.082-6.745 0L622.999 954.6c-1.903-1.099-1.913-2.843-.052-3.924l19.689-11.442c1.86-1.081 4.871-1.081 6.774.018l19.789 11.424zm-49.734 7.238c1.873 1.081 1.913 2.843.021 3.942l-19.629 11.407c-1.891 1.099-4.931 1.081-6.804 0l-34.137-19.709c-1.873-1.081-1.913-2.843-.023-3.941l19.629-11.407c1.891-1.099 4.932-1.082 6.805 0l34.138 19.708zm82.753 11.826c1.903 1.099 1.914 2.843.053 3.924l-19.689 11.442c-1.861 1.082-4.873 1.081-6.776-.018l-19.788-11.424c-1.903-1.099-1.914-2.843-.052-3.925l19.689-11.442c1.86-1.081 4.872-1.081 6.775.018l19.788 11.425zm-50.248 6.941c1.873 1.082 1.914 2.843.022 3.942l-19.629 11.407c-1.891 1.099-4.932 1.081-6.805 0l-19.787-11.424c-1.873-1.082-1.883-2.826.007-3.924l19.629-11.407c1.891-1.099 4.902-1.099 6.776-.017l19.787 11.423zm-56.652 3.21c1.872 1.081 1.853 2.843-.007 3.924l-19.689 11.442c-1.861 1.082-4.873 1.081-6.745 0l-40.995-23.668c-1.873-1.081-1.913-2.843-.052-3.924l19.689-11.442c1.86-1.081 4.932-1.081 6.805 0l40.994 23.668zm32.747 18.907c1.873 1.082 1.853 2.843-.007 3.924l-19.689 11.442c-1.861 1.082-4.872 1.082-6.745 0l-19.787-11.424c-1.904-1.099-1.914-2.843-.052-3.925l19.689-11.442c1.86-1.081 4.901-1.099 6.805 0l19.786 11.425zM657.549 919.193c1.873 1.082 1.882 2.826-.008 3.925l-9.184 5.337c-1.891 1.099-4.902 1.099-6.776.018l-19.818-11.442c-1.873-1.081-1.913-2.843-.022-3.942l9.184-5.337c1.891-1.099 4.932-1.082 6.805 0l19.819 11.441zM759.689 978.163c1.873 1.082 1.882 2.826-.008 3.925l-9.184 5.337c-1.891 1.099-4.902 1.099-6.776.018l-19.787-11.424c-1.904-1.099-1.914-2.843-.022-3.942l9.184-5.337c1.891-1.099 4.902-1.099 6.806 0l19.787 11.423zM684.446 995.431c1.873 1.082 1.883 2.826-.008 3.925l-19.629 11.407c-1.891 1.099-4.901 1.099-6.775.017l-19.788-11.424c-1.903-1.099-1.913-2.843-.022-3.941l19.629-11.407c1.891-1.099 4.902-1.099 6.805 0l19.788 11.423zM875.828 1229.36c1.873 1.082 1.913 2.843.052 3.925l-9.484 5.512c-1.891 1.099-4.932 1.082-6.806 0l-20.361-11.755c-1.873-1.082-1.913-2.844-.022-3.942l9.484-5.512c1.861-1.082 4.902-1.064 6.776.018l20.361 11.754zM923.748 1242.354c1.873 1.082 1.883 2.826-.007 3.924l-22.12 12.855c-1.891 1.099-4.902 1.099-6.776.017l-20.361-11.755c-1.873-1.082-1.913-2.844-.022-3.942l22.12-12.855c1.891-1.099 4.932-1.081 6.805 0l20.361 11.756zM1020.462 1225.348c1.873 1.082 1.853 2.843-.007 3.924l-19.689 11.442c-1.861 1.082-4.872 1.082-6.745 0l-47.128-27.209c-1.903-1.099-1.913-2.843-.052-3.925l19.689-11.442c1.86-1.081 4.902-1.098 6.805 0l47.127 27.21zM1082.923 1189.54c1.873 1.082 1.883 2.826.023 3.907l-19.689 11.442c-1.861 1.082-4.872 1.082-6.745 0l-35.859-20.703c-1.872-1.081-1.913-2.843-.052-3.924l19.689-11.442c1.86-1.081 4.901-1.064 6.774.017l35.859 20.703zM998.045 1115.778c1.873 1.082 1.882 2.826-.008 3.925l-9.184 5.337c-1.891 1.099-4.902 1.099-6.776.017l-19.817-11.441c-1.873-1.082-1.883-2.826.008-3.925l9.184-5.337c1.891-1.099 4.902-1.099 6.776-.018l19.817 11.442z" class="color616173 svgShape"/><path fill="#ea5a3d" d="M1550.249 1343.084v6.934c0 3.238-2.034 6.099-6.509 8.543l-196.526 114.337c-8.138 4.867-21.971 4.867-30.516 0l-149.905-86.264v-6.914l149.905 86.661c8.545 4.887 22.378 4.887 30.516 0l196.526-114.337c4.475-2.444 6.509-5.702 6.509-8.96z" class="colorea3d5b svgShape"/><path fill="#ff8066" d="M1543.82 1334.36c8.573 4.949 8.606 12.755.093 17.703l-196.664 114.289c-8.261 4.801-21.989 4.954-30.562.004l-149.894-86.541 227.134-131.996 149.893 86.541z" class="colorff6c85 svgShape"/><path fill="#fff" d="m1538.327 1327.395-191.186 111.448c-8.138 4.891-21.971 4.891-30.516 0l-142.766-82.627v22.58l142.766 82.247c8.545 4.865 22.378 4.865 30.516 0l191.186-111.448c4.475-2.441 6.51-5.307 6.51-8.544v-22.616c0 3.255-2.034 6.518-6.51 8.96z" class="colorffffff svgShape"/><path fill="#f97a60" d="M1543.82 1311.763c8.573 4.949 8.606 12.755.093 17.703l-196.664 114.289c-8.261 4.801-21.989 4.954-30.562.004l-149.894-86.541 227.134-131.996 149.893 86.541z" class="colorf9607f svgShape"/><path fill="#ea5a3d" d="M1550.249 1320.487v6.934c0 3.238-2.034 6.099-6.509 8.543l-196.526 114.337c-8.138 4.867-21.971 4.867-30.516 0l-149.905-86.264v-6.914l149.905 86.661c8.545 4.887 22.378 4.887 30.516 0l196.526-114.337c4.475-2.443 6.509-5.702 6.509-8.96z" class="colorea3d5b svgShape"/><path fill="#ff8066" d="M1543.82 1311.763c8.573 4.949 8.606 12.755.093 17.703l-196.664 114.289c-8.261 4.801-21.989 4.954-30.562.004l-149.894-86.541 227.134-131.996 149.893 86.541z" class="colorff6c85 svgShape"/><path fill="#ea5a3d" d="m1478.361 1318.383-42.68 24.939-86.847-50.142 42.68-24.939z" class="colorea3d5b svgShape"/><path fill="#f2b4a7" d="M1310.906 1257.029c-7.011 14.633-37.05 28.026-38.255 29.41-.018.018-.036.036-.054.036l-2.373 2.445s-1.186 3.2-2.085 4.62-14.202 20.889-14.507 21.41c-.683 1.169-2.571.252-2.067-1.114.252-.683 5.771-10.984 5.771-10.984l-1.151-.27s-8.863 10.391-10.534 12.063c-1.69 1.654-3.326-.144-3.128-.917.215-.755 10.229-11.649 10.229-11.649l-.719-.575s-12.656 12.53-14.148 11.416c-1.474-1.096-.413-2.463-.413-2.463l11.99-11.361-.629-.791s-12.296 8.215-13.968 8.143c-1.654-.072-1.222-1.851-1.079-2.247.144-.414 15.029-11.703 15.64-12.512.611-.827 1.672-3.667 1.87-4.17.18-.521-1.492-.917-1.959-.899-.467.036-4.243 1.024-6.22 1.096-1.978.072-3.775-1.978-3.829-3.092-.054-1.114 1.852-.647 3.164-.719 1.33-.072 7.173-.665 8.467-1.564 1.025-.701 6.346-2.193 8.431-2.769a4.339 4.339 0 0 0 1.528-.755l6.346-4.944c5.591-6.274 16.683-15.676 20.044-19.289 4.584-4.872 20.583-31.082 20.583-31.082s6.562-3.973 8.845-1.079c2.281 2.913 1.221 19.973-5.79 34.606z" class="colorf2c0a7 svgShape"/><path fill="#7592d1" d="M1297.387 1226.495c.09-1.833.32-3.658.627-5.468 1.539-9.089 5.055-17.885 10.547-25.288.984-1.326 2.081-2.648 3.57-3.363 1.054-.506 4.487-1.809 5.645-1.969 1.854-.256 1.479.626 3.338.839 1.859.213 3.729.949 4.94 2.376.874 1.029 1.346 2.339 1.673 3.649a21.02 21.02 0 0 1 .621 4.616c.053 2.37-.296 4.729-.643 7.074l-3.844 25.93c-.479 3.234-.964 6.488-2.012 9.584a127.86 127.86 0 0 0-18.301-7.337c-1.151-.361-2.417-.701-3.635-.628-1.193.071-2.321.999-2.806-.134-.405-.944.229-3.74.232-4.84.004-1.68-.035-3.361.048-5.041z" class="color75d178 svgShape"/><path fill="#2553b8" d="M1134.34 1420.773s68.185-29.419 80.624-56.526c15.526-23.312 90.057-59.617 97.59-61.006 7.532-1.39 32.722 21.017 8.05 46.307-24.672 25.29-80.257 39.828-88.649 39.363.255 5.883-37.597 49.369-95.911 51.502-.001-.001-3.454-18.733-1.704-19.64z" class="color255bb8 svgShape"/><path fill="#665754" d="M1182.863 1464.955c-.372-3.551-2.202-6.754-3.804-9.944-.913-1.818-1.765-3.696-2.249-5.68-.432-1.769-.228-3.523-.898-5.196-1.782-4.446-3.538-8.849-5.747-13.109a108.182 108.182 0 0 0-4.061-7.155c-.713-1.15-1.462-2.304-2.488-3.186-1.027-.881-2.383-1.468-3.724-1.284-1.519.207-2.772 1.369-3.49 2.723-.718 1.355-.987 2.895-1.241 4.406-.809 4.808-1.569 9.656-1.476 14.531.093 4.875 1.082 9.823 3.563 14.02 1.033 1.746 2.317 3.357 3.104 5.227.787 1.871 1.657 2.576.556 4.281-.874 1.354-2.884.656-3.247 2.226-.337 1.455.554 2.884 1.403 4.114 1.916 2.774 2.797 5.512 4.712 8.285.63.912 1.297 1.858 2.277 2.376 1.216.644 2.73.501 3.986-.061 1.256-.561 8.216-4.479 10.5-6.941 3.076-3.314 2.673-6.293 2.324-9.633z" class="color545466 svgShape"/><path fill="#3764c7" d="M1177.643 1451.908s64.504-32.155 75.422-59.909c14.211-24.136 86.618-64.512 94.062-66.317 7.444-1.804 33.835 19.173 10.602 45.79-23.234 26.617-77.928 44.211-86.334 44.211.581 5.86-30.679 50.241-88.784 55.601 1.562-7.687-3.315-15.804-4.968-19.376z" class="color3765c7 svgShape"/><path fill="#7c9bdf" d="M1404.702 1235.894c.025-.248.06-.49.074-.743.198-3.687-.911-6.531-1.819-9.813-.198-.322-.382-.647-.586-.967-.275-.432-.207-.844.015-1.16-8.982-13.434-32.12-31.498-37.097-30.194-5.841 1.529-41.834-10.947-53.953 1.173-12.12 12.12-2.737 42.811-2.737 49.653 0 6.842-5.474 29.909-7.428 39.097-1.955 9.188-13.098 27.954-10.947 34.601s21.699 17.007 34.406 26.977c12.706 9.97 29.909 10.556 37.533 7.819 7.624-2.737 6.256-19.744 6.256-19.744-1.369-3.91 9.578-39.292 11.924-44.18 2.027-4.228 19.513-40.931 24.359-52.519z" class="color7cdf82 svgShape"/><path fill="#f2b4a7" d="M1340.823 1188.212s-.278 10.441 2.784 13.226c3.063 2.784 6.961 4.594 9.328 4.594 2.367 0 19.908-5.29 20.326-8.91.418-3.62-2.367-8.075-3.063-11.277s-1.253-13.226-1.253-13.226-28.169 12.666-28.122 15.593z" class="colorf2c0a7 svgShape"/><path fill="#fec1b5" d="M1334.599 1199.24c-1.936-2.297-2.94-5.218-3.882-8.071a627.407 627.407 0 0 1-8.634-28.378c-.554-1.989-1.104-4.036-.896-6.09a8.548 8.548 0 0 1 3.557-6.06c1.389-.97 3.031-1.498 4.646-2.012l12.269-3.905c1.579-.502 3.173-1.008 4.823-1.159 1.398-.128 2.806.002 4.199.179 2.547.323 5.073.802 7.561 1.433 1.662.422 3.337.925 4.758 1.884 2.549 1.719 3.959 4.664 5.057 7.536 2.311 6.044 3.767 12.697 2.222 18.981-.298 1.21-.703 2.391-1.108 3.57-1.425 4.15-2.883 8.365-5.432 11.936-3.62 5.073-9.09 8.354-14.622 10.98-5.059 2.4-10.246 4.244-14.518-.824z" class="colorfed0b5 svgShape"/><path fill="#564a47" d="M1314.319 1153.387s.455 12.226 14.122 11.072c13.668-1.154 23.634-7.286 23.634-7.286s2.562 16.166 5.528 17.929c0 0 4.642-10.993 7.869-7.143 3.227 3.85 1.307 13.748 1.307 13.748s8.359-11.756 7.675-17.282c-.684-5.526-1.452-17.528-8.316-22.424 0 0-8.995-19.665-25.569-9.328s-22.424 21.957-26.25 20.714zM1338.141 1321.037l-.01 3.846c0 .273-.179.538-.537.745l-53.588 31.144c-.716.415-1.876.415-2.602 0l-79.934-46.151c-.368-.217-.556-.49-.556-.764l.019-3.846c0 .273.179.556.547.763l79.934 46.151c.726.424 1.895.424 2.611.01l53.579-31.144c.358-.207.537-.48.537-.754z" class="color474756 svgShape"/><path fill="#665754" d="M1337.599 1320.276c.722.417.732 1.094.008 1.515l-53.585 31.141c-.718.417-1.881.417-2.61-.003l-79.935-46.151c-.722-.417-.732-1.095-.014-1.512l53.592-31.144c.718-.417 1.887-.413 2.61.004l79.934 46.15z" class="color545466 svgShape"/><path fill="#564a47" d="m1292.642 1297.473-14.728 8.557a.265.265 0 0 0 .001.459l20.528 11.854c.285.159.738.159 1.017 0l14.728-8.561a.264.264 0 0 0-.001-.458l-20.528-11.849c-.284-.166-.738-.166-1.017-.002z" class="color474756 svgShape"/><path fill="#665754" d="m1208.659 1306.773 71.394 41.22c.556.311 1.442.311 1.989 0l29.561-17.183c.547-.321.547-.83 0-1.15l-29.561 17.175c-.547.32-1.433.32-1.989 0l-71.394-41.212c-.547.32-.547.829 0 1.15z" class="color545466 svgShape"/><path fill="#564a47" d="m1282.042 1346.834 29.561-17.175-71.394-41.221c-.556-.311-1.442-.311-1.989 0l-29.561 17.184 71.394 41.212c.556.321 1.442.321 1.989 0z" class="color474756 svgShape"/><path fill="#e7ecf7" d="M1280.729 1341.567c-.293-.169-.294-.437-.008-.604l3.02-1.755c.287-.167.746-.164 1.038.005l3.035 1.752c.288.167.299.435.012.601l-3.02 1.755c-.287.167-.754.164-1.043-.003l-3.034-1.751zm2.63-4.077c-.293-.169-.29-.44-.004-.606l3.015-1.752c.287-.167.75-.167 1.043.003l5.235 3.022c.289.167.294.437.008.604l-3.016 1.752c-.286.167-.758.166-1.047 0l-5.234-3.023zm3.773-3.415c-.289-.167-.281-.435.005-.601l3.015-1.752a1.127 1.127 0 0 1 1.034-.003l6.29 3.631c.288.167.298.435.008.604l-3.015 1.752c-.287.167-.759.167-1.047 0l-6.29-3.631zm2.832-3.964c-.288-.167-.29-.435-.003-.602l3.02-1.755c.287-.167.75-.167 1.038 0l8.119 4.688c.288.167.29.435.003.601l-3.02 1.755c-.287.167-.75.167-1.039 0l-8.118-4.687zm-12.584 13.402c-.293-.169-.294-.438-.008-.604l1.411-.82c.291-.169.754-.169 1.047 0l3.035 1.752c.288.167.294.438.003.607l-1.411.82c-.286.167-.754.164-1.043-.002l-3.034-1.753zm-5.015-2.896c-.288-.167-.294-.437-.008-.604l1.411-.82c.291-.169.759-.167 1.047 0l3.039 1.755c.288.167.29.435-.001.604l-1.411.82c-.286.167-.75.167-1.038 0l-3.039-1.755zm-25.069-14.473c-.288-.167-.294-.437-.008-.604l1.411-.82c.291-.169.759-.167 1.047 0l3.035 1.752c.288.167.29.435-.001.604l-1.411.82c-.287.167-.75.167-1.038 0l-3.035-1.752zm-20.057-11.58c-.288-.167-.29-.435-.004-.601l1.411-.82c.291-.169.754-.169 1.043-.002l3.039 1.755c.284.164.29.435-.001.604l-1.411.82c-.286.167-.754.164-1.038 0l-3.039-1.756zm10.027 5.789c-.288-.167-.29-.435-.004-.602l1.411-.82c.291-.169.754-.169 1.043-.002l3.039 1.755c.288.167.29.435-.001.604l-1.411.82c-.287.167-.75.167-1.038 0l-3.039-1.755zm-2.082-10.676c-.289-.167-.286-.437.001-.604l3.015-1.752c.287-.167.75-.167 1.038 0l3.035 1.752c.288.167.294.437.008.604l-3.016 1.752c-.286.167-.758.166-1.047 0l-3.034-1.752zm-17.976-.905c-.288-.167-.29-.435-.004-.602l1.411-.82c.291-.169.754-.169 1.043-.003l3.04 1.755c.288.167.294.437.003.606l-1.411.82c-.286.167-.754.164-1.043-.002l-3.039-1.754zm5.015 2.896c-.288-.167-.29-.435-.003-.601l1.411-.82c.291-.169.754-.169 1.043-.003l3.039 1.755c.288.166.29.435-.001.604l-1.411.82c-.286.167-.75.167-1.038 0l-3.04-1.755zm5.351-.79c-.288-.167-.29-.435-.003-.601l3.02-1.755c.286-.167.746-.164 1.034.002l3.035 1.752c.288.167.298.435.012.602l-3.02 1.755c-.287.167-.754.164-1.043-.003l-3.035-1.752zm19.248 11.112c-.288-.167-.29-.435-.004-.601l3.02-1.755c.287-.167.746-.164 1.034.002l3.035 1.752c.288.167.298.435.012.602l-3.02 1.755c-.286.167-.754.164-1.043-.002l-3.034-1.753zm-4.813-2.778c-.288-.167-.29-.435-.003-.601l3.02-1.755c.286-.167.746-.164 1.034.002l3.039 1.755c.288.167.294.432.008.599l-3.02 1.755c-.286.167-.75.167-1.038 0l-3.04-1.755zm-9.755-1.753c-.288-.167-.294-.438-.008-.604l1.411-.82c.291-.169.759-.167 1.047 0l3.035 1.752c.288.167.29.435-.001.604l-1.411.82c-.286.167-.75.167-1.038 0l-3.035-1.752zm17.365.552c-.288-.167-.29-.44-.004-.606l3.016-1.752c.287-.167.754-.164 1.043.002l3.039 1.755c.288.167.29.435.003.601l-3.016 1.752c-.286.167-.754.169-1.042.002l-3.039-1.754zm-12.419-1.576c-.288-.167-.294-.438-.008-.604l3.02-1.755c.286-.167.75-.162 1.038.005l3.035 1.752c.288.167.294.432.008.599l-3.02 1.755c-.287.167-.75.167-1.038 0l-3.035-1.752zm7.606-1.203c-.288-.167-.286-.437.001-.604l3.016-1.752c.287-.167.75-.167 1.038 0l3.039 1.755c.288.167.29.435.003.601l-3.016 1.752c-.286.167-.754.169-1.042.002l-3.039-1.754zm-12.419-1.576c-.288-.167-.294-.437-.008-.604l3.02-1.755c.287-.167.75-.162 1.039.005l3.035 1.752c.293.169.299.435.012.601l-3.02 1.755c-.286.167-.75.167-1.043-.003l-3.035-1.751zm7.606-1.203c-.288-.167-.286-.437.001-.604l3.016-1.752c.287-.167.75-.167 1.038 0l3.039 1.755c.288.167.294.438.008.604l-3.016 1.752c-.286.167-.758.166-1.047 0l-3.039-1.755zm27.356 25.269c-.288-.167-.29-.435-.003-.601l1.411-.82c.291-.169.754-.169 1.043-.003l3.039 1.755c.288.167.29.435-.001.604l-1.411.82c-.286.167-.75.167-1.038 0l-3.04-1.755zm8.348.939c-.288-.167-.294-.437-.008-.604l3.02-1.755c.287-.167.75-.161 1.039.005l3.035 1.752c.288.167.294.432.008.599l-3.02 1.755c-.286.167-.75.167-1.038 0l-3.036-1.752zm-4.813-2.779c-.288-.167-.294-.438-.008-.604l3.02-1.755c.287-.167.75-.162 1.039.005l3.039 1.755c.288.167.294.432.008.599l-3.02 1.755c-.287.167-.75.167-1.038 0l-3.04-1.755zm-8.55-1.056c-.284-.164-.29-.435-.003-.602l1.411-.82c.291-.169.759-.167 1.043-.002l3.039 1.755c.288.167.29.435-.001.604l-1.411.82c-.287.167-.75.167-1.038 0l-3.04-1.755zm16.069-.196c-.289-.167-.286-.437.001-.604l3.016-1.752c.286-.167.75-.167 1.038 0l3.035 1.752c.288.167.294.437.008.604l-3.016 1.752c-.286.166-.758.166-1.047 0l-3.035-1.752zm-12.332-1.527c-.288-.167-.29-.435-.003-.601l3.02-1.755c.287-.167.746-.164 1.034.003l3.035 1.752c.293.169.298.435.012.601l-3.02 1.755c-.287.167-.75.167-1.043-.002l-3.035-1.753zm-8.748-1.17c-.288-.167-.29-.435-.004-.602l1.411-.82c.291-.169.754-.169 1.043-.003l3.035 1.752c.288.167.294.438.003.607l-1.411.82c-.286.167-.754.164-1.043-.002l-3.034-1.752zm16.358-.03c-.288-.167-.286-.437.001-.604l3.016-1.752c.286-.167.75-.167 1.038 0l3.035 1.752c.289.167.294.437.008.604l-3.016 1.752c-.286.167-.758.167-1.047 0l-3.035-1.752zm8.466-.706c-.288-.167-.29-.44-.003-.606l3.016-1.752c.291-.169.754-.164 1.043.002l3.035 1.752c.288.167.294.433.003.602l-3.016 1.752c-.287.167-.754.169-1.043.003l-3.035-1.753zm-20.89-.873c-.289-.167-.29-.435-.003-.601l3.02-1.755c.287-.166.746-.164 1.034.003l3.039 1.755c.289.167.294.432.008.599l-3.02 1.755c-.287.167-.75.167-1.038 0l-3.04-1.756zm-8.95-1.287c-.288-.167-.29-.435-.003-.601l1.411-.82c.291-.169.754-.169 1.043-.002l3.039 1.755c.288.167.29.435-.001.604l-1.411.82c-.286.167-.75.167-1.038 0l-3.04-1.756zm16.56.087c-.288-.167-.286-.437.001-.604l3.015-1.752c.287-.167.75-.167 1.038 0l3.039 1.755c.288.167.29.435.003.601l-3.016 1.752c-.286.167-.754.169-1.042.002l-3.038-1.754zm8.557-.654c-.289-.167-.29-.44-.003-.607l3.016-1.752c.291-.169.754-.164 1.043.002l3.035 1.752c.289.167.294.432.003.601l-3.015 1.752c-.287.167-.754.169-1.043.003l-3.036-1.751zm-20.975-.922c-.288-.167-.294-.437-.008-.604l3.02-1.755c.287-.167.75-.162 1.039.005l3.035 1.752c.289.167.294.432.008.599l-3.02 1.755c-.287.167-.75.167-1.038 0l-3.036-1.752zm27.811-.572c-.288-.167-.286-.437.001-.604l3.02-1.755c.282-.164.746-.164 1.034.003l3.039 1.755c.289.167.29.435.008.599l-3.02 1.755c-.287.167-.754.169-1.043.002l-3.039-1.755zm-20.201-.628c-.293-.169-.29-.44-.004-.606l3.016-1.752c.286-.167.75-.167 1.043.003l3.035 1.752c.288.167.29.435.004.601l-3.016 1.752c-.287.167-.754.169-1.043.002l-3.035-1.752zm8.552-.656c-.289-.167-.29-.44-.003-.607l3.016-1.752c.291-.169.754-.164 1.043.002l3.035 1.752c.288.167.299.435.008.604l-3.016 1.752c-.287.167-.759.167-1.047 0l-3.036-1.751zm-20.976-.923c-.288-.167-.294-.437-.008-.604l3.02-1.755c.286-.167.75-.162 1.038.005l3.039 1.755c.288.167.294.432.008.599l-3.02 1.755c-.286.167-.75.167-1.038 0l-3.039-1.755zm27.812-.571c-.288-.167-.286-.437.001-.604l3.02-1.755c.282-.164.746-.164 1.034.002l3.039 1.755c.289.167.29.435.008.599l-3.02 1.755c-.286.167-.754.169-1.043.002l-3.039-1.754zm-20.206-.632c-.288-.167-.286-.437.001-.604l3.016-1.752c.286-.167.75-.167 1.038 0l3.039 1.755c.288.167.294.437.008.604l-3.016 1.752c-.287.167-.758.167-1.047 0l-3.039-1.755zm8.557-.653c-.289-.167-.286-.438.001-.604l3.016-1.752c.291-.169.75-.167 1.038 0l3.035 1.752c.288.167.299.435.008.604l-3.015 1.752c-.287.167-.759.167-1.047 0l-3.036-1.752zm6.841-1.492c-.288-.167-.29-.44-.004-.606l3.02-1.755c.282-.164.75-.162 1.039.005l3.035 1.752c.288.166.29.435.008.599l-3.02 1.755c-.287.167-.754.169-1.042.002l-3.036-1.752zm-20.207-.631c-.288-.167-.286-.437.001-.604l3.016-1.752c.287-.167.75-.167 1.038 0l3.035 1.752c.288.167.294.437.008.604l-3.015 1.752c-.287.166-.759.166-1.047 0l-3.036-1.752zm29.722.224c-.288-.167-.29-.435-.003-.602l3.396-1.974c.287-.167.75-.167 1.039 0l4 2.309c.288.167.29.435.003.602l-3.396 1.974c-.287.167-.75.167-1.038 0l-4.001-2.309zm-21.169-.88c-.288-.167-.286-.437.001-.604l3.016-1.752c.291-.169.75-.167 1.038 0l3.039 1.755c.288.167.294.432.003.601l-3.015 1.752c-.287.167-.754.169-1.043.003l-3.039-1.755zm6.84-1.492c-.288-.167-.29-.44-.004-.606l3.02-1.755c.282-.164.75-.162 1.038.005l3.039 1.755c.288.167.286.432.003.597l-3.02 1.755c-.287.167-.75.171-1.038.005l-3.038-1.756zm-11.649-1.285c-.288-.167-.29-.44-.003-.607l3.016-1.752c.291-.169.754-.164 1.043.002l3.035 1.752c.288.167.294.432.003.602l-3.016 1.752c-.287.167-.754.169-1.043.003l-3.035-1.752zm6.836-1.494c-.288-.167-.286-.437.001-.604l3.02-1.755c.282-.164.746-.164 1.034.002l3.035 1.752c.293.169.294.437.012.601l-3.02 1.755c-.287.167-.754.169-1.047 0l-3.035-1.751zm-9.622-5.555c-.288-.167-.29-.44-.004-.606l3.02-1.755c.282-.164.75-.162 1.038.005l3.035 1.752c.288.167.29.435.008.599l-3.02 1.755c-.287.167-.754.169-1.043.002l-3.034-1.752zm5.904-2.493c-.288-.167-.294-.437-.008-.604l3.396-1.974c.287-.167.755-.164 1.043.002l20.677 11.938c.288.167.29.435.003.602l-3.396 1.974c-.287.167-.75.167-1.038 0l-20.677-11.938zM1300.152 1330.25c-.288-.167-.294-.437-.008-.604l3.396-1.974c.286-.166.754-.164 1.043.002l3.035 1.752c.288.167.29.435.003.602l-3.396 1.974c-.287.167-.75.167-1.038 0l-3.035-1.752zM1294.977 1327.262c-.289-.167-.29-.435-.004-.602l3.396-1.973c.287-.167.75-.167 1.039 0l3.039 1.755c.288.167.29.435.003.602l-3.396 1.974c-.286.167-.75.167-1.038 0l-3.039-1.756zM1289.806 1324.277c-.288-.167-.29-.435-.003-.601l3.396-1.974c.287-.167.75-.167 1.039 0l3.035 1.752c.288.167.294.438.008.604l-3.396 1.974c-.286.167-.754.164-1.043-.002l-3.036-1.753zM1254.741 1304.032c-.288-.167-.29-.435-.003-.602l3.396-1.974c.287-.167.75-.167 1.039 0l3.995 2.307c.288.167.29.435.003.602l-3.396 1.973c-.286.167-.75.167-1.038 0l-3.996-2.306zm-5.037-2.908c-.288-.167-.294-.438-.008-.604l3.396-1.974c.286-.167.754-.164 1.043.002l3.117 1.8c.288.167.294.438.008.604l-3.396 1.974c-.286.167-.754.164-1.043-.003l-3.117-1.799zM1236.781 1291.413c-.289-.167-.294-.438-.008-.604l1.454-.845c.287-.167.755-.164 1.043.002l3.121 1.802c.288.167.29.435.003.602l-1.454.845c-.287.167-.75.167-1.039 0l-3.12-1.802zM1248.55 1311.8c-.288-.167-.286-.438.001-.604l3.016-1.752c.291-.169.75-.167 1.038 0l3.035 1.752c.288.167.298.435.008.604l-3.016 1.752c-.287.167-.759.167-1.047 0l-3.035-1.752zM1243.737 1309.021c-.288-.167-.286-.438.001-.604l3.015-1.752c.291-.169.75-.167 1.038 0l3.039 1.755c.289.167.294.432.004.602l-3.016 1.752c-.287.167-.754.169-1.043.003l-3.038-1.756zM1245.394 1304.537c-.288-.167-.29-.44-.004-.606l3.02-1.755c.282-.164.75-.162 1.038.005l3.035 1.752c.288.167.29.435.008.599l-3.02 1.755c-.286.167-.754.169-1.043.002l-3.034-1.752zM1238.553 1306.028c-.288-.167-.286-.438.001-.604l3.016-1.752c.291-.169.75-.167 1.038 0l3.035 1.752c.288.167.298.435.008.604l-3.016 1.752c-.286.167-.759.167-1.047 0l-3.035-1.752zm-5.187-2.995c-.288-.167-.286-.438.001-.604l3.016-1.752c.291-.169.75-.167 1.038 0l3.039 1.755c.289.167.294.432.004.601l-3.016 1.752c-.287.167-.754.169-1.043.002l-3.039-1.754zm6.845-1.489c-.288-.167-.29-.44-.004-.606l3.02-1.755c.282-.164.75-.162 1.039.005l3.035 1.752c.288.167.29.435.008.599l-3.02 1.755c-.287.167-.754.169-1.043.002l-3.035-1.752zm6.247-4.543c-.288-.167-.294-.438-.008-.604l1.454-.845c.286-.167.754-.164 1.043.002l3.121 1.802c.288.167.294.438.008.604l-1.454.845c-.286.167-.755.164-1.043-.002l-3.121-1.802zm-16.357-1.452c-.288-.167-.29-.435-.003-.602l3.02-1.755c.286-.167.75-.167 1.038 0l8.468 4.889c.288.167.294.437.008.604l-3.02 1.755c-.287.167-.755.164-1.043-.002l-8.468-4.889zm9.603-.199c-.289-.167-.29-.435-.004-.602l3.396-1.974c.287-.167.75-.167 1.039 0l3.121 1.802c.288.167.294.438.008.604l-3.396 1.974c-.287.167-.754.164-1.043-.002l-3.121-1.802zM1222.477 1307.935c-.289-.167-.29-.435-.004-.601l3.02-1.755c.287-.167.746-.164 1.034.002l3.039 1.755c.289.167.294.432.008.599l-3.02 1.755c-.287.167-.75.167-1.038 0l-3.039-1.755zm7.52-1.253c-.288-.167-.286-.437.001-.604l3.016-1.752c.287-.167.75-.167 1.038 0l3.039 1.755c.289.167.29.435.004.601l-3.016 1.752c-.287.167-.754.169-1.043.002l-3.039-1.754zm-4.809-2.776c-.288-.167-.29-.44-.004-.606l3.016-1.752c.287-.167.754-.164 1.043.002l3.035 1.752c.288.167.29.435.003.601l-3.015 1.752c-.287.167-.754.169-1.043.002l-3.035-1.751zM1242.281 1323.248c-.288-.167-.29-.435-.003-.601l1.411-.82c.291-.169.754-.169 1.043-.003l3.035 1.752c.288.167.294.437.003.606l-1.411.82c-.286.167-.754.164-1.043-.003l-3.035-1.751zM1215.546 1303.933c-.288-.167-.294-.437-.008-.604l3.02-1.755c.287-.167.75-.162 1.039.005l5.239 3.025c.288.167.294.432.008.599l-3.02 1.755c-.287.167-.75.167-1.038 0l-5.24-3.025zM1220.375 1301.127c-.289-.167-.29-.44-.004-.606l3.016-1.752c.287-.167.754-.164 1.043.003l3.035 1.752c.293.169.294.437.008.604l-3.015 1.752c-.287.167-.754.169-1.047 0l-3.036-1.753zM1225.268 1298.358c-.288-.167-.286-.438.001-.604l3.015-1.752c.291-.169.75-.167 1.038 0l6.29 3.631c.288.167.294.432.003.601l-3.016 1.752c-.286.167-.754.169-1.043.003l-6.288-3.631zM1212.197 1305.879c-.288-.167-.294-.438-.008-.604l1.411-.82c.291-.169.759-.167 1.047 0l3.035 1.752c.293.169.294.438.003.607l-1.411.82c-.287.167-.75.167-1.043-.003l-3.034-1.752zM1253.363 1314.578c-.288-.167-.29-.44-.003-.606l3.016-1.752c.291-.169.754-.164 1.043.002l3.035 1.752c.288.167.299.435.008.604l-3.016 1.752c-.287.167-.759.167-1.047 0l-3.036-1.752zM1260.199 1313.085c-.288-.167-.286-.437.001-.604l3.02-1.755c.282-.164.746-.164 1.034.002l3.039 1.755c.288.167.29.435.008.599l-3.02 1.755c-.287.167-.754.169-1.043.002l-3.039-1.754zM1250.577 1307.529c-.288-.167-.29-.44-.004-.606l3.02-1.755c.282-.164.75-.161 1.039.005l3.039 1.755c.288.167.286.432.003.597l-3.02 1.755c-.287.167-.75.171-1.038.005l-3.039-1.756z" class="colore7f1f7 svgShape"/><path fill="#736461" d="m1282.63 1293.678-.17 61.977c-.009.415-.151.707-.386.848l-1.329.773c.236-.142.377-.434.387-.849l.17-61.978c0-.829-.585-1.848-1.31-2.262l-79.934-46.151c-.358-.208-.698-.236-.933-.094l1.329-.773c.236-.132.575-.113.933.094l79.934 46.151c.725.416 1.309 1.435 1.309 2.264z" class="color616173 svgShape"/><path fill="#564a47" d="M1279.995 1292.188c.722.417 1.31 1.435 1.308 2.265l-.176 61.977c-.002.83-.588 1.171-1.31.754l-79.941-46.154c-.722-.417-1.31-1.435-1.308-2.265l.176-61.984c.002-.83.594-1.16 1.316-.743l79.935 46.15z" class="color474756 svgShape"/><path fill="#c5cddd" d="M1234.985 1291.162c-2.686-1.551-4.87-.305-4.878 2.78-.009 3.086 2.161 6.844 4.847 8.395 2.686 1.551 4.87.306 4.878-2.78.008-3.084-2.161-6.844-4.847-8.395z" class="colorc5d4dd svgShape"/><path fill="#f2b4a7" d="m1400.313 1253.307-25.729 5.522-.357 5.143c1.341 8.398 2.342 15.806.422 17.706-3.049 3.007-27.89 18.447-40.505 25.092l-10.546 2.872s-9.07-5.211-10.696-5.174c-1.633.052-7.046-2.765-8.245-3.451-1.199-.687-2.574-2.197-3.155-1.184-.589.991-.191 3.817 1.561 4.87 1.766 1.06 5.613 2.349 6.029 2.58.425.253 1.647 1.547 1.194 1.896-.445.334-2.997 2.199-3.999 2.563-.981.357-20.365 1.706-20.709 1.979-.36.266-1.747 1.572-.334 2.575 1.392 1.011 16.761.861 16.761.861l.087 1.054-16.875 3.063s-1.715.574-1.043 2.389c.665 1.793 18.805-1.892 18.805-1.892l.288.894s-14.898 3.788-15.514 4.333c-.616.544-.226 3.041 2.188 2.558 2.414-.482 16.037-4.485 16.037-4.485l.838.879s-10.657 5.821-11.268 6.277c-1.2.905-.101 2.774 1.165 2.154.564-.279 23.222-9.65 24.808-10.374 1.593-.74 4.433-2.832 4.433-2.832l4.365-.982c.585-.053 1.163-.09 1.756-.121 4.474-.209 58.926-16.71 63.505-30.469 2.368-7.115 4.033-22.643 4.733-36.296z" class="colorf2c0a7 svgShape"/><path fill="#7592d1" d="M1374.451 1256.696c.09-1.833.32-3.658.627-5.468 1.539-9.089 5.055-17.885 10.547-25.288.984-1.326 2.081-2.648 3.57-3.363 1.054-.506 2.234-.672 3.393-.832 1.854-.256 3.731-.512 5.591-.299s3.729.949 4.94 2.376c.874 1.029 1.346 2.339 1.673 3.649a21.02 21.02 0 0 1 .621 4.616c.053 2.37-.296 4.729-.643 7.074l-3.844 25.93c-.479 3.234-.964 6.488-2.012 9.584a127.86 127.86 0 0 0-18.301-7.337c-1.151-.361-2.417-.701-3.635-.628-1.193.071-2.321.999-2.806-.134-.405-.944.229-3.74.232-4.84.003-1.679-.036-3.36.047-5.04z" class="color75d178 svgShape"/><path fill="#fec1b5" d="M810.992 486.696c.147-.745 1.724-5.963 2.238-6.522.514-.56 1.498-.76 2.019-.206.713.757-.378 6.901.013 7.865.345.854.458.727 1.328.426.87-.301 1.519-1.023 2.099-1.738 1.857-2.288 3.507-4.86 6.007-6.42 2.877-1.795 6.466-1.981 9.848-1.733 1.348.099 2.825.324 3.713 1.343.7.802.877 1.96.699 3.01-.178 1.05-.671 2.017-1.187 2.948a50.053 50.053 0 0 1-13.308 15.434c-2.666 2.042-5.712 3.87-9.068 4.009-.913.038-1.904-.082-2.577-.701-.605-.556-.819-1.388-1.344-2.004-.561-.659-1.381-.97-1.997-1.561-.882-.846-.958-1.659-.764-2.818.634-3.79 1.537-7.562 2.281-11.332z" class="colorfed0b5 svgShape"/><path fill="#f4836c" d="M730.307 446.942s13.331 4.808 18.794 19.887c5.463 15.079 18.138 47.859 21.416 47.64 3.278-.219 38.68-19.012 38.68-19.012s8.523 9.397 10.271 8.741c1.748-.656-29.283 39.554-52.229 34.31-22.946-5.245-46.984-77.579-46.766-86.976.218-9.398 9.834-4.59 9.834-4.59z" class="colorf46cb4 svgShape"/><path fill="#564a47" d="M755.681 789.294s11.627 5.116 12.465 9.426c.838 4.31-1.018 8.559-12.45 8.499-11.432-.06-40.341-13.886-41.299-16.879-.958-2.993.936-15.303 2.193-17.398s-1.714 7.283 2.656 10.575c4.369 3.292 22.325 14.365 28.73 13.108 6.403-1.257 9.141-1.884 7.705-7.331zm-30.692 30.22c.575.516 1.172 1.042 1.52 1.732.368.728.425 1.572.4 2.386-.036 1.194-.251 2.429-.94 3.405-1.176 1.668-3.387 2.175-5.401 2.511-4.024.671-8.198 1.156-12.145.123-2.783-.728-5.315-2.175-7.806-3.613-2.054-1.185-4.124-2.386-5.882-3.977-2.007-1.817-3.544-4.084-5.298-6.146-1.754-2.063-4.765-2.641-6.43-4.776-3.542-4.543 1.018-12.1 2.553-17.652.956 4.629 1.653 9.872 4.553 13.604 1.56 2.008 3.519 3.667 5.507 5.253 1.611 1.284 3.258 2.535 5.042 3.565a24.643 24.643 0 0 0 4.335 1.971c2.742.938 5.788 1.375 8.521.409 1.792-.634 3.386-1.976 4.222-3.694.438-.899-1.177-3.904-.203-3.011.893.819 3.497 4.123 4.357 4.982a82.28 82.28 0 0 0 3.095 2.928z" class="color474756 svgShape"/><path fill="#f2b4a7" d="M756.922 790.041s1.674 4.12 0 5.021c-1.674.901-12.231 3.862-19.312 0-7.081-3.862-19.312-7.081-20.47-14.419s0-12.875-.772-16.737c-.772-3.862-10.686-48.408-8.883-59.995 1.802-11.587 9.785-41.713 10.042-42.228s21.629 9.012 21.629 9.012-1.803 73.513-3.862 81.109c-2.06 7.596-1.545 19.312 1.674 23.818 3.217 4.506 19.954 14.419 19.954 14.419z" class="colorf2c0a7 svgShape"/><path fill="#fec1b5" d="M718.065 812.865s1.639 2.307-1.366 4.219-10.105 4.233-16.933 0c-6.828-4.233-14.202-15.841-14.202-20.757 0-4.916.136-6.691-1.775-9.696-1.912-3.004-8.467-41.377-9.149-45.474-.683-4.097-1.639-41.923 0-47.386 1.639-5.462-1.263-20.757-.905-24.171.359-3.414 32.45 6.145 32.996 8.876.546 2.731-5.053 30.589-5.053 37.28 0 6.691-2.458 48.205-1.775 57.764.683 9.559-.956 13.383 1.502 16.933 2.458 3.553 16.255 21.361 16.66 22.412z" class="colorfed0b5 svgShape"/><path fill="#564a47" d="M741.887 575.209s3.765 6.485 3.138 26.567c-.628 20.082-.418 64.221-3.138 69.032-2.719 4.811-29.902 25.841-71.159 12.839 0 0 .034-40.442-2.685-49.442s-4.602-41.215-1.464-50.419c3.138-9.205 74.89-13.179 75.308-8.577z" class="color474756 svgShape"/><path fill="#ff917b" d="M676.221 549.347c-3.612 12.552-11.841 28.597-11.841 32.861 0 5.209 12.492 12.966 18.591 15.51 5.98 2.608 14.624.474 35.583-3.848 20.9-4.322 23.505-18.591 23.505-18.591-4.855-5.03-7.637-38.247-8.526-50.976 0-.118-.059-.237 0-.356-.059-.176-.059-.353-.059-.532-.059-.888 0-2.605.119-4.203.059-1.243.177-2.428.296-3.197.059-.413.119-.769.178-.83.177-.237 1.184-2.249 1.48-2.31.888-.295 1.717-.65 2.487-1.064 13.736-7.282 6.157-29.366 2.546-34.755-3.908-5.86-11.012-30.372-11.012-30.372-3.197-1.006-6.276-1.775-9.236-2.31-16.4-3.137-29.129-.237-38.425 4.322-13.085 6.453-19.242 16.105-19.242 16.105s5.624 23.09 12.078 34.752c1.421 2.489 2.368 5.331 3.079 8.291.533 2.191.888 4.559 1.125 6.869.177 1.656.237 3.313.237 4.912.059.711.059 1.362.059 2.015v3.313c-.178 6.158-.888 12.197-1.48 17.348-.059.535-.119 1.067-.296 1.657a58.206 58.206 0 0 1-1.246 5.389z" class="colorff7bba svgShape"/><path fill="#f4836c" d="m675.984 552.961.651.295c5.743-9.118 20.663-20.13 32.919-24.214 5.506-1.954 17.111-3.851 23.978-5.094-.059-.176-.059-.353-.059-.532-.059-.888 0-2.605.119-4.203.059-1.243.177-2.429.296-3.198-18.847-5.966-17.289-1.875-44.346 11.428-4.497 2.211-8.111-.772-10.302-3.848v1.359c-.178 6.158-.888 12.197-1.48 17.348-.059.535-.119 1.067-.296 1.657a57.19 57.19 0 0 1-1.243 5.389c0 .653-.059 1.304-.059 1.954-.06.531-.06 1.066-.178 1.659z" class="colorf46cb4 svgShape"/><path fill="#ffa08d" d="M685.213 596.24c-3.982-16.973-9.748-43.138-9.756-52.468-.013-14.236 10.721-54.881 10.721-54.881s-4.099-32.222-18.876-27.979c-14.778 4.243-15.296 69.842-14.558 72.22.532 1.71 6.523 38.691 14.539 63.109h17.93z" class="colorff8dc4 svgShape"/><path fill="#f2b4a7" d="M686.174 438.251c.114 1.376.33 2.766.759 4.07.215.645.502 1.361.86 2.064 0 0 .014 0 0 .014 1.003 2.924 2.709 5.833 5.03 8.441 7.309 8.198 17.441 16.009 23.518 10.577 4.744-4.242 5.919-17.413 2.436-24.45-.689-3.939-4.902-6.822-5.518-9.817-.301-1.491-.731-3.024-1.677-4.228-.602-.759-1.376-1.361-2.178-1.906-1.562-1.075-3.225-1.978-4.873-2.894-1.405-.774-2.823-1.548-4.357-1.992-2.035-.573-4.199-.545-6.306-.502l-4.299.086c-.272 0-.559.014-.76.186-.215.172-.286.473-.33.745a548.458 548.458 0 0 0-.888 4.815c-.902 4.887-1.819 9.831-1.417 14.791z" class="colorf2c0a7 svgShape"/><path fill="#fec1b5" d="M727.151 387.597c1.597.752 16.308 29.504-6.1 56.763-10.243 12.462-39.897-10.726-39.472-23.446.425-12.72-.117-54.829 45.572-33.317z" class="colorfed0b5 svgShape"/><path fill="#564a47" d="M726.605 451.052c3.413 1.885 7.975 1.532 11.465 3.262 2.026.997 5.362 2.302 6.624 4.156-1.106-3.163-3.757-6.088-5.175-9.126-1.356-2.898-3.487-4.648-4.11-7.78-.374-1.87-.421-3.77-.405-5.672a82.85 82.85 0 0 1 2.493-19.258c.67-2.68 1.496-5.376 1.589-8.149.062-1.683-.156-3.366-.358-5.033-.218-1.76-.452-3.521-.67-5.282-.125-1.06-3.648-13.923-4.069-14.905-.483-1.137-2.892-.368-3.515 1.767-.327 1.106-1.89 3.649-1.843 4.832.078 1.449-.216 10.222-.2 11.656.047 5.797 4.999 11.328 4.142 17.047-.327 2.228-.732 4.471-1.496 6.59-1.433 3.942-3.887 10.012-6.566 13.252-1.496 1.776-3.07 3.662-3.459 5.952-.655 3.847 2.141 4.79 5.553 6.691z" class="color474756 svgShape"/><path fill="#c5d7ff" d="m812.386 460.517 30.703-12.314 13.615-5.46-7.599 12.304-17.764 28.648 1.273-10.312-9.479-11.589z" class="colorffdcc5 svgShape"/><path fill="#ff8066" d="m811.118 470.813 1.275-10.308 10.75 1.284 9.465 11.603-1.288 10.303-10.75-1.285z" class="colorff6c85 svgShape"/><path fill="#3764c7" d="m663.559 617.583 169.08-144.203-1.288 10.304-169.08 144.203z" class="color3765c7 svgShape"/><path fill="#2553b8" d="m654.094 605.981 169.08-144.203 9.465 11.602-169.08 144.203z" class="color255bb8 svgShape"/><path fill="#1343ab" d="m643.344 604.696 169.08-144.203 10.75 1.285-169.08 144.203z" class="color1352ab svgShape"/><path fill="#ff9c88" d="m642.07 615.005 1.274-10.309 10.75 1.285 9.465 11.602-1.288 10.304-10.75-1.285z" class="colorffe088 svgShape"/><path fill="#fd7154" d="m645.255 633.19 18.313-15.626-1.288 10.304-18.312 15.626z" class="colorfd546b svgShape"/><path fill="#ea5a3d" d="m635.79 621.588 18.313-15.626 9.465 11.602-18.313 15.626z" class="colorea3d5b svgShape"/><path fill="#e24829" d="m625.04 620.303 18.313-15.626 10.75 1.285-18.313 15.626z" class="colore22951 svgShape"/><path fill="#ff8066" d="m623.766 630.611 1.274-10.308 10.75 1.285 9.465 11.602-1.287 10.304-10.751-1.285z" class="colorff6c85 svgShape"/><path fill="#736461" d="m661.25 619.546 6.019-5.148-1.287 10.304-6.02 5.148z" class="color616173 svgShape"/><path fill="#5e4f4c" d="m651.785 607.944 6.019-5.148 9.465 11.602-6.019 5.148z" class="color4c4c5e svgShape"/><path fill="#564a47" d="m641.035 606.659 6.019-5.148 10.75 1.285-6.019 5.148zM843.089 448.203l13.615-5.46-7.599 12.304a13.946 13.946 0 0 1-3.708-3.068 13.864 13.864 0 0 1-2.308-3.776z" class="color474756 svgShape"/><path fill="#c5d7ff" d="m857.7 438.061.932-.797-.932.797-.932.797.932-.797z" class="colorffdcc5 svgShape"/><path fill="#564a47" d="m551.642 898.01-44.758-26.011-45.005 25.984 44.758 26.01zM603.111 868.467l-44.757-26.01-45.005 25.983 44.757 26.011zM654.581 838.925l-44.757-26.011-45.005 25.984 44.757 26.01z" class="color474756 svgShape"/><path fill="#1343ab" d="m575.317 796.316.117 41.269 35.394 20.569-.117-41.269z" class="color1352ab svgShape"/><path fill="#2553b8" d="m610.711 816.885.117 41.269 35.626-20.569-.117-41.268z" class="color255bb8 svgShape"/><path fill="#3764c7" d="m575.317 796.316 35.394 20.569 35.626-20.568-35.394-20.569z" class="color3765c7 svgShape"/><path fill="#ff5b39" d="m523.283 826.358.117 41.268 35.394 20.569-.117-41.268z" class="colorffb839 svgShape"/><path fill="#ff6e50" d="m558.677 846.927.117 41.268 35.626-20.568-.117-41.269z" class="colorffc950 svgShape"/><path fill="#ff9c88" d="m523.283 826.358 35.394 20.569 35.626-20.569-35.394-20.569z" class="colorffe088 svgShape"/><path fill="#e24829" d="m471.25 856.399.117 41.269 35.394 20.569-.117-41.269z" class="colore22951 svgShape"/><path fill="#ea5a3d" d="m506.644 876.968.117 41.269 35.625-20.569-.117-41.268z" class="colorea3d5b svgShape"/><path fill="#fd7154" d="m471.25 856.399 35.394 20.569 35.625-20.568-35.394-20.569z" class="colorfd546b svgShape"/><path fill="#7592d1" d="M406.987 601.876c4.847-2.597 13.833-4.348 21.835-11.915-.094-.137 7.331-2.935 7.737-.442.069 2.43-7.536 7.376-16.755 10.266.142-.223 8.574 1.403 11.029 1.676 2.749-.165 9.262-.646 13.481-8.318 4.642-8.009 11.677 1.719 10.164 2.848-1.184 1.108-8.566 6.113-15.912 7.47.33-.209 8.114 4.753 11.216 2.815 3.371-2.343 8.87-.939 11.16-10.172-.142.056 2.948-3.937 8.009 2.488 3.885 5.822-14.619 9.328-13.818 10.307.3-.098 6.525 5.303 13.617 1.544 7.441-3.785 8.495-8.476 12.239-5.831 4.012 3.303-.603 8.31-11.579 10.498.317-1.473 15.065 12.091 22.066 5.141.009.047 1.704-4.694-.237-9.062-.003-.002-.003-.005-.005-.01a9.087 9.087 0 0 0-.605-1.148c-.006-.002-.008-.011-.011-.016a7.564 7.564 0 0 0-.231-.351s.011-.003.037.002c.294.003 2.349.042 4.548-.614 3.887-.915 10.057-6.154-1.335-20.632-19.342-21.323-38.97-21.895-38.249-22.285 1.289-1.111 24.851 16.875 14.155 15.396-8.491-1.888-21.052-16.21-26.41-15.945-4.818-1.073-26.35 6.191-26.782 9.217-.011-.715 19.132-3.375 24.631-3.13 5.638-.784 13.182 2.344 10.989 4.642-2.105 2.26-7.791 2.177-13.972 1.127-5.861-1.417-20.522-2.989-29.525 4.799-8.355 7.655-1.943 6.974-2.123 6.938-.222-.336 12.162-8.03 17.98-8.769 5.601-1.253 9.955-.369 9.344 1.223-.65 1.606-4.464 5.165-8.031 5.502-3.394-.1-16.796.645-22.603 8.362-.195.1-.624 8.855 3.946 6.379z" class="color75d178 svgShape"/><path fill="#7592d1" d="M444.689 587.18c22.09-4.371 40.964 11.964 45.735 22.486.294.003 2.349.042 4.548-.614-11.294-18.626-26.746-23.118-36.162-23.936-9.939-.671-13.843 2.332-14.121 2.064z" class="color75d178 svgShape"/><path fill="#c5cddd" d="M560.295 694.963c-.808 18.595-4.951 37.079-12.456 54.466a152.84 152.84 0 0 1-9.272 18.093c-10.524 17.552-36.027 17.553-46.553.003-13.399-22.341-20.638-47.346-21.728-72.562h90.009z" class="colorc5d4dd svgShape"/><ellipse cx="515.292" cy="693.344" fill="#e7ecf7" class="colore7f1f7 svgShape" rx="26.068" ry="45.004" transform="rotate(-89.84 515.271 693.338)"/><path fill="#cfd7e8" d="M545.228 675.946c-16.645-9.61-43.535-9.606-60.067.002-10.489 6.096-14.291 14.593-11.415 22.445 1.638-4.469 5.441-8.718 11.415-12.189 16.532-9.606 43.422-9.61 60.067 0 6.083 3.512 9.953 7.822 11.608 12.347 2.896-7.895-.981-16.468-11.608-22.605z" class="colorcfdee8 svgShape"/><path fill="#aa6c5f" d="M545.228 686.205c-16.645-9.61-43.535-9.606-60.067 0-5.974 3.471-9.777 7.72-11.415 12.189 1.655 4.523 5.525 8.833 11.61 12.345 16.64 9.608 43.535 9.608 60.067 0 5.972-3.471 9.775-7.721 11.413-12.187-1.655-4.525-5.525-8.835-11.608-12.347z" class="coloraa6b5f svgShape"/><path fill="#7c9bdf" d="M514.64 704.447c.685-13.788.764-27.617.237-41.432a469.392 469.392 0 0 0-3.404-41.357c-1.719-13.731-4.286-27.413-5.82-41.259-.766-6.919-1.272-13.878-1.26-20.842.01-6.96.547-13.926 1.834-20.754-1.051 6.868-1.345 13.823-1.118 20.743.227 6.924.966 13.818 1.964 20.671 1.998 13.71 5.027 27.264 7.235 41.031a473.33 473.33 0 0 1 4.859 41.529 477.341 477.341 0 0 1 1.199 41.858c-1.83 1.82-3.752 1.463-5.726-.188z" class="color7cdf82 svgShape"/><path fill="#7592d1" d="m520.809 701.109-4.314-80.987c-.709-13.487-1.538-27.042-1.064-40.605.239-6.776.808-13.549 1.901-20.238 1.091-6.687 2.714-13.29 5.013-19.648-2.073 6.436-3.454 13.068-4.304 19.751-.851 6.687-1.178 13.426-1.177 20.16.005 13.477 1.303 26.911 2.49 40.377l7.172 80.784c-.336 2.056-5.153 1.684-5.717.406zm-25.456-4.015c2.279-9.592 2.988-19.602 2.135-29.51a94.682 94.682 0 0 0-2.446-14.727l-.459-1.815c-.152-.606-.346-1.199-.517-1.799l-.529-1.797c-.184-.597-.395-1.184-.592-1.778l-.6-1.777-.666-1.753-.67-1.753-.723-1.735c-3.948-9.235-9.26-18.008-13.224-27.463-1.974-4.724-3.587-9.623-4.495-14.666-.908-5.031-1.073-10.228-.109-15.231-.726 5.043-.315 10.172.811 15.089 1.128 4.927 2.941 9.668 5.101 14.225 4.337 9.13 10.022 17.579 14.523 26.857l.827 1.749.777 1.775.773 1.778.706 1.806c.232.604.479 1.202.698 1.81l.635 1.834c.206.613.436 1.22.623 1.839l.564 1.858a98.582 98.582 0 0 1 3.264 15.204c1.376 10.303 1.14 20.865-.802 31.172-2.333.721-4.146.19-5.605-1.192zm14.685 3.017c.378-3.403.568-6.836.584-10.284a118.924 118.924 0 0 0-.536-10.366 155.496 155.496 0 0 0-1.434-10.354 220.725 220.725 0 0 0-2.105-10.303c-3.152-13.702-7.549-27.231-10.792-41.123a226.771 226.771 0 0 1-2.179-10.482 159.772 159.772 0 0 1-1.508-10.614 120.871 120.871 0 0 1-.589-10.714c.017-3.58.208-7.156.609-10.709.447-3.548 1.072-7.071 1.948-10.534.917-3.452 2.035-6.848 3.433-10.129 1.439-3.263 3.117-6.414 5.073-9.388a57.201 57.201 0 0 1 6.78-8.196 57.024 57.024 0 0 0-6.479 8.39c-1.843 3.018-3.399 6.195-4.711 9.466-1.273 3.29-2.262 6.677-3.051 10.106-.748 3.441-1.245 6.928-1.567 10.428a98.188 98.188 0 0 0-.244 10.531c.148 3.507.475 7.009.932 10.493.49 3.481 1.111 6.943 1.834 10.386.745 3.44 1.588 6.859 2.497 10.265 3.664 13.621 8.503 26.955 12.184 40.785a224.731 224.731 0 0 1 2.506 10.458 159.856 159.856 0 0 1 1.843 10.656c.46 3.589.782 7.206.927 10.846.107 3.642.029 7.3-.254 10.957-2.112.692-4.067.724-5.701-.571z" class="color75d178 svgShape"/><path fill="#7592d1" d="M524.03 699.619a3174.997 3174.997 0 0 1 3.547-40.889 2647.987 2647.987 0 0 1 4.098-40.827c1.486-13.597 3.082-27.184 4.989-40.731.958-6.773 1.995-13.536 3.232-20.266.624-3.364 1.299-6.72 2.102-10.047.411-1.661.836-3.32 1.36-4.95.121-.41.266-.813.407-1.218l.213-.605.239-.596c.081-.198.155-.399.242-.594l.274-.58c.167-.394.41-.751.617-1.123-.195.381-.423.742-.577 1.142l-.253.587c-.08.197-.147.401-.221.6l-.216.602-.191.61c-.126.407-.257.813-.363 1.226-.465 1.641-.831 3.309-1.182 4.977-.684 3.343-1.24 6.711-1.745 10.086-.999 6.753-1.798 13.535-2.517 20.324-1.43 13.581-2.548 27.195-3.557 40.816a2634.397 2634.397 0 0 0-2.666 40.89 3169.414 3169.414 0 0 0-2.112 40.912c-2.156 1.52-3.98.861-5.72-.346z" class="color75d178 svgShape"/><path fill="#7592d1" d="M618.948 646.9c-4.44-3.245-13.095-6.227-19.968-14.832.112-.123-6.852-3.925-7.6-1.512-.406 2.397 6.438 8.351 15.167 12.494-.109-.24-8.686.198-11.155.128-2.699-.546-9.082-1.926-12.195-10.109-3.485-8.576-11.802.081-10.461 1.409 1.018 1.262 7.634 7.244 14.72 9.608-.298-.253-8.696 3.58-11.498 1.23-3.013-2.789-8.653-2.162-9.639-11.624.133.075-2.372-4.308-8.277 1.352-4.656 5.225 13.181 11.268 12.252 12.126-.283-.138-7.198 4.346-13.699-.362-6.843-4.782-7.235-9.574-11.31-7.474-4.432 2.714-.557 8.313 10.008 12.004-.109-1.503-16.598 9.881-22.566 2.026-.015.046-1.035-4.885 1.493-8.942.003-.001.003-.004.006-.01.224-.363.476-.714.758-1.053.006-.002.01-.009.01-.009.094-.113.184-.215.281-.321 0 .002-.011-.004-.037-.003-.292-.038-2.332-.285-4.419-1.239-3.723-1.446-9.105-7.492 4.188-20.247 22.116-18.43 41.634-16.27 40.974-16.756-1.122-1.279-26.954 13.26-16.157 13.281 8.671-.69 23.1-13.129 28.369-12.122 4.92-.393 25.235 9.792 25.242 12.848.111-.706-18.477-6-23.957-6.521-5.474-1.56-13.38.491-11.527 3.071 1.77 2.531 7.413 3.238 13.68 3.057 6-.59 20.738-.11 28.572 8.853 7.211 8.741.955 7.176 1.139 7.165.267-.302-10.929-9.642-16.587-11.182-5.373-2.019-9.807-1.748-9.423-.086.42 1.681 3.703 5.734 7.189 6.565 3.375.372 16.544 2.972 21.223 11.42.177.124-.614 8.854-4.796 5.767z" class="color75d178 svgShape"/><path fill="#7c9bdf" d="M583.654 627.109c-21.268-7.396-42.229 6.158-48.415 15.915-.292-.038-2.332-.285-4.419-1.239 13.771-16.877 29.698-19.179 39.136-18.681 9.936.716 13.385 4.232 13.698 4.005z" class="color7cdf82 svgShape"/><path fill="#94b0ed" d="M590.553 556.152c-5.412.973-13.544 5.177-24.515 4.21-.011-.166-7.57 2.249-6.34 4.456 1.454 1.948 10.487 1.106 19.509-2.35-.249-.087-5.852 6.422-7.607 8.159-2.258 1.576-7.663 5.242-15.732 1.846-8.611-3.398-8.088 8.595-6.201 8.541 1.616.135 10.511-.524 17.112-4.019-.389.041-3.412 8.763-7.047 9.169-4.098.256-7.537 4.769-15.064-1.049.146-.044-4.755-1.257-4.736 6.922.567 6.976 17.252-1.76 17.231-.495-.296.109-1.824 8.208-9.718 9.663-8.183 1.65-11.921-1.373-13.215 3.025-1.095 5.08 5.631 6.141 15.594 1.044-1.163-.959-4.307 18.831-14.11 17.726.022.043-4.249-2.623-5.439-7.252l-.003-.011a9.074 9.074 0 0 1-.238-1.276c.003-.006 0-.014-.001-.019a9.32 9.32 0 0 1-.037-.419c.002.001-.01.005-.028.025-.229.185-1.816 1.491-3.947 2.342-3.616 1.695-11.705 1.417-11.759-17.005 1.93-28.724 16.965-41.355 16.158-41.213-1.7-.071-9.011 28.656-1.543 20.858 5.486-6.751 6.445-25.777 10.81-28.894 3.112-3.832 24.503-11.5 26.72-9.396-.435-.567-17.095 9.228-21.255 12.833-4.908 2.884-8.88 10.02-5.735 10.46 3.053.466 7.46-3.129 11.655-7.788 3.715-4.749 14.235-15.081 26.128-14.563 11.302.816 5.852 4.262 5.971 4.122-.034-.401-14.52 1.253-19.54 4.284-5.169 2.494-8.034 5.889-6.567 6.759 1.506.856 6.705 1.279 9.712-.67 2.599-2.185 13.57-9.919 22.912-7.473.215-.045 5.986 6.553.865 7.448z" class="color94ed96 svgShape"/><path fill="#7c9bdf" d="M551.871 568.03c-20.032 10.284-24.692 34.807-21.903 46.017-.229.185-1.816 1.491-3.947 2.342-2.706-21.614 6.622-34.727 13.497-41.212 7.377-6.696 12.301-6.764 12.353-7.147z" class="color7cdf82 svgShape"/><path fill="#94b0ed" d="M461.197 589.254c5.412.973 13.544 5.177 24.515 4.21.011-.166 7.57 2.249 6.34 4.456-1.454 1.948-10.487 1.106-19.509-2.35.249-.087 5.852 6.422 7.607 8.159 2.258 1.576 7.663 5.242 15.732 1.846 8.611-3.398 8.088 8.595 6.201 8.541-1.616.135-10.511-.524-17.112-4.019.389.041 3.412 8.763 7.047 9.169 4.098.255 7.537 4.769 15.064-1.049-.146-.044 4.755-1.257 4.735 6.922-.567 6.976-17.252-1.76-17.231-.495.296.109 1.824 8.208 9.718 9.663 8.184 1.65 11.921-1.373 13.215 3.025 1.095 5.08-5.631 6.141-15.594 1.044 1.163-.958 4.307 18.831 14.11 17.726-.022.043 4.249-2.623 5.439-7.252-.001-.003.001-.005.003-.011.108-.412.188-.837.238-1.276-.003-.006 0-.014.001-.019a9.32 9.32 0 0 0 .037-.419c-.002.001.01.005.028.025.229.185 1.816 1.49 3.947 2.342 3.616 1.695 11.705 1.417 11.759-17.005-1.93-28.724-16.965-41.355-16.158-41.213 1.7-.071 9.011 28.656 1.543 20.857-5.486-6.751-6.445-25.777-10.81-28.894-3.112-3.832-24.503-11.501-26.72-9.396.435-.567 17.095 9.228 21.255 12.833 4.908 2.884 8.88 10.02 5.735 10.46-3.053.466-7.46-3.129-11.655-7.788-3.715-4.749-14.235-15.081-26.128-14.563-11.302.816-5.852 4.262-5.971 4.122.034-.401 14.52 1.252 19.54 4.284 5.169 2.494 8.034 5.89 6.567 6.759-1.506.856-6.705 1.279-9.712-.67-2.599-2.185-13.57-9.919-22.912-7.473-.213-.044-5.984 6.554-.864 7.449z" class="color94ed96 svgShape"/><path fill="#7c9bdf" d="M499.879 601.132c20.032 10.284 24.693 34.807 21.903 46.017.229.185 1.816 1.49 3.947 2.342 2.706-21.614-6.622-34.727-13.497-41.212-7.376-6.696-12.301-6.764-12.353-7.147z" class="color7cdf82 svgShape"/><path fill="#acc4f9" d="M570.515 522.174c-5.412.973-13.544 5.177-24.515 4.21-.011-.166-7.57 2.249-6.34 4.456 1.454 1.948 10.487 1.106 19.509-2.35-.249-.087-5.852 6.422-7.607 8.159-2.258 1.576-7.663 5.242-15.732 1.846-8.611-3.398-8.088 8.595-6.201 8.541 1.616.135 10.511-.524 17.112-4.019-.389.041-3.412 8.763-7.047 9.169-4.098.255-7.537 4.769-15.064-1.049.146-.044-4.755-1.257-4.735 6.922.567 6.976 17.252-1.76 17.232-.495-.296.109-1.824 8.208-9.718 9.663-8.183 1.65-11.921-1.373-13.215 3.025-1.095 5.08 5.631 6.141 15.594 1.044-1.163-.959-4.307 18.831-14.11 17.726.022.043-4.249-2.623-5.439-7.252l-.003-.011a9.074 9.074 0 0 1-.238-1.276c.003-.006 0-.013-.001-.019a9.32 9.32 0 0 1-.037-.419s-.01.005-.028.025c-.229.185-1.816 1.49-3.947 2.342-3.616 1.695-11.705 1.417-11.759-17.005 1.931-28.724 16.965-41.355 16.158-41.213-1.7-.071-9.011 28.656-1.543 20.858 5.486-6.751 6.445-25.777 10.81-28.894 3.112-3.832 24.503-11.501 26.72-9.396-.435-.567-17.095 9.228-21.255 12.833-4.908 2.884-8.88 10.02-5.735 10.46 3.053.466 7.46-3.129 11.655-7.788 3.715-4.749 14.235-15.081 26.128-14.563 11.302.816 5.852 4.262 5.971 4.121-.034-.401-14.52 1.253-19.54 4.284-5.169 2.494-8.034 5.89-6.567 6.759 1.506.856 6.705 1.279 9.712-.67 2.599-2.185 13.57-9.919 22.912-7.473.212-.044 5.983 6.554.863 7.449z" class="coloracf9ac svgShape"/><path fill="#94b0ed" d="M531.833 534.052c-20.032 10.284-24.693 34.807-21.902 46.017-.229.185-1.816 1.49-3.947 2.342-2.706-21.614 6.622-34.727 13.497-41.212 7.375-6.696 12.3-6.764 12.352-7.147z" class="color94ed96 svgShape"/><path fill="#94b0ed" d="M427.518 527.972c5.467.592 13.873 4.217 24.749 2.486 0-.166 7.709 1.714 6.636 4.002-1.314 2.045-10.384 1.836-19.626-.981.243-.104 6.286 5.997 8.159 7.608 2.362 1.415 8.01 4.694 15.823.741 8.352-3.992 8.669 8.009 6.783 8.087-1.602.247-10.522.212-17.351-2.813.391.013 4.016 8.503 7.671 8.654 4.105-.031 7.852 4.231 14.953-2.099-.149-.034 4.655-1.587 5.208 6.574-.078 6.999-17.333-.55-17.224.711.302.089 2.393 8.06 10.37 8.96 8.279 1.074 11.796-2.203 13.394 2.094 1.448 4.991-5.188 6.52-15.483 2.132 1.093-1.037 5.613 18.484 15.315 16.697-.019.044 4.056-2.914 4.919-7.615l.002-.011c.079-.419.129-.848.149-1.289-.004-.005-.001-.013 0-.019.007-.141.008-.276.008-.42 0 0 .011.004.03.023.242.168 1.916 1.36 4.101 2.06 3.725 1.439 11.776.595 10.542-17.786-3.934-28.519-19.814-40.068-18.999-39.983 1.691-.189 10.992 27.956 2.997 20.699-5.944-6.351-8.231-25.263-12.804-28.068-3.372-3.605-25.247-9.76-27.311-7.506.394-.596 17.698 8.011 22.1 11.316 5.097 2.534 9.559 9.374 6.452 10.034-3.013.678-7.661-2.6-12.171-6.955-4.038-4.477-15.254-14.049-27.082-12.701-11.217 1.604-5.539 4.661-5.668 4.529.006-.403 14.572.234 19.792 2.908 5.331 2.127 8.427 5.313 7.023 6.283-1.443.959-6.599 1.745-9.735.01-2.745-1.998-14.23-8.946-23.379-5.853-.218-.029-5.513 6.956-.343 7.491z" class="color94ed96 svgShape"/><path fill="#7c9bdf" d="M466.935 537.118c20.702 8.858 27.065 32.995 25.066 44.374.242.168 1.916 1.36 4.101 2.06 1.188-21.75-9.033-34.179-16.344-40.168-7.826-6.165-12.744-5.888-12.823-6.266z" class="color7cdf82 svgShape"/><path fill="#acc4f9" d="M608.473 601.876c-4.847-2.597-13.833-4.348-21.835-11.915.094-.137-7.331-2.935-7.737-.442-.069 2.43 7.536 7.376 16.755 10.266-.142-.223-8.574 1.403-11.029 1.676-2.749-.165-9.262-.646-13.481-8.318-4.642-8.009-11.676 1.719-10.163 2.848 1.183 1.108 8.566 6.113 15.912 7.47-.33-.209-8.114 4.753-11.216 2.815-3.371-2.343-8.87-.939-11.16-10.172.142.056-2.947-3.937-8.009 2.488-3.885 5.822 14.619 9.328 13.818 10.307-.3-.098-6.525 5.303-13.617 1.544-7.441-3.785-8.495-8.476-12.239-5.831-4.012 3.303.603 8.31 11.579 10.498-.317-1.473-15.065 12.091-22.066 5.141-.009.047-1.704-4.694.237-9.062.003-.002.003-.005.005-.01.171-.39.372-.773.605-1.148.006-.002.008-.011.011-.016.074-.12.149-.233.231-.351 0 0-.011-.003-.037.002-.294.003-2.349.042-4.548-.614-3.887-.915-10.057-6.154 1.335-20.632 19.342-21.323 38.97-21.895 38.249-22.285-1.289-1.111-24.851 16.875-14.155 15.396 8.492-1.888 21.052-16.21 26.41-15.945 4.818-1.073 26.35 6.191 26.782 9.217.011-.715-19.132-3.375-24.631-3.13-5.638-.784-13.182 2.344-10.989 4.642 2.105 2.26 7.791 2.177 13.972 1.127 5.861-1.417 20.522-2.989 29.525 4.799 8.355 7.655 1.943 6.974 2.123 6.938.222-.336-12.162-8.03-17.98-8.769-5.601-1.253-9.955-.369-9.344 1.223.65 1.606 4.464 5.165 8.031 5.502 3.394-.1 16.796.645 22.603 8.362.194.1.623 8.855-3.947 6.379z" class="coloracf9ac svgShape"/><path fill="#94b0ed" d="M570.771 587.18c-22.09-4.371-40.964 11.964-45.735 22.486-.294.003-2.349.042-4.548-.614 11.294-18.626 26.746-23.118 36.162-23.936 9.939-.671 13.843 2.332 14.121 2.064z" class="color94ed96 svgShape"/><path fill="#acc4f9" d="M443.24 685.288c1.531-5.281 6.56-12.931 6.742-23.943-.164-.029 3.026-7.294 5.092-5.841 1.786 1.649.007 10.545-4.371 19.158-.06-.257 6.997-5.151 8.908-6.715 1.803-2.081 6.012-7.075 3.475-15.454-2.482-8.918 9.392-7.148 9.141-5.277-.035 1.621-1.616 10.399-5.781 16.6.081-.383 9.071-2.48 9.853-6.053.681-4.049 5.529-6.999.527-15.091-.059.141-.755-4.86 7.378-3.988 6.879 1.291-3.548 16.974-2.288 17.086.14-.283 8.353-.959 10.623-8.658 2.494-7.967-.123-12 4.386-12.828 5.167-.56 5.521 6.24-.587 15.618-.832-1.257 19.177-2.321 19.1-12.186.04.027-2.166-4.5-6.646-6.165l-.011-.004a9.09 9.09 0 0 0-1.244-.37c-.006.003-.013-.001-.019-.003a7.73 7.73 0 0 0-.413-.08s.006-.01.027-.025c.208-.209 1.672-1.651 2.74-3.681 2.063-3.419 2.629-11.494-15.687-13.467-28.769-1.074-42.898 12.562-42.673 11.775.107-1.699 29.439-5.975 20.905.64-7.286 4.753-26.308 3.723-29.863 7.74-4.135 2.695-13.992 23.171-12.13 25.595-.519-.491 10.96-16.041 14.979-19.802 3.38-4.58 10.891-7.788 11.001-4.613.145 3.085-3.889 7.093-8.96 10.779-5.11 3.2-16.483 12.585-17.207 24.468-.366 11.326 3.629 6.264 3.477 6.368-.396-.076 2.759-14.31 6.297-18.987 3.019-4.881 6.695-7.377 7.406-5.827.695 1.587.573 6.802-1.679 9.589-2.444 2.357-11.28 12.462-9.82 22.009-.062.205 5.898 6.632 7.322 1.633z" class="coloracf9ac svgShape"/><path fill="#94b0ed" d="M459.085 648.055c12.316-18.852 37.19-20.93 48.049-16.987.208-.209 1.672-1.651 2.74-3.681-21.214-4.944-35.228 2.966-42.395 9.128-7.427 6.637-8.008 11.528-8.394 11.54z" class="color94ed96 svgShape"/><path fill="#564a47" d="m1037.519 1402.165-.278 59.718c-.029 10.23-6.735 20.449-20.166 28.255-27.057 15.724-71.129 15.67-98.27 0-13.706-7.913-20.55-18.294-20.521-28.659l.278-59.718c-.029 10.365 6.815 20.746 20.521 28.659 27.141 15.67 71.213 15.723 98.27 0 13.431-7.806 20.137-18.025 20.166-28.255z" class="color474756 svgShape"/><path fill="#1343ab" d="M1017.032 1373.498c27.141 15.67 27.382 41.195.32 56.922-27.057 15.724-71.129 15.671-98.27 0-27.237-15.726-27.378-41.198-.321-56.922 27.063-15.726 71.034-15.725 98.271 0z" class="color1352ab svgShape"/><path fill="#5e4f4c" d="m1086.692 1392.28-.018 6.234-118.369 68.789.017-6.234z" class="color4c4c5e svgShape"/><path fill="#5e4f4c" d="m968.322 1461.069-.017 6.234-119.194-68.816.018-6.234z" class="color4c4c5e svgShape"/><path fill="#736461" d="m1086.692 1392.28-118.37 68.789-119.193-68.816 118.37-68.789z" class="color616173 svgShape"/><path fill="#fff" d="M1029.841 1524.987a3.507 3.507 0 0 1-3.508-3.508v-86.444a16.413 16.413 0 0 0-8.185-14.177l-53.158-30.69a3.508 3.508 0 0 1-1.285-4.793 3.503 3.503 0 0 1 4.793-1.285l53.158 30.69c7.212 4.166 11.693 11.926 11.693 20.255v86.444a3.507 3.507 0 0 1-3.508 3.508z" class="colorffffff svgShape"/><path fill="#f4836c" d="M1040.845 1520.694c0 5.814-4.742 10.557-10.554 10.557-2.983 0-5.736-1.3-7.571-3.29h-.076a10.643 10.643 0 0 1-2.83-7.267 10.443 10.443 0 0 1 10.478-10.475c1.453 0 2.83.306 4.13.84 3.746 1.531 6.423 5.277 6.423 9.635z" class="colorf46cb4 svgShape"/><path fill="#ffa08d" d="M1037.327 1518.326a10.447 10.447 0 0 1-10.478 10.479c-1.453 0-2.83-.306-4.13-.844h-.076a10.643 10.643 0 0 1-2.83-7.267 10.443 10.443 0 0 1 10.478-10.475c1.453 0 2.83.306 4.13.84 1.835 1.912 2.906 4.437 2.906 7.267z" class="colorff8dc4 svgShape"/><path fill="#c5cddd" d="m497.184 1283.902.109 13.164 199.23 115.779-.109-13.163z" class="colorc5d4dd svgShape"/><path fill="#cfd7e8" d="m696.414 1399.682.109 13.163 147.544-85.184-.109-13.163z" class="colorcfdee8 svgShape"/><path fill="#e7ecf7" d="m497.184 1283.902 199.23 115.78 147.544-85.184-199.23-115.78z" class="colore7f1f7 svgShape"/><path fill="#3764c7" d="m529.217 1285.08 8.769 5.096 20.057-11.58-8.77-5.096zM554.397 1270.542l8.769 5.096 94.585-54.608-8.769-5.097z" class="color3765c7 svgShape"/><path fill="#94b0ed" d="M659.432 1236.71c-1.063.614-1.065 1.606-.012 2.218l13.836 8.041c1.053.612 2.766.614 3.829 0l13.927-8.041c1.06-.612 1.065-1.606.012-2.218l-13.836-8.041c-1.053-.612-2.769-.612-3.829 0l-13.927 8.041z" class="color94ed96 svgShape"/><path fill="#c5cddd" d="m552.695 1300.116 2.006 1.166 100.926-58.27-2.006-1.165zM558.982 1303.769l2.005 1.166 100.926-58.27-2.006-1.165zM627.93 1271.244l2.005 1.166 38.264-22.092-2.005-1.165z" class="colorc5d4dd svgShape"/><path fill="#fd7154" d="M689.387 1253.999c-1.063.614-1.065 1.606-.013 2.218l13.836 8.041c1.053.612 2.766.614 3.829 0l13.927-8.041c1.06-.612 1.065-1.606.013-2.218l-13.836-8.041c-1.053-.612-2.769-.612-3.829 0l-13.927 8.041z" class="colorfd546b svgShape"/><path fill="#c5cddd" d="m582.65 1317.405 2.005 1.166 100.926-58.27-2.005-1.165zM588.936 1321.058l2.005 1.166 100.926-58.27-2.005-1.165zM657.885 1288.533l2.005 1.166 38.264-22.092-2.006-1.165z" class="colorc5d4dd svgShape"/><path fill="#ffa08d" d="M719.341 1271.288c-1.063.614-1.065 1.606-.013 2.218l13.837 8.041c1.053.612 2.766.614 3.829 0l13.927-8.041c1.06-.612 1.065-1.606.013-2.218l-13.837-8.041c-1.053-.612-2.769-.612-3.829 0l-13.927 8.041z" class="colorff8dc4 svgShape"/><path fill="#c5cddd" d="m612.605 1334.694 2.005 1.166 100.926-58.27-2.006-1.165zM618.891 1338.348l2.005 1.165 100.926-58.27-2.005-1.165zM687.839 1305.823l2.006 1.165 38.263-22.092-2.005-1.165z" class="colorc5d4dd svgShape"/><path fill="#557fdb" d="M749.296 1288.578c-1.063.614-1.065 1.606-.012 2.218l13.836 8.041c1.053.612 2.766.614 3.829 0l13.927-8.041c1.06-.612 1.065-1.606.012-2.218l-13.836-8.041c-1.053-.612-2.769-.612-3.829 0l-13.927 8.041z" class="color5576db svgShape"/><path fill="#c5cddd" d="m642.559 1351.984 2.005 1.165 100.926-58.27-2.005-1.165zM648.845 1355.637l2.006 1.165 100.925-58.27-2.005-1.165zM717.794 1323.112l2.005 1.165 38.264-22.091-2.006-1.166z" class="colorc5d4dd svgShape"/><path fill="#ff6e50" d="M779.25 1305.867c-1.063.614-1.065 1.606-.013 2.218l13.836 8.041c1.053.612 2.766.614 3.829 0l13.927-8.041c1.06-.612 1.065-1.606.013-2.218l-13.836-8.041c-1.053-.612-2.769-.612-3.829 0l-13.927 8.041z" class="colorffc950 svgShape"/><path fill="#c5cddd" d="m672.514 1369.273 2.005 1.165 100.926-58.269-2.005-1.166zM678.8 1372.926l2.005 1.165 100.926-58.269-2.005-1.166zM747.748 1340.401l2.006 1.165 38.263-22.091-2.005-1.166z" class="colorc5d4dd svgShape"/><path fill="#564a47" d="M731.633 398.396c-4.329-6.701-39.5 13.998-36.534 30.129 0 .178.059.474.119.77.059.415.119 6.05.119 12.396.119 7.651 2.61 15.005 6.643 21.47 0 .058.059.058.059.117 6.05 9.668 9.134 21.174 8.778 32.56-.178 4.272-1.126 9.074-4.804 11.21-4.27 2.431-9.667-.119-13.404-3.262-10.556-8.956-16.132-22.716-17.852-36.415-1.186-9.371-4.211-19.394-3.262-29.062l-.059-.059c-1.779-12.751-1.186-36.474-.593-42.762.652-6.582 4.151-19.572 23.724-26.452 19.572-6.939 36.297 7.532 39.026 13.166 2.725 5.578-1.96 16.194-1.96 16.194z" class="color474756 svgShape"/><ellipse cx="693.36" cy="422.296" fill="#fec1b5" class="colorfed0b5 svgShape" rx="5.021" ry="6.962" transform="rotate(-26.186 693.273 422.26)"/><path fill="#fec1b5" d="M695.626 596.846c-1.062-.397-2.324-.067-3.387.465-4.184 2.059-6.774 6.375-10.558 9.098-1.462 1.062-3.122 1.924-4.317 3.187-.835.879-1.385 2.075-1.447 3.249l-.001.159c.139.305.292.645.433.866.323.503.647.997.952 1.511.026.044.036.088.062.131.305.128.606.269.931.326 1.262.266 2.523-.066 3.718-.399 5.911-1.86 11.09-5.911 14.278-11.222.73-1.196 1.394-2.524 1.394-3.985.067-1.394-.664-2.921-2.058-3.386z" class="colorfed0b5 svgShape"/></svg>