<svg xmlns="http://www.w3.org/2000/svg" enable-background="new 0 0 68 68" viewBox="0 0 68 68"><path fill="#487ff7" d="M65.9748383,14.0697012v40.9499512c0,1.4099121-1.1499023,2.5600586-2.569828,2.5600586H40.2050591
			c-0.8300781,0-1.5,0.6799316-1.5,1.5c0,0.9399414-0.7700195,1.7099609-1.7102051,1.7099609h-5.9999981
			c-0.9399414,0-1.7099609-0.7700195-1.7099609-1.7099609c0-0.8200684-0.6699219-1.5-1.5-1.5H4.5849433
			c-1.4199219,0-2.5598145-1.1398926-2.5598145-2.5500488V14.0697012c0-1.3999023,1.1398926-2.5700684,2.5598145-2.5700684
			h58.8200684C64.8249359,11.4996328,65.9748383,12.6697989,65.9748383,14.0697012z" class="color488ff7 svgShape"/><path d="M36.994873,61.2900696h-6c-1.21875,0-2.2099609-0.9912109-2.2099609-2.2099609c0-0.5517578-0.4487305-1-1-1H4.5847168
			c-1.6870117,0-3.0595703-1.3681641-3.0595703-3.0507813V14.0693674c0-1.6923828,1.3725586-3.0693359,3.0595703-3.0693359
			h58.8203125c1.6928711,0,3.0698242,1.3769531,3.0698242,3.0693359v40.9501953c0,1.6875-1.3769531,3.0605469-3.0698242,3.0605469
			H40.204834c-0.5512695,0-1,0.4482422-1,1C39.204834,60.2988586,38.213623,61.2900696,36.994873,61.2900696z M4.5847168,12.0000315
			c-1.1357422,0-2.0595703,0.9287109-2.0595703,2.0693359v40.9599609c0,1.1308594,0.9238281,2.0507813,2.0595703,2.0507813
			h23.2001953c1.1030273,0,2,0.8974609,2,2c0,0.6669922,0.5429688,1.2099609,1.2099609,1.2099609h6
			c0.6669922,0,1.2099609-0.5429688,1.2099609-1.2099609c0-1.1025391,0.8969727-2,2-2h23.2001953
			c1.1411133,0,2.0698242-0.9248047,2.0698242-2.0605469V14.0693674c0-1.140625-0.9287109-2.0693359-2.0698242-2.0693359H4.5847168z
			" class="color000000 svgShape"/><path fill="#b9b9b9" d="M62.5584793,37.0098991v14.2699394c0,1.5163536-1.2406502,2.7570038-2.757,2.7570038H8.1676188
				c-1.5162158,0-2.7567563-1.2405434-2.7567563-2.7567596V37.0098991H62.5584793z" class="colorb9b9b9 svgShape"/><path d="M59.8015137,54.5371399H8.1677246c-1.7958984,0-3.2568359-1.4609375-3.2568359-3.2568359V37.0097961
				c0-0.2763672,0.2236328-0.5,0.5-0.5h57.1474609c0.2763672,0,0.5,0.2236328,0.5,0.5V51.280304
				C63.0583496,53.0762024,61.5974121,54.5371399,59.8015137,54.5371399z M5.9108887,37.5097961V51.280304
				c0,1.2441406,1.012207,2.2568359,2.2568359,2.2568359h51.6337891c1.2446289,0,2.2568359-1.0126953,2.2568359-2.2568359
				V37.5097961H5.9108887z" class="color000000 svgShape"/><path fill="#a9c4ff" d="M62.5584793,12.5377893v38.5515289c-7.3646622-5.3861504-19.2957649-5.5559464-27.8894997,2.2981033
					c-0.2298088,0.2098045-0.4596214,0.4196091-0.6794281,0.6396599v0.0200081l-0.0100021-0.0102463
					c-0.2298126-0.2195663-0.4396172-0.4293709-0.6794281-0.6294174c-8.5837326-7.874054-20.5048351-7.704258-27.8892593-2.3181076
					V12.5377893c0-0.6494217,0.3195877-1.2793264,0.8592272-1.6389227
					c7.1246066-4.8465085,13.7498264-5.0860772,27.0300312,0.3195868c0.2298088,0.0902653,0.4596176,0.1800432,0.6894302,0.2800665
					c0.2298088-0.1000233,0.4596214-0.1898012,0.6794281-0.2800665c13.2902069-5.405664,19.9251862-5.1660953,27.0300293-0.3195868
					C62.2386513,11.2584629,62.5584793,11.8883677,62.5584793,12.5377893z" class="colordbdbdb svgShape"/><path d="M33.9782715,54.5400696c-0.1264648,0-0.2495117-0.046875-0.3422852-0.1396484l-0.1381836-0.1328125
					c-0.1708984-0.1650391-0.3354492-0.3242188-0.5180664-0.4765625
					c-8.7592773-8.0351563-20.5854492-7.1767578-27.2744141-2.2978516
					c-0.1513672,0.1103516-0.3544922,0.1279297-0.5209961,0.0410156c-0.1679688-0.0849609-0.2734375-0.2568359-0.2734375-0.4453125
					V12.5381174c0-0.8222656,0.4145508-1.6103516,1.0820313-2.0556641
					c7.5083008-5.1074224,14.4477539-5.039063,27.4956055,0.2734375c0.1645508,0.0644531,0.3320313,0.1298828,0.5009766,0.1992188
					c0.1025391-0.0419922,0.2045898-0.0839844,0.3051758-0.1240234l0.1855469-0.0751953
					c13.0649414-5.313477,20.0048828-5.382813,27.5004883-0.2705078c0.6630859,0.4433594,1.0776367,1.2304688,1.0776367,2.0527344
					v38.5507813c0,0.1884766-0.105957,0.3603516-0.2739258,0.4462891c-0.1679688,0.0849609-0.3696289,0.0693359-0.5209961-0.0429688
					c-6.6728516-4.8798828-18.4941406-5.7451172-27.2568359,2.2646484c-0.2285156,0.2080078-0.4296875,0.3916016-0.621582,0.5820313
					c-0.0522461,0.0693359-0.1220703,0.1259766-0.2041016,0.1601563
					C34.1154785,54.5263977,34.0461426,54.5400696,33.9782715,54.5400696z M17.755127,46.7881165
					c5.3554688,0,11.0688477,1.8349609,15.8828125,6.2509766c0.1137695,0.09375,0.2265625,0.1972656,0.340332,0.3046875
					c0.1069336-0.0996094,0.215332-0.1992188,0.3232422-0.2978516c8.8481445-8.0849609,20.6499023-7.5302734,27.7568359-2.9091797
					V12.5381174c0-0.4921875-0.2441406-0.9609375-0.637207-1.2236328
					C54.2536621,6.4258122,47.552002,6.5195622,34.857666,11.6816721l-0.1889648,0.0771484
					c-0.1577148,0.0634766-0.3193359,0.1279297-0.4804688,0.1982422c-0.1269531,0.0546875-0.2705078,0.0546875-0.3974609,0
					c-0.2241211-0.0976563-0.4482422-0.1845703-0.6728516-0.2724609
					c-12.6835938-5.1650395-19.3857422-5.257813-26.5664063-0.3730469c-0.3964844,0.2646484-0.640625,0.7333984-0.640625,1.2265625
					v37.6005859C9.135498,48.045929,13.322998,46.7881165,17.755127,46.7881165z" class="color000000 svgShape"/><path d="M33.989502,54.5371399c-0.2763672,0-0.5-0.2236328-0.5-0.5V11.4980783c0-0.2763672,0.2236328-0.5,0.5-0.5
			s0.5,0.2236328,0.5,0.5v42.5390625C34.489502,54.3135071,34.2658691,54.5371399,33.989502,54.5371399z" class="color000000 svgShape"/><g class="color000000 svgShape"><path d="M30.0397949 16.3086243c-.0629883 0-.1269531-.0117188-.1884766-.0371094-4.7475586-1.9326162-8.3535156-2.9150381-11.3476563-3.0908194-.2758789-.015625-.4858398-.2529297-.4697266-.5283203s.2529297-.5097656.5283203-.4697266c3.1069336.1826172 6.8139648 1.1875 11.6660156 3.1630859.2558594.1035156.3789063.3955078.2744141.6513672C30.4240723 16.1914368 30.2370605 16.3086243 30.0397949 16.3086243zM8.7331543 16.0566711c-.1601563 0-.3173828-.0761709-.4140625-.218749-.1552734-.2285156-.0961914-.5390625.1323242-.6943359 2.612793-1.7773438 5.0712891-2.7109375 7.7373047-2.9355469.2783203-.015625.5170898.1816406.5400391.4560547.0234375.2753906-.1806641.5166016-.4560547.5400391-2.5214844.2128906-4.7602539 1.0664063-7.2587891 2.765625C8.9279785 16.0283508 8.829834 16.0566711 8.7331543 16.0566711zM30.0397949 22.2373352c-.0629883 0-.1269531-.0117188-.1884766-.0371094-1.5415039-.6269531-2.9208984-1.1396484-4.2172852-1.5664063-.262207-.0859375-.4047852-.3681641-.3188477-.6308594s.3681641-.4082031.6313477-.3183594c1.3183594.4335938 2.71875.953125 4.2817383 1.5898438.2558594.1035156.3789063.3955078.2744141.6513672C30.4240723 22.1201477 30.2370605 22.2373352 30.0397949 22.2373352zM8.7331543 21.9853821c-.1601563 0-.3168945-.0761719-.4140625-.21875-.1552734-.2285156-.0961914-.5390625.1323242-.6943359 4.6738281-3.1787109 8.9399414-3.7607422 15.2172852-2.0722656.2666016.0712891.4248047.3457031.3530273.6123047-.0712891.2666016-.3442383.4248047-.612793.3525391-5.9599609-1.6025391-9.9946289-1.0595703-14.3950195 1.9335938C8.9279785 21.9570618 8.829834 21.9853821 8.7331543 21.9853821zM30.0397949 28.1660461c-.0629883 0-.1269531-.0117188-.1884766-.0371094-5.9765625-2.4335938-10.1889648-3.3798828-13.6704102-3.0595703-.2749023.0214844-.5180664-.1777344-.543457-.4521484-.0249023-.2753906.1777344-.5185547.4526367-.5439453 3.6420898-.3330078 8.0048828.6328125 14.1381836 3.1298828.2558594.1035156.3789063.3955078.2744141.6513672C30.4240723 28.0488586 30.2370605 28.1660461 30.0397949 28.1660461zM8.7331543 27.914093c-.1601563 0-.3173828-.0761719-.4140625-.21875-.1552734-.2285156-.0957031-.5390625.1323242-.6943359 1.7416992-1.1845703 3.4018555-1.9882813 5.0751953-2.4570313.265625-.0712891.5415039.0810547.6162109.3466797s-.0805664.5419922-.3466797.6162109c-1.5673828.4384766-3.1313477 1.1982422-4.7822266 2.3203125C8.9279785 27.8857727 8.829834 27.914093 8.7331543 27.914093zM30.0397949 34.0947571c-.0629883 0-.1269531-.0117188-.1884766-.0371094-2.2495117-.9160156-4.2041016-1.6044922-5.9750977-2.1054688-.265625-.0751953-.4199219-.3515625-.3447266-.6171875.074707-.2666016.3540039-.421875.6171875-.3457031 1.8071289.5117188 3.7954102 1.2128906 6.0795898 2.1425781.2558594.1035156.3789063.3955078.2744141.6513672C30.4240723 33.9775696 30.2370605 34.0947571 30.0397949 34.0947571zM8.7331543 33.842804c-.1601563 0-.3173828-.0761719-.4140625-.21875-.1552734-.2285156-.0961914-.5390625.1323242-.6943359 4.2792969-2.9111328 8.2236328-3.6240234 13.6137695-2.4628906.2700195.0585938.4414063.3242188.3833008.5947266-.0576172.2705078-.3251953.4355469-.5942383.3837891-5.0947266-1.1015625-8.8134766-.4287109-12.840332 2.3105469C8.9279785 33.8144836 8.829834 33.842804 8.7331543 33.842804zM30.0397949 40.023468c-.0629883 0-.1269531-.0117188-.1884766-.0371094-4.7612305-1.9375-8.3740234-2.9199219-11.3701172-3.0917969-.2753906-.015625-.4863281-.2519531-.4702148-.5273438.0161133-.2773438.2529297-.5078125.527832-.4707031 3.1088867.1777344 6.8232422 1.1835938 11.6894531 3.1640625.2558594.1035156.3789063.3955078.2744141.6513672C30.4240723 39.9062805 30.2370605 40.023468 30.0397949 40.023468zM8.7331543 39.7715149c-.1601563 0-.3173828-.0761719-.4140625-.21875-.1552734-.2285156-.0961914-.5390625.1323242-.6943359 2.7539063-1.8730469 5.2480469-2.7861328 8.0869141-2.9609375.2885742-.0195313.5131836.1923828.5297852.46875.0170898.2753906-.1928711.5126953-.4682617.5292969-2.6494141.1630859-4.9892578 1.0234375-7.5859375 2.7890625C8.9279785 39.7431946 8.829834 39.7715149 8.7331543 39.7715149zM30.0397949 45.952179c-.0629883 0-.1269531-.0117188-.1884766-.0371094-9.9536133-4.0507813-15.2119141-4.1269531-20.8374023-.3017578-.2280273.1552734-.5395508.0966797-.6948242-.1318359s-.0961914-.5390625.1323242-.6943359c5.9550781-4.0527344 11.4506836-4.0009766 21.7768555.2021484.2558594.1035156.3789063.3955078.2744141.6513672C30.4240723 45.8349915 30.2370605 45.952179 30.0397949 45.952179zM37.9294434 16.3086243c-.1972656 0-.3842773-.1171875-.4628906-.3115225-.1044922-.2558594.0185547-.5478516.2744141-.6513672 10.324707-4.203125 15.8208008-4.2539063 21.7773438-.2021484.2285156.1552734.2875977.4658203.1323242.6943359-.1542969.2294912-.4658203.288085-.6948242.1318359-5.6259766-3.8271484-10.8847656-3.7490234-20.8378906.3017569C38.0563965 16.2969055 37.9924316 16.3086243 37.9294434 16.3086243zM37.9294434 22.2373352c-.1972656 0-.3842773-.1171875-.4628906-.3115234-.1044922-.2558594.0185547-.5478516.2744141-.6513672 6.7192383-2.7353516 11.2470703-3.6328125 15.1425781-3.0019531.2724609.0439453.4575195.3007813.4135742.5732422-.0444336.2724609-.2973633.4638672-.5737305.4130859-3.7006836-.5966797-8.0688477.2802734-14.6054688 2.9414063C38.0563965 22.2256165 37.9924316 22.2373352 37.9294434 22.2373352zM59.2365723 21.9853821c-.0966797 0-.1948242-.0283203-.2807617-.0869141-1.3652344-.9287109-2.65625-1.6015625-3.9458008-2.0556641-.2607422-.0917969-.3974609-.3769531-.3056641-.6376953.0922852-.2617188.3793945-.3984375.6376953-.3056641 1.3725586.4833984 2.7387695 1.1943359 4.1762695 2.1728516.2285156.1552734.2875977.4658203.1323242.6943359C59.5534668 21.9092102 59.3967285 21.9853821 59.2365723 21.9853821zM37.9294434 28.1660461c-.1972656 0-.3842773-.1171875-.4628906-.3115234-.1044922-.2558594.0185547-.5478516.2744141-.6513672 2.4995117-1.0175781 4.6582031-1.765625 6.5996094-2.2861328.2661133-.0644531.5410156.0869141.6123047.3544922.0712891.2666016-.0869141.5400391-.3535156.6123047-1.9008789.5087891-4.0209961 1.2431641-6.4814453 2.2451172C38.0563965 28.1543274 37.9924316 28.1660461 37.9294434 28.1660461zM59.2365723 27.914093c-.0966797 0-.1948242-.0283203-.2807617-.0869141-3.3891602-2.3056641-6.4746094-3.1181641-10.3212891-2.7207031-.2773438.0292969-.5209961-.171875-.5493164-.4453125-.0283203-.2744141.1713867-.5205078.4458008-.5488281 4.1015625-.4287109 7.3857422.4384766 10.9873047 2.8886719.2285156.1552734.2875977.4658203.1323242.6943359C59.5539551 27.8379211 59.3967285 27.914093 59.2365723 27.914093zM37.9294434 34.0947571c-.1972656 0-.3842773-.1171875-.4628906-.3115234-.1044922-.2558594.0185547-.5478516.2744141-.6513672 10.3266602-4.2021484 15.8222656-4.2539063 21.7773438-.2021484.2285156.1552734.2875977.4658203.1323242.6943359-.1542969.2285156-.4658203.2880859-.6948242.1318359-5.625-3.8242188-10.8833008-3.75-20.8378906.3017578C38.0563965 34.0830383 37.9924316 34.0947571 37.9294434 34.0947571zM37.9294434 40.023468c-.1972656 0-.3842773-.1171875-.4628906-.3115234-.1044922-.2558594.0185547-.5478516.2744141-.6513672 5.3032227-2.1591797 9.1425781-3.1425781 12.449707-3.1914063.2661133.0302734.503418.2167969.5073242.4931641.0039063.2753906-.2167969.5029297-.4926758.5068359-3.1337891.0458984-6.9746094 1.0361328-12.0874023 3.1171875C38.0563965 40.0117493 37.9924316 40.023468 37.9294434 40.023468zM59.2365723 39.7715149c-.0966797 0-.1943359-.0283203-.2807617-.0869141-2.1479492-1.4599609-4.128418-2.2988281-6.2324219-2.6396484-.2724609-.0439453-.4575195-.3007813-.4135742-.5732422s.293457-.4638672.5737305-.4130859c2.253418.3642578 4.3613281 1.2539063 6.6347656 2.7998047.2280273.1552734.2875977.4658203.1323242.6943359C59.5539551 39.695343 59.3967285 39.7715149 59.2365723 39.7715149zM37.9294434 45.952179c-.1972656 0-.3842773-.1171875-.4633789-.3115234-.1040039-.2558594.019043-.5478516.2749023-.6513672 2.1801758-.8867188 4.0849609-1.5634766 5.8227539-2.0693359.2675781-.0791016.5424805.0761719.6196289.3408203.0771484.265625-.0751953.5429688-.340332.6201172-1.7045898.4951172-3.5771484 1.1611328-5.7250977 2.0341797C38.0559082 45.9404602 37.9924316 45.952179 37.9294434 45.952179zM59.2365723 45.7002258c-.0966797 0-.1948242-.0283203-.2807617-.0869141-3.9501953-2.6865234-7.5678711-3.3779297-12.4873047-2.3847656-.2700195.0576172-.534668-.1210938-.5893555-.3916016s.1206055-.5341797.3911133-.5888672c5.2128906-1.0517578 9.0498047-.3164063 13.2480469 2.5390625.2285156.1552734.2875977.4658203.1323242.6943359C59.5539551 45.624054 59.3967285 45.7002258 59.2365723 45.7002258z" class="color000000 svgShape"/></g></svg>