<svg xmlns="http://www.w3.org/2000/svg" viewBox="0 0 66 66"><path fill="#394663" d="M65 5H54.91l3.66 3.67-10.09 10.15-8.55-8.6-13.09 13.17-9.69-9.75L1 29.89l2.86 2.85 13.29-13.37 9.69 9.75 13.09-13.17 8.55 8.6 12.95-13.03L65 15.09z" class="color395263 svgShape"/><path fill="#a9c4ff" d="M11 28.39V55H5V34.43zM21 26.09V55h-6V24.36l2.14-2.15zM31 27.76V55h-6V30.12l1.83 1.84zM41 19.88V55h-6V23.74l4.92-4.95zM48.47 27.39 51 24.85V55h-6V23.9zM61 14.79V55h-6V20.82z" class="coloradb5bd svgShape"/><path fill="#5a8eff" d="M2 57h62v4H2z" class="colorff735a svgShape"/></svg>