<svg xmlns="http://www.w3.org/2000/svg" viewBox="0 0 100 100"><path fill="#fff" d="M71.67 14.482v78.44a4.076 4.076 0 0 1-4.077 4.076H8.403a4.076 4.076 0 0 1-4.076-4.076v-78.44a4.076 4.076 0 0 1 4.076-4.076h59.19a4.076 4.076 0 0 1 4.076 4.076z" class="colorffffff svgShape"/><path fill="#d8e2f8" d="M71.67 14.485v78.44a4.076 4.076 0 0 1-4.076 4.077H8.402a4.076 4.076 0 0 1-4.076-4.076v-8.05h41.037c7.832 0 14.181-6.35 14.181-14.182V10.41h8.05a4.076 4.076 0 0 1 4.076 4.076z" class="colord8eaf8 svgShape"/><path fill="#3773f7" d="M71.669 28.639V14.312a4.076 4.076 0 0 0-4.076-4.076H8.403a4.076 4.076 0 0 0-4.077 4.076V28.64H71.67z" class="colorf7c737 svgShape"/><path fill="#fff" d="M15.733 5.846v7.69a2.845 2.845 0 0 1-5.688 0v-7.69a2.845 2.845 0 0 1 5.688 0zm12.554 0v7.69a2.845 2.845 0 0 1-5.688 0v-7.69a2.845 2.845 0 0 1 5.688 0zm12.555 0v7.69a2.845 2.845 0 0 1-5.689 0v-7.69a2.845 2.845 0 0 1 5.689 0zm12.554 0v7.69a2.845 2.845 0 0 1-5.689 0v-7.69a2.845 2.845 0 0 1 5.689 0zm12.554 0v7.69a2.845 2.845 0 0 1-5.688 0v-7.69a2.845 2.845 0 0 1 5.688 0z" class="colorffffff svgShape"/><path fill="#7293db" d="M60.902 65.655c-.025 12.633-10.307 22.862-22.961 22.836-12.644-.036-22.872-10.307-22.847-22.95.025-12.644 10.307-22.873 22.95-22.847C50.7 42.719 60.929 53 60.903 65.655z" class="color72dbd4 svgShape"/><path fill="#6c88c6" d="M60.9 65.658c-.02 12.625-10.302 22.856-22.958 22.835-.59 0-1.182-.03-1.763-.081 11.8-.897 21.113-10.74 21.134-22.754.03-12.054-9.253-21.959-21.073-22.886a17.82 17.82 0 0 1 1.804-.081c12.656.03 22.886 10.311 22.855 22.967z" class="color6cc6c6 svgShape"/><path fill="#a9c4ff" d="M39.277 88.452c-.448.031-.887.041-1.335.041-12.645-.04-22.876-10.312-22.845-22.957.02-12.635 10.302-22.866 22.947-22.845.428 0 .866.01 1.294.04-12.034.663-21.602 10.608-21.623 22.805-.03 12.217 9.518 22.213 21.562 22.916z" class="colorc7f1ed svgShape"/><path fill="#fff" d="M37.94 83.377c-9.8-.035-17.757-8.036-17.731-17.837.025-9.777 8.005-17.732 17.79-17.732 4.8.012 9.261 1.876 12.612 5.246a17.693 17.693 0 0 1 5.177 12.602c-.026 9.771-8.011 17.721-17.8 17.721h-.049z" class="colorffffff svgShape"/><path fill="#d8e2f8" d="M55.784 65.658c-.02 9.772-8.009 17.72-17.801 17.72h-.04c-6.278-.02-11.79-3.312-14.94-8.243a17.6 17.6 0 0 0 9.518 2.822h.04c9.793 0 17.782-7.948 17.802-17.72a17.714 17.714 0 0 0-2.792-9.64c1.09.704 2.1 1.519 3.037 2.456a17.7 17.7 0 0 1 5.176 12.605z" class="colord8eaf8 svgShape"/><path fill="#3773f7" d="m82.258 57.303 8.195-.04.147 29.51-8.195.04z" class="colorf7c737 svgShape"/><path fill="#6897ff" d="m86.923 57.277 3.527-.018.147 29.514-3.527.017z" class="colorffe268 svgShape"/><path fill="#fff" d="m91.351 28.94.142 28.317-10.277.052-.142-28.318a2.384 2.384 0 0 1 2.372-2.396l5.51-.028a2.384 2.384 0 0 1 2.395 2.372z" class="colorffffff svgShape"/><path fill="#d8e2f8" d="m91.354 28.94.142 28.314-4.104.02-.142-28.314a2.38 2.38 0 0 0-2.393-2.37l4.095-.02a2.387 2.387 0 0 1 2.402 2.37z" class="colord8eaf8 svgShape"/><path fill="#4880fb" d="M86.173 20.989c-1.544.007-2.791 1.105-2.784 2.45l.015 3.156 5.593-.028-.016-3.155c-.006-1.346-1.264-2.431-2.808-2.423z" class="colorfb9648 svgShape"/><path fill="#fff" d="m90.599 86.773-4.046 10.225-4.149-10.184z" class="colorffffff svgShape"/><g fill="#112655" class="color221155 svgShape"><path fill="#000" d="M67.59 9.235h-.64v-3.39c0-2.12-1.72-3.84-3.84-3.84s-3.85 1.72-3.85 3.84v3.39H54.4v-3.39c0-2.12-1.73-3.84-3.85-3.84s-3.84 1.72-3.84 3.84v3.39h-4.87v-3.39c0-2.12-1.72-3.84-3.84-3.84s-3.85 1.72-3.85 3.84v3.39h-4.86v-3.39a3.85 3.85 0 0 0-3.85-3.84c-2.12 0-3.84 1.72-3.84 3.84v3.39h-4.87v-3.39c0-2.12-1.72-3.84-3.84-3.84s-3.85 1.72-3.85 3.84v3.39H8.4c-2.8 0-5.07 2.28-5.07 5.08v78.61c0 2.8 2.27 5.07 5.07 5.07h59.19c2.8 0 5.08-2.27 5.08-5.07v-78.61c0-2.8-2.28-5.08-5.08-5.08zm-6.33-3.39c0-1.02.83-1.84 1.85-1.84 1.01 0 1.84.82 1.84 1.84v7.69c0 1.02-.83 1.85-1.84 1.85-1.02 0-1.85-.83-1.85-1.85v-7.69zm-12.55 0c0-1.02.82-1.84 1.84-1.84s1.85.82 1.85 1.84v7.69c0 1.02-.83 1.85-1.85 1.85s-1.84-.83-1.84-1.85v-7.69zm-12.56 0c0-1.02.83-1.84 1.85-1.84 1.01 0 1.84.82 1.84 1.84v7.69c0 1.02-.83 1.85-1.84 1.85-1.02 0-1.85-.83-1.85-1.85v-7.69zm-12.55 0c0-1.02.83-1.84 1.84-1.84 1.02 0 1.85.82 1.85 1.84v7.69c0 1.02-.83 1.85-1.85 1.85a1.85 1.85 0 0 1-1.84-1.85v-7.69zm-12.56 0c0-1.02.83-1.84 1.85-1.84s1.84.82 1.84 1.84v7.69c0 1.02-.82 1.85-1.84 1.85s-1.85-.83-1.85-1.85v-7.69zm59.63 87.08a3.08 3.08 0 0 1-3.08 3.07H8.4c-1.69 0-3.07-1.38-3.07-3.07v-63.29h65.34v63.29zm0-65.29H5.33v-13.32c0-1.7 1.38-3.08 3.07-3.08h.64v2.3c0 2.12 1.73 3.85 3.85 3.85s3.84-1.73 3.84-3.85v-2.3h4.87v2.3a3.85 3.85 0 0 0 3.84 3.85c2.12 0 3.85-1.73 3.85-3.85v-2.3h4.86v2.3c0 2.12 1.73 3.85 3.85 3.85s3.84-1.73 3.84-3.85v-2.3h4.87v2.3c0 2.12 1.72 3.85 3.84 3.85s3.85-1.73 3.85-3.85v-2.3h4.86v2.3c0 2.12 1.73 3.85 3.85 3.85s3.84-1.73 3.84-3.85v-2.3h.64c1.7 0 3.08 1.38 3.08 3.08v13.32z" class="color000000 svgShape"/><path fill="#000" d="M65 25.491h3.02a.5.5 0 0 0 .5-.5v-3.91a.5.5 0 1 0-1 0v3.41H65a.5.5 0 1 0 0 1zm-8.024 0H60.9a.5.5 0 1 0 0-1h-3.924a.5.5 0 1 0 0 1zM54.94 48.735c-.06-.06-.12-.11-.17-.16l3.25-3.28c.39-.4.39-1.03 0-1.42-.39-.39-1.03-.38-1.42.01l-3.31 3.34c-3.94-3.29-8.77-5.2-13.91-5.49v-4.2h2.08c.55 0 1-.45 1-1s-.45-1-1-1H35.3c-.55 0-1 .45-1 1s.45 1 1 1h2.08v4.17c-5.42.14-10.55 2.07-14.68 5.53l-3.31-3.33a.996.996 0 0 0-1.41 0 .996.996 0 0 0-.01 1.41l3.25 3.26c-.03.03-.06.06-.09.08-4.52 4.51-7.02 10.5-7.04 16.88-.02 13.17 10.67 23.92 23.85 23.96h.05c13.16 0 23.89-10.69 23.91-23.84.02-6.39-2.46-12.4-6.96-16.92zm-16.95 38.76h-.05c-12.07-.04-21.87-9.88-21.85-21.95.03-12.16 9.9-21.85 21.91-21.85h.04c12.11.02 21.89 9.84 21.86 21.96-.02 12.05-9.85 21.84-21.91 21.84z" class="color000000 svgShape"/><path fill="#000" d="M38 46.805c-10.37 0-18.76 8.45-18.79 18.73-.03 10.35 8.37 18.81 18.73 18.84H38c5.16-.01 9.85-2.1 13.25-5.49 3.41-3.38 5.53-8.06 5.54-13.23.02-10.38-8.35-18.82-18.79-18.85zm12.54 29.91-1.45-1.44a.996.996 0 1 0-1.41 1.41l1.44 1.44a16.668 16.668 0 0 1-10.12 4.2v-2.04c0-.55-.45-1-1-1s-1 .45-1 1v2.04c-3.88-.23-7.39-1.77-10.12-4.2l1.44-1.44a.996.996 0 0 0 0-1.41c-.39-.39-1.03-.39-1.42 0l-1.44 1.44a16.669 16.669 0 0 1-4.2-10.12h2.05c.55 0 1-.45 1-1 0-.56-.45-1-1-1h-2.05c.23-3.88 1.77-7.39 4.2-10.12l1.44 1.44c.39.39 1.03.39 1.42 0 .39-.39.39-1.03 0-1.42l-1.44-1.44c2.73-2.42 6.25-3.97 10.12-4.2v2.05c0 .55.45 1 1 1s1-.45 1-1v-2.05c3.78.23 7.31 1.69 10.13 4.2l-1.45 1.44c-.39.39-.39 1.03 0 1.42.39.39 1.02.39 1.41 0l1.45-1.45c2.51 2.83 3.97 6.35 4.2 10.13h-2.05c-.55 0-1 .44-1 1 0 .55.45 1 1 1h2.05c-.23 3.87-1.77 7.39-4.2 10.12z" class="color000000 svgShape"/><path fill="#000" d="M43.04 55.365a.734.734 0 0 0-1.02.29l-3.91 7.01c-.04-.01-.08-.02-.12-.02a2.845 2.845 0 0 0 0 5.69c1.58 0 2.86-1.28 2.86-2.84 0-.99-.51-1.86-1.28-2.37l3.76-6.74a.75.75 0 0 0-.29-1.02zm-5.05 11.47c-.74 0-1.34-.6-1.34-1.34s.6-1.35 1.34-1.35c.75 0 1.36.61 1.36 1.35s-.61 1.34-1.36 1.34zm58.58-34.75c0-.86-.34-1.67-.95-2.27a3.17 3.17 0 0 0-2.26-.94h-.02l-.99.01a3.333 3.333 0 0 0-2.36-3.14l-.01-2.34c-.01-1.89-1.71-3.42-3.79-3.42h-.02c-2.04.01-3.79 1.5-3.78 3.46l.01 2.33a3.363 3.363 0 0 0-2.33 3.22l.15 28.32c0 .55.45.99 1 .99h.04l.14 28.51c0 .02.01.03.01.04.01.12.02.23.07.34v.01h.01l4.14 10.17c.15.38.52.62.92.62h.01c.41 0 .77-.25.92-.63l4.05-10.22c.17-.43.06-.63-.07-28.89h.04c.26 0 .52-.11.7-.29.19-.19.29-.45.29-.71l-.13-26.37.99-.01h.01c.32 0 .62.13.85.36.23.23.36.53.36.86l.1 18.34c0 .55.45.99 1 .99s1-.45 1-1l-.1-18.34zm-10.39-10.1h.01c.98 0 1.79.64 1.79 1.43l.01 2.16-1.83.01H84.4l-.01-2.15c0-.71.7-1.44 1.79-1.45zm.36 72.33-2.65-6.51 2.62-.01 2.61-.01-2.58 6.53zm-.04-8.52-3.1.01-.14-27.51c.1 0 5.81-.03 6.2-.03l.13 27.51-3.09.02zm3.95-29.53c-.12 0-7.76.04-8.24.04l-.14-27.32c0-.76.61-1.39 1.38-1.39.11 0 5.16-.03 5.52-.03.76 0 1.38.62 1.38 1.38l.14 27.32h-.04z" class="color000000 svgShape"/></g></svg>