<svg xmlns="http://www.w3.org/2000/svg" fill-rule="evenodd" clip-rule="evenodd" image-rendering="optimizeQuality" shape-rendering="geometricPrecision" text-rendering="geometricPrecision" viewBox="0 0 1707 1707"><path fill="#0040cc" d="M1256 1559l-40 0c-11,0 -20,-9 -20,-20 0,-11 9,-20 20,-20l40 0c12,0 20,9 20,20 0,11 -8,20 -20,20zm-160 0l-40 0c-11,0 -20,-9 -20,-20 0,-11 9,-20 20,-20l40 0c12,0 20,9 20,20 0,11 -8,20 -20,20zm-160 0l-40 0c-11,0 -20,-9 -20,-20 0,-11 9,-20 20,-20l40 0c12,0 20,9 20,20 0,11 -8,20 -20,20zm-160 0l-40 0c-11,0 -20,-9 -20,-20 0,-11 9,-20 20,-20l40 0c12,0 20,9 20,20 0,11 -8,20 -20,20zm-160 0l-40 0c-11,0 -20,-9 -20,-20 0,-11 9,-20 20,-20l40 0c12,0 20,9 20,20 0,11 -8,20 -20,20zm-160 0l-8 0c-11,0 -20,-9 -20,-20 0,-11 9,-20 20,-20l8 0c12,0 20,9 20,20 0,11 -8,20 -20,20zm920 0c-11,0 -20,-9 -20,-20 0,-11 9,-20 20,-20 12,0 24,-1 35,-4 11,-2 22,4 25,15 2,11 -5,22 -15,24 -15,4 -30,5 -45,5zm139 -69c-5,0 -9,-1 -13,-4 -8,-6 -10,-19 -3,-28 7,-9 13,-19 18,-30 4,-10 16,-15 26,-10 10,4 15,16 10,26 -6,14 -13,27 -22,39 -4,5 -10,7 -16,7zm28 -151c-9,0 -17,-6 -19,-15 -3,-11 -8,-22 -14,-32 -5,-10 -1,-22 8,-28 10,-5 22,-1 27,8 8,13 13,27 17,41 3,11 -3,22 -13,25 -2,1 -4,1 -6,1zm-133 -123c-2,0 -3,-1 -4,-1 -8,-1 -16,-2 -24,-3 -11,0 -20,-9 -20,-20 1,-11 10,-19 21,-20 10,1 20,2 30,4 11,2 18,13 16,23 -2,10 -10,17 -19,17zm-148 -4l-40 0c-11,0 -20,-9 -20,-20 0,-11 9,-20 20,-20l40 0c11,0 20,9 20,20 0,11 -9,20 -20,20zm-160 0l-40 0c-11,0 -20,-9 -20,-20 0,-11 9,-20 20,-20l40 0c11,0 20,9 20,20 0,11 -9,20 -20,20zm-160 0l-40 0c-11,0 -20,-9 -20,-20 0,-11 9,-20 20,-20l40 0c11,0 20,9 20,20 0,11 -9,20 -20,20zm-160 0l-40 0c-11,0 -20,-9 -20,-20 0,-11 9,-20 20,-20l40 0c12,0 20,9 20,20 0,11 -8,20 -20,20zm-160 0l-40 0c-11,0 -20,-9 -20,-20 0,-11 9,-20 20,-20l40 0c12,0 20,9 20,20 0,11 -8,20 -20,20zm-160 0c0,0 0,0 -1,0 -15,-1 -29,-4 -44,-8 -10,-3 -16,-15 -13,-25 3,-11 15,-17 25,-13 11,3 23,5 35,6 11,1 19,10 18,21 0,11 -9,19 -20,19zm-133 -78c-6,0 -13,-3 -16,-9 -9,-12 -15,-26 -21,-40 -3,-10 2,-22 12,-25 11,-4 22,1 26,12 4,11 9,21 16,31 6,9 3,22 -6,28 -3,2 -7,3 -11,3zm-18 -153c-3,0 -5,-1 -7,-1 -11,-4 -16,-16 -12,-26 5,-14 11,-27 19,-40 6,-9 19,-12 28,-6 9,6 12,19 6,28 -6,10 -12,20 -16,32 -3,8 -10,13 -18,13zm1004 -116l-40 0c-11,0 -20,-9 -20,-20 0,-11 9,-20 20,-20l40 0c11,0 20,9 20,20 0,11 -9,20 -20,20zm-160 0l-40 0c-11,0 -20,-9 -20,-20 0,-11 9,-20 20,-20l40 0c11,0 20,9 20,20 0,11 -9,20 -20,20zm-160 0l-40 0c-11,0 -20,-9 -20,-20 0,-11 9,-20 20,-20l40 0c11,0 20,9 20,20 0,11 -9,20 -20,20zm-160 0l-40 0c-11,0 -20,-9 -20,-20 0,-11 9,-20 20,-20l40 0c11,0 20,9 20,20 0,11 -9,20 -20,20zm-160 0l-40 0c-11,0 -20,-9 -20,-20 0,-11 9,-20 20,-20l40 0c11,0 20,9 20,20 0,11 -9,20 -20,20zm-160 0l-40 0c-11,0 -20,-9 -20,-20 0,-11 9,-20 20,-20l40 0c11,0 20,9 20,20 0,11 -9,20 -20,20zm919 -10c-8,0 -16,-5 -19,-13 -4,-10 2,-22 12,-25 11,-4 22,-10 32,-16 9,-6 21,-3 27,6 6,9 4,22 -6,28 -12,8 -26,14 -40,19 -2,1 -4,1 -6,1zm107 -110c-2,0 -4,-1 -6,-1 -10,-4 -16,-15 -13,-25 4,-12 6,-23 7,-35 1,-11 11,-19 22,-18 11,0 19,10 18,21 -1,15 -4,30 -8,44 -3,8 -11,14 -20,14zm-23 -153c-6,0 -12,-3 -16,-8 -7,-10 -15,-19 -24,-27 -8,-7 -9,-20 -1,-28 7,-8 20,-9 28,-2 11,10 21,21 30,34 6,9 4,21 -5,27 -4,3 -8,4 -12,4zm-135 -74c-1,0 -1,0 -1,0 -2,0 -4,0 -6,0l-33 0c-11,0 -20,-9 -20,-20 0,-11 9,-20 20,-20l33 0c3,0 5,0 7,0 11,1 20,10 20,21 -1,11 -10,19 -20,19zm-160 0l-40 0c-11,0 -20,-9 -20,-20 0,-11 9,-20 20,-20l40 0c11,0 20,9 20,20 0,11 -9,20 -20,20z" class="color008ecc svgShape"/><path fill="#0040cc" d="M301 1707c-93,0 -168,-75 -168,-168 0,-92 75,-167 168,-167 92,0 167,75 167,167 0,93 -75,168 -167,168zm0 -295c-71,0 -128,57 -128,127 0,71 57,128 128,128 70,0 127,-57 127,-128 0,-70 -57,-127 -127,-127z" class="color008ecc svgShape"/><path fill="#0040cc" d="M358 1559l-118 0c-11,0 -20,-9 -20,-20 0,-11 9,-20 20,-20l118 0c11,0 20,9 20,20 0,11 -9,20 -20,20z" class="color008ecc svgShape"/><path fill="#0040cc" d="M315 1606c-5 0-10-2-14-6-8-8-8-20 0-28l32-33-32-32c-8-8-8-20 0-28 7-8 20-8 28 0l46 46c8 8 8 21 0 29l-46 46c-4 4-9 6-14 6zM1174 464c-11 0-20-9-20-20l0-345c0-11 9-20 20-20 11 0 20 9 20 20l0 345c0 11-9 20-20 20z" class="color008ecc svgShape"/><path fill="#0040cc" d="M1174 365l-244 0c-11 0-20-9-20-20l0-196c0-11 9-20 20-20l244 0c11 0 20 9 20 20l0 196c0 12-9 20-20 20zm-224-40l204 0 0-156-204 0 0 156zM1214 518l-81 0c-11 0-20-9-20-20l0-54c0-11 9-20 20-20l81 0c11 0 20 9 20 20l0 54c0 11-9 20-20 20zm-61-40l41 0 0-14-41 0 0 14zM1174 119c-33 0-60-27-60-60 0-32 27-59 60-59 32 0 59 27 59 59 0 33-27 60-59 60zm0-79c-11 0-20 9-20 19 0 11 9 20 20 20 10 0 19-9 19-20 0-10-9-19-19-19zM381 967c-52 0-95-42-95-95 0-52 43-95 95-95 53 0 95 43 95 95 0 53-42 95-95 95zm0-150c-30 0-55 25-55 55 0 31 25 55 55 55 31 0 55-24 55-55 0-30-24-55-55-55zM1478 1321c-52 0-95-43-95-95 0-53 43-95 95-95 53 0 95 42 95 95 0 52-42 95-95 95zm0-150c-30 0-55 24-55 55 0 30 25 55 55 55 31 0 55-25 55-55 0-31-24-55-55-55z" class="color008ecc svgShape"/><path fill="#0050ff" d="M436 872c0,-30 -24,-55 -55,-55 -30,0 -55,25 -55,55 0,31 25,55 55,55 31,0 55,-24 55,-55z" class="color00ccff svgShape"/><path fill="#a9c4ff" d="M301 1412c-71,0 -128,57 -128,127 0,71 57,128 128,128 70,0 127,-57 127,-128 0,-70 -57,-127 -127,-127zm-61 107l73 0 -12 -12c-8,-8 -8,-20 0,-28 7,-8 20,-8 28,0l46 46c8,8 8,21 0,29l-46 46c-4,4 -9,6 -14,6 -5,0 -10,-2 -14,-6 -8,-8 -8,-20 0,-28l12 -13 -73 0c-11,0 -20,-9 -20,-20 0,-11 9,-20 20,-20z" class="colorffffff svgShape"/><path fill="#0050ff" d="M1423 1226c0,30 25,55 55,55 31,0 55,-25 55,-55 0,-31 -24,-55 -55,-55 -30,0 -55,24 -55,55z" class="color00ccff svgShape"/><polygon fill="#a9c4ff" points="1153 478 1183 478 1194 478 1194 464 1174 464 1153 464" class="colorffffff svgShape"/><polygon fill="#a9c4ff" points="950 325 1154 325 1154 169 950 169" class="colorffffff svgShape"/><path fill="#a9c4ff" d="M1154 59c0,11 9,20 20,20 10,0 19,-9 19,-20 0,-10 -9,-19 -19,-19 -11,0 -20,9 -20,19z" class="colorffffff svgShape"/></svg>