<svg xmlns="http://www.w3.org/2000/svg" enable-background="new 0 0 160 160" viewBox="0 0 160 160"><path fill="#5a8eff" d="M47,53.298V40.569l-2.376-2.376c-1.755-1.754-4.609-1.754-6.364,0
		c-0.85,0.85-1.318,1.98-1.318,3.182c0,1.202,0.468,2.333,1.318,3.183L47,53.298z" class="colorffdf5a svgShape"/><path fill="#a9c4ff" d="M108,67c0.338,0,0.668,0.027,1,0.051V25c0-2.757-2.243-5-5-5H56c-2.757,0-5,2.243-5,5v32.346
		l4.89,4.89c3.314,3.314,3.314,8.706,0,12.021c-1.179,1.179-2.623,1.931-4.142,2.271l4.142,4.142c3.314,3.314,3.314,8.706,0,12.021
		c-1.171,1.171-2.603,1.919-4.11,2.263l2.302,2.302c2.1,2.101,2.864,5.035,2.302,7.747h27.718
		C88.389,98.317,95.648,93.714,104,93.076V85h-7c-7.168,0-13-5.832-13-13v-1c0-2.206,1.794-4,4-4H108z M86,28H73
		c-1.104,0-2-0.896-2-2s0.896-2,2-2h13c1.104,0,2,0.896,2,2S87.104,28,86,28z" class="colorc9c0ff svgShape"/><path fill="#31529b" d="M104,16H56c-4.962,0-9,4.037-9,9v9.957c-3.336-2.892-8.4-2.76-11.568,0.409
		c-1.605,1.605-2.49,3.739-2.49,6.01c0,2.271,0.884,4.405,2.49,6.011l5.694,5.694c-1.554,0.349-2.983,1.123-4.136,2.276
		c-1.605,1.605-2.49,3.739-2.49,6.01s0.884,4.405,2.49,6.011l4.136,4.136c-1.554,0.348-2.983,1.123-4.136,2.276
		c-1.605,1.605-2.49,3.739-2.49,6.01s0.884,4.405,2.49,6.011l4.11,4.109c-1.507,0.344-2.939,1.092-4.11,2.264
		c-1.605,1.605-2.49,3.739-2.49,6.01s0.884,4.405,2.49,6.011l5.071,5.07c1.35,1.35,3.075,2.182,4.939,2.416V114
		c0,4.458,3.262,8.159,7.522,8.868c3.124,6.479,8.189,11.927,14.478,15.5V142c0,1.104,0.896,2,2,2s2-0.896,2-2v-4.818
		c0-0.744-0.413-1.427-1.073-1.772c-5.398-2.825-9.875-7.166-12.854-12.409H80v3c0,1.104,0.896,2,2,2s2-0.896,2-2v-5v-2
		c0-12.131,9.869-22,22-22c1.104,0,2-0.896,2-2V83c0-1.104-0.896-2-2-2h-9c-4.962,0-9-4.037-9-9v-1h20c5.514,0,10,4.486,10,10v26.5
		c0,7.994-3.005,15.62-8.463,21.473c-0.345,0.37-0.537,0.858-0.537,1.364V142c0,1.104,0.896,2,2,2s2-0.896,2-2v-10.889
		c5.81-6.514,9-14.866,9-23.611V81c0-5.957-3.746-11.042-9-13.061V25C113,20.037,108.962,16,104,16z M84,71v1
		c0,7.168,5.832,13,13,13h7v8.076C95.648,93.714,88.389,98.317,84.102,105H56.384c0.562-2.712-0.202-5.646-2.302-7.747l-2.302-2.302
		c1.507-0.343,2.939-1.092,4.11-2.263c3.314-3.314,3.314-8.706,0-12.021l-4.142-4.142c1.518-0.34,2.963-1.091,4.142-2.271
		c3.314-3.314,3.314-8.706,0-12.021L51,57.346V25c0-2.757,2.243-5,5-5h48c2.757,0,5,2.243,5,5v42.051
		c-0.332-0.024-0.662-0.051-1-0.051H88C85.794,67,84,68.794,84,71z M56,119c-2.757,0-5-2.243-5-5v-2.763
		c1.143-0.419,2.195-1.077,3.082-1.964c0,0,0,0,0,0c0.088-0.088,0.164-0.183,0.247-0.273h27.677C80.717,112.081,80,115.458,80,119
		H56z M39.818,95.01c0.877-0.877,2.03-1.315,3.182-1.315s2.305,0.438,3.182,1.315l5.071,5.071c1.754,1.755,1.754,4.61,0,6.364
		c0,0,0,0,0,0c-0.85,0.851-1.98,1.318-3.182,1.318c-1.202,0-2.332-0.468-3.182-1.318l-5.071-5.07
		C38.063,99.62,38.063,96.765,39.818,95.01z M39.818,76.617c0.85-0.851,1.98-1.318,3.182-1.318s2.332,0.468,3.182,1.318l6.879,6.879
		c1.754,1.755,1.754,4.609,0,6.364c-1.755,1.754-4.609,1.754-6.364,0l-6.879-6.879c-0.85-0.851-1.318-1.98-1.318-3.183
		S38.968,77.467,39.818,76.617z M39.818,58.185c0.85-0.851,1.98-1.318,3.182-1.318s2.332,0.468,3.182,1.318l6.879,6.879
		c1.754,1.755,1.754,4.609,0,6.364c-1.755,1.754-4.609,1.754-6.364,0l-6.879-6.879c-0.85-0.851-1.318-1.98-1.318-3.183
		S38.968,59.034,39.818,58.185z M38.26,38.193c1.755-1.754,4.609-1.754,6.364,0L47,40.569v12.729l-8.74-8.74
		c-0.85-0.85-1.318-1.98-1.318-3.183C36.942,40.174,37.41,39.043,38.26,38.193z" class="color5f319b svgShape"/><path fill="#31529b" d="M86,24H73c-1.104,0-2,0.896-2,2s0.896,2,2,2h13c1.104,0,2-0.896,2-2S87.104,24,86,24z" class="color5f319b svgShape"/><path fill="#9cbbff" d="M54.329,109c-0.083,0.091-0.159,0.186-0.247,0.273c0,0,0,0,0,0
		c-0.887,0.887-1.938,1.544-3.082,1.964V114c0,2.757,2.243,5,5,5h24c0-3.542,0.717-6.919,2.006-10H54.329z" class="colorff9c9c svgShape"/><path fill="#5a8eff" d="M48.071 107.764c1.202 0 2.332-.468 3.182-1.318 0 0 0 0 0 0 1.754-1.754 1.754-4.609 0-6.364l-5.071-5.071c-.877-.877-2.03-1.315-3.182-1.315s-2.305.438-3.182 1.315c-1.754 1.755-1.754 4.61 0 6.365l5.071 5.07C45.739 107.296 46.869 107.764 48.071 107.764zM46.697 89.86c1.755 1.754 4.609 1.754 6.364 0 1.754-1.755 1.754-4.609 0-6.364l-6.879-6.879c-.85-.851-1.98-1.318-3.182-1.318s-2.332.468-3.182 1.318c-.851.85-1.318 1.979-1.318 3.182s.468 2.332 1.318 3.183L46.697 89.86zM46.697 71.428c1.755 1.754 4.609 1.754 6.364 0 1.754-1.755 1.754-4.609 0-6.364l-6.879-6.879c-.85-.851-1.98-1.318-3.182-1.318s-2.332.468-3.182 1.318c-.851.85-1.318 1.979-1.318 3.182s.468 2.332 1.318 3.183L46.697 71.428zM109.537 128.973C114.995 123.12 118 115.494 118 107.5V81c0-5.514-4.486-10-10-10H88v1c0 4.963 4.038 9 9 9h9c1.104 0 2 .896 2 2v12c0 1.104-.896 2-2 2-12.131 0-22 9.869-22 22v2 5c0 1.104-.896 2-2 2s-2-.896-2-2v-3H59.073c2.979 5.243 7.456 9.584 12.854 12.409.66.346 1.073 1.028 1.073 1.772V142h36v-11.663C109 129.831 109.192 129.343 109.537 128.973z" class="colorffdf5a svgShape"/></svg>